<svg xmlns="http://www.w3.org/2000/svg" xmlns:xlink="http://www.w3.org/1999/xlink" width="500" zoomAndPan="magnify" viewBox="0 0 375 374.999991" height="500" preserveAspectRatio="xMidYMid meet" version="1.0"><defs><clipPath id="8bcab445f8"><path d="M 8 47.539062 L 368 47.539062 L 368 307 L 8 307 Z M 8 47.539062 " clip-rule="nonzero"/></clipPath></defs><g clip-path="url(#8bcab445f8)"><path fill="#ffffff" d="M 101.800781 47.957031 C 89.976562 47.957031 80.238281 57.695312 80.238281 69.515625 L 80.238281 70.917969 C 76.910156 69.699219 73.273438 69.183594 69.488281 69.796875 C 58.613281 71.566406 51.492188 81.414062 51.492188 91.84375 L 51.492188 195.605469 L 48.78125 192.839844 L 49.386719 193.554688 C 41.140625 182.566406 24.765625 181.402344 15.050781 191.113281 C 13.859375 192.304688 13.171875 193.734375 12.988281 195.410156 C 8.324219 202.738281 7.121094 211.878906 11.921875 219.4375 C 11.96875 219.511719 12.015625 219.585938 12.0625 219.660156 L 59.507812 288.683594 C 59.527344 288.707031 59.542969 288.730469 59.5625 288.753906 C 67.605469 300.15625 80.339844 306.648438 93.855469 306.648438 L 137.734375 306.648438 C 150.246094 306.648438 160.984375 299.863281 168.574219 290.4375 L 183.015625 304.601562 C 183.351562 304.925781 183.710938 305.214844 184.101562 305.472656 C 184.488281 305.726562 184.898438 305.941406 185.328125 306.117188 C 185.761719 306.292969 186.203125 306.425781 186.660156 306.515625 C 187.117188 306.605469 187.578125 306.648438 188.042969 306.648438 C 188.507812 306.648438 188.96875 306.605469 189.425781 306.515625 C 189.882812 306.425781 190.324219 306.292969 190.757812 306.117188 C 191.1875 305.941406 191.597656 305.726562 191.984375 305.472656 C 192.375 305.214844 192.734375 304.925781 193.066406 304.601562 L 207.496094 290.453125 C 215.082031 299.867188 225.839844 306.648438 238.351562 306.648438 L 282.230469 306.648438 C 295.746094 306.648438 308.476562 300.15625 316.523438 288.753906 C 316.539062 288.730469 316.558594 288.707031 316.578125 288.683594 L 364.023438 219.660156 C 364.070312 219.585938 364.117188 219.511719 364.164062 219.4375 C 368.964844 211.878906 367.761719 202.738281 363.097656 195.410156 C 362.910156 193.734375 362.222656 192.304688 361.03125 191.113281 C 351.320312 181.402344 334.945312 182.566406 326.699219 193.554688 L 327.300781 192.839844 L 324.59375 195.605469 L 324.59375 91.84375 C 324.59375 81.414062 317.472656 71.566406 306.597656 69.796875 C 302.8125 69.183594 299.171875 69.699219 295.847656 70.917969 L 295.847656 69.515625 C 295.847656 57.695312 286.105469 47.957031 274.285156 47.957031 C 264.398438 47.957031 256.046875 54.800781 253.550781 63.945312 C 251.0625 62.929688 248.371094 62.328125 245.539062 62.328125 C 233.714844 62.328125 223.976562 72.066406 223.976562 83.886719 L 223.976562 92.476562 C 220.648438 91.257812 217.011719 90.742188 213.226562 91.355469 C 202.347656 93.125 195.230469 102.96875 195.230469 113.402344 L 195.230469 197.191406 C 192.691406 198.738281 190.253906 200.445312 188.042969 202.425781 C 185.832031 200.445312 183.390625 198.738281 180.855469 197.191406 L 180.855469 113.402344 C 180.855469 102.964844 173.730469 93.121094 162.859375 91.355469 C 159.074219 90.742188 155.4375 91.257812 152.109375 92.476562 L 152.109375 83.886719 C 152.109375 72.066406 142.371094 62.328125 130.546875 62.328125 C 127.714844 62.328125 125.019531 62.929688 122.53125 63.945312 C 120.039062 54.800781 111.6875 47.957031 101.800781 47.957031 Z M 101.800781 62.328125 C 105.859375 62.328125 108.988281 65.453125 108.988281 69.515625 L 108.988281 162.933594 C 108.980469 163.40625 109.019531 163.878906 109.109375 164.347656 C 109.195312 164.816406 109.328125 165.269531 109.503906 165.714844 C 109.683594 166.15625 109.902344 166.574219 110.164062 166.972656 C 110.421875 167.371094 110.722656 167.738281 111.054688 168.078125 C 111.390625 168.417969 111.753906 168.722656 112.148438 168.988281 C 112.542969 169.253906 112.960938 169.480469 113.398438 169.664062 C 113.839844 169.847656 114.292969 169.984375 114.757812 170.078125 C 115.226562 170.171875 115.699219 170.21875 116.171875 170.21875 C 116.648438 170.21875 117.121094 170.171875 117.589844 170.078125 C 118.054688 169.984375 118.507812 169.847656 118.949219 169.664062 C 119.386719 169.480469 119.804688 169.253906 120.199219 168.988281 C 120.59375 168.722656 120.957031 168.417969 121.292969 168.078125 C 121.625 167.738281 121.925781 167.371094 122.183594 166.972656 C 122.445312 166.574219 122.664062 166.15625 122.84375 165.714844 C 123.019531 165.269531 123.152344 164.816406 123.238281 164.347656 C 123.328125 163.878906 123.367188 163.40625 123.359375 162.933594 L 123.359375 83.886719 C 123.359375 79.828125 126.488281 76.699219 130.546875 76.699219 C 134.609375 76.699219 137.734375 79.828125 137.734375 83.886719 L 137.734375 170.117188 C 137.726562 170.59375 137.769531 171.066406 137.855469 171.535156 C 137.941406 172.003906 138.074219 172.457031 138.253906 172.898438 C 138.429688 173.339844 138.648438 173.761719 138.910156 174.160156 C 139.171875 174.558594 139.46875 174.925781 139.804688 175.265625 C 140.136719 175.605469 140.5 175.90625 140.894531 176.171875 C 141.289062 176.441406 141.707031 176.664062 142.148438 176.847656 C 142.585938 177.03125 143.039062 177.171875 143.507812 177.265625 C 143.972656 177.359375 144.445312 177.40625 144.921875 177.40625 C 145.398438 177.40625 145.867188 177.359375 146.335938 177.265625 C 146.804688 177.171875 147.257812 177.03125 147.695312 176.847656 C 148.132812 176.664062 148.550781 176.441406 148.945312 176.171875 C 149.339844 175.90625 149.707031 175.605469 150.039062 175.265625 C 150.375 174.925781 150.671875 174.558594 150.933594 174.160156 C 151.195312 173.761719 151.414062 173.339844 151.589844 172.898438 C 151.769531 172.457031 151.902344 172.003906 151.988281 171.535156 C 152.074219 171.066406 152.113281 170.59375 152.109375 170.117188 L 152.109375 112.628906 C 152.109375 108.167969 155.734375 104.761719 160.558594 105.542969 C 163.816406 106.074219 166.480469 109.511719 166.480469 113.402344 L 166.480469 191.929688 C 165.179688 191.769531 163.855469 191.675781 162.496094 191.675781 C 141.042969 191.675781 123.359375 208.917969 123.359375 230.171875 C 123.359375 240.996094 127.976562 250.820312 135.265625 257.78125 L 158.269531 280.335938 C 152.785156 287.679688 145.335938 292.277344 137.734375 292.277344 L 93.855469 292.277344 C 84.816406 292.277344 76.792969 288.246094 71.3125 280.472656 L 24.050781 211.730469 L 24.050781 211.71875 C 21.925781 208.363281 22.402344 204.085938 25.214844 201.273438 C 28.925781 197.566406 34.738281 197.984375 37.890625 202.1875 C 38.082031 202.433594 38.285156 202.667969 38.507812 202.890625 L 53.542969 218.257812 C 54.039062 218.769531 54.605469 219.195312 55.230469 219.535156 C 55.855469 219.878906 56.519531 220.121094 57.21875 220.269531 C 57.917969 220.414062 58.621094 220.453125 59.332031 220.386719 C 60.042969 220.324219 60.730469 220.15625 61.390625 219.886719 C 62.054688 219.617188 62.660156 219.257812 63.214844 218.804688 C 63.769531 218.355469 64.246094 217.832031 64.644531 217.242188 C 65.042969 216.648438 65.34375 216.011719 65.554688 215.328125 C 65.761719 214.644531 65.867188 213.945312 65.867188 213.234375 L 65.867188 91.84375 C 65.867188 87.964844 68.535156 84.515625 71.789062 83.984375 C 76.613281 83.203125 80.238281 86.613281 80.238281 91.074219 L 80.238281 170.117188 C 80.234375 170.59375 80.273438 171.066406 80.359375 171.535156 C 80.445312 172.003906 80.578125 172.457031 80.757812 172.898438 C 80.933594 173.339844 81.152344 173.761719 81.414062 174.160156 C 81.675781 174.558594 81.972656 174.925781 82.308594 175.265625 C 82.640625 175.605469 83.007812 175.90625 83.402344 176.171875 C 83.796875 176.441406 84.214844 176.664062 84.652344 176.847656 C 85.089844 177.03125 85.542969 177.171875 86.011719 177.265625 C 86.480469 177.359375 86.949219 177.40625 87.425781 177.40625 C 87.902344 177.40625 88.375 177.359375 88.839844 177.265625 C 89.308594 177.171875 89.761719 177.03125 90.199219 176.847656 C 90.640625 176.664062 91.054688 176.441406 91.449219 176.171875 C 91.84375 175.90625 92.210938 175.605469 92.542969 175.265625 C 92.878906 174.925781 93.175781 174.558594 93.4375 174.160156 C 93.699219 173.761719 93.917969 173.339844 94.09375 172.898438 C 94.273438 172.457031 94.40625 172.003906 94.492188 171.535156 C 94.578125 171.066406 94.621094 170.59375 94.613281 170.117188 L 94.613281 69.515625 C 94.613281 65.453125 97.738281 62.328125 101.800781 62.328125 Z M 274.285156 62.328125 C 278.347656 62.328125 281.472656 65.453125 281.472656 69.515625 L 281.472656 170.117188 C 281.464844 170.59375 281.503906 171.066406 281.59375 171.535156 C 281.679688 172.003906 281.8125 172.457031 281.988281 172.898438 C 282.167969 173.339844 282.386719 173.761719 282.648438 174.160156 C 282.910156 174.558594 283.207031 174.925781 283.539062 175.265625 C 283.875 175.605469 284.238281 175.90625 284.632812 176.175781 C 285.027344 176.441406 285.445312 176.664062 285.882812 176.851562 C 286.324219 177.035156 286.777344 177.171875 287.246094 177.265625 C 287.710938 177.359375 288.183594 177.40625 288.660156 177.40625 C 289.136719 177.40625 289.605469 177.359375 290.074219 177.265625 C 290.539062 177.171875 290.992188 177.035156 291.433594 176.851562 C 291.871094 176.664062 292.289062 176.441406 292.683594 176.175781 C 293.078125 175.90625 293.441406 175.605469 293.777344 175.265625 C 294.113281 174.925781 294.410156 174.558594 294.671875 174.160156 C 294.929688 173.761719 295.152344 173.339844 295.328125 172.898438 C 295.503906 172.457031 295.636719 172.003906 295.726562 171.535156 C 295.8125 171.066406 295.851562 170.59375 295.847656 170.117188 L 295.847656 91.074219 C 295.847656 86.613281 299.472656 83.203125 304.296875 83.984375 C 307.550781 84.515625 310.21875 87.964844 310.21875 91.84375 L 310.21875 213.234375 C 310.21875 213.945312 310.324219 214.644531 310.53125 215.328125 C 310.742188 216.011719 311.042969 216.648438 311.441406 217.242188 C 311.839844 217.832031 312.316406 218.355469 312.871094 218.804688 C 313.425781 219.257812 314.03125 219.617188 314.691406 219.886719 C 315.355469 220.15625 316.039062 220.324219 316.75 220.386719 C 317.460938 220.453125 318.167969 220.414062 318.867188 220.269531 C 319.566406 220.121094 320.230469 219.878906 320.855469 219.535156 C 321.480469 219.195312 322.042969 218.769531 322.542969 218.257812 L 337.578125 202.890625 C 337.796875 202.667969 338.003906 202.433594 338.195312 202.1875 C 341.347656 197.984375 347.160156 197.566406 350.871094 201.273438 C 353.683594 204.085938 354.160156 208.363281 352.035156 211.71875 C 352.035156 211.71875 352.035156 211.730469 352.035156 211.730469 L 304.773438 280.472656 C 299.292969 288.242188 291.269531 292.277344 282.230469 292.277344 L 238.351562 292.277344 C 230.75 292.277344 223.308594 287.683594 217.816406 280.335938 L 240.820312 257.78125 C 248.109375 250.820312 252.722656 240.996094 252.722656 230.171875 C 252.722656 208.917969 235.042969 191.675781 213.589844 191.675781 C 212.230469 191.675781 210.90625 191.769531 209.601562 191.929688 L 209.601562 113.402344 C 209.601562 109.519531 212.273438 106.074219 215.527344 105.542969 C 220.351562 104.761719 223.976562 108.167969 223.976562 112.628906 L 223.976562 170.117188 C 223.96875 170.59375 224.011719 171.066406 224.097656 171.535156 C 224.183594 172.003906 224.316406 172.457031 224.496094 172.898438 C 224.671875 173.339844 224.890625 173.761719 225.152344 174.160156 C 225.414062 174.558594 225.710938 174.925781 226.046875 175.265625 C 226.378906 175.605469 226.746094 175.90625 227.140625 176.171875 C 227.535156 176.441406 227.949219 176.664062 228.390625 176.847656 C 228.828125 177.03125 229.28125 177.171875 229.75 177.265625 C 230.214844 177.359375 230.6875 177.40625 231.164062 177.40625 C 231.640625 177.40625 232.113281 177.359375 232.578125 177.265625 C 233.046875 177.171875 233.5 177.03125 233.9375 176.847656 C 234.378906 176.664062 234.792969 176.441406 235.1875 176.171875 C 235.582031 175.90625 235.949219 175.605469 236.28125 175.265625 C 236.617188 174.925781 236.914062 174.558594 237.175781 174.160156 C 237.4375 173.761719 237.65625 173.339844 237.832031 172.898438 C 238.011719 172.457031 238.144531 172.003906 238.230469 171.535156 C 238.316406 171.066406 238.359375 170.59375 238.351562 170.117188 L 238.351562 83.886719 C 238.351562 79.828125 241.476562 76.699219 245.539062 76.699219 C 249.597656 76.699219 252.722656 79.828125 252.722656 83.886719 L 252.722656 162.933594 C 252.71875 163.40625 252.757812 163.878906 252.84375 164.347656 C 252.933594 164.816406 253.0625 165.269531 253.242188 165.714844 C 253.417969 166.15625 253.640625 166.574219 253.898438 166.972656 C 254.160156 167.371094 254.457031 167.742188 254.792969 168.078125 C 255.128906 168.417969 255.492188 168.722656 255.886719 168.988281 C 256.28125 169.253906 256.699219 169.480469 257.136719 169.664062 C 257.578125 169.847656 258.03125 169.988281 258.496094 170.082031 C 258.964844 170.171875 259.433594 170.21875 259.910156 170.21875 C 260.386719 170.21875 260.859375 170.171875 261.324219 170.082031 C 261.792969 169.988281 262.246094 169.847656 262.683594 169.664062 C 263.125 169.480469 263.542969 169.253906 263.9375 168.988281 C 264.332031 168.722656 264.695312 168.417969 265.03125 168.078125 C 265.363281 167.742188 265.660156 167.371094 265.921875 166.972656 C 266.183594 166.574219 266.402344 166.15625 266.582031 165.714844 C 266.757812 165.269531 266.890625 164.816406 266.976562 164.347656 C 267.066406 163.878906 267.105469 163.40625 267.097656 162.933594 L 267.097656 69.515625 C 267.097656 65.453125 270.222656 62.328125 274.285156 62.328125 Z M 162.496094 206.046875 C 170.699219 206.046875 177.789062 209.941406 182.316406 215.898438 C 182.652344 216.339844 183.03125 216.738281 183.460938 217.09375 C 183.886719 217.445312 184.347656 217.746094 184.84375 217.992188 C 185.34375 218.242188 185.859375 218.425781 186.402344 218.554688 C 186.941406 218.679688 187.488281 218.742188 188.042969 218.742188 C 188.597656 218.742188 189.144531 218.679688 189.683594 218.554688 C 190.226562 218.425781 190.742188 218.242188 191.238281 217.992188 C 191.738281 217.746094 192.199219 217.445312 192.625 217.09375 C 193.054688 216.738281 193.433594 216.339844 193.769531 215.898438 C 198.292969 209.941406 205.394531 206.046875 213.589844 206.046875 C 227.425781 206.046875 238.351562 216.835938 238.351562 230.171875 C 238.351562 236.941406 235.527344 242.972656 230.898438 247.394531 C 230.875 247.417969 230.851562 247.441406 230.828125 247.464844 L 188.042969 289.402344 L 145.257812 247.464844 C 145.234375 247.441406 145.210938 247.417969 145.1875 247.394531 C 140.558594 242.972656 137.734375 236.941406 137.734375 230.171875 C 137.734375 216.835938 148.660156 206.046875 162.496094 206.046875 Z M 162.496094 206.046875 " fill-opacity="1" fill-rule="nonzero"/></g></svg>