<svg xmlns="http://www.w3.org/2000/svg" xmlns:xlink="http://www.w3.org/1999/xlink" width="500" zoomAndPan="magnify" viewBox="0 0 375 374.999991" height="500" preserveAspectRatio="xMidYMid meet" version="1.0"><defs><clipPath id="9659990428"><path d="M 7.953125 104 L 114 104 L 114 190 L 7.953125 190 Z M 7.953125 104 " clip-rule="nonzero"/></clipPath><clipPath id="77c22d2f68"><path d="M 315 275 L 349 275 L 349 355.925781 L 315 355.925781 Z M 315 275 " clip-rule="nonzero"/></clipPath><clipPath id="31d0137dbe"><path d="M 256 117 L 367.203125 117 L 367.203125 190 L 256 190 Z M 256 117 " clip-rule="nonzero"/></clipPath></defs><path fill="#ffffff" d="M 221.007812 245.039062 C 221.054688 243.835938 221.503906 242.890625 222.1875 242.152344 C 221.15625 242.285156 220.140625 242.625 219.222656 243.246094 L 206.371094 251.90625 L 187.980469 248.921875 C 187.367188 248.824219 186.769531 248.835938 186.183594 248.894531 C 181.992188 251.945312 176.855469 253.769531 171.289062 253.769531 C 164.445312 253.769531 158.238281 251.035156 153.671875 246.621094 L 123.976562 229.617188 C 121.785156 228.359375 119.207031 228.464844 117.15625 229.625 C 118.550781 232.390625 119.460938 234.125 119.5 234.199219 L 120.894531 236.851562 L 115.179688 239.917969 C 115.707031 240.574219 116.347656 241.152344 117.121094 241.59375 L 149.597656 260.191406 L 149.597656 344.777344 C 149.597656 350.222656 154.011719 354.632812 159.457031 354.632812 C 164.902344 354.632812 169.316406 350.222656 169.316406 344.777344 L 169.316406 313.234375 L 173.261719 313.234375 L 173.261719 344.777344 C 173.261719 350.222656 177.671875 354.632812 183.117188 354.632812 C 188.566406 354.632812 192.976562 350.222656 192.976562 344.777344 L 192.976562 263.714844 L 206.859375 265.964844 C 207.226562 266.023438 207.597656 266.054688 207.964844 266.054688 C 209.328125 266.054688 210.675781 265.648438 211.820312 264.875 L 226.9375 254.691406 C 227.476562 254.328125 227.921875 253.886719 228.320312 253.414062 C 220.863281 249 220.957031 246.410156 221.007812 245.039062 Z M 221.007812 245.039062 " fill-opacity="1" fill-rule="nonzero"/><path fill="#ffffff" d="M 171.289062 248.515625 C 182.394531 248.515625 191.398438 239.511719 191.398438 228.40625 C 191.398438 217.300781 182.394531 208.300781 171.289062 208.300781 C 160.183594 208.300781 151.179688 217.300781 151.179688 228.40625 C 151.179688 239.511719 160.179688 248.515625 171.289062 248.515625 Z M 184.1875 230.714844 L 183.757812 233.707031 C 173.144531 232.1875 166.402344 239.101562 166.335938 239.167969 L 164.148438 237.082031 C 164.464844 236.75 172.046875 228.988281 184.1875 230.714844 Z M 184.1875 230.714844 " fill-opacity="1" fill-rule="nonzero"/><path fill="#ffffff" d="M 287.746094 117.390625 C 290.914062 116.019531 294.386719 115.109375 298.113281 114.664062 C 298.152344 114.503906 298.1875 114.359375 298.222656 114.207031 C 297.101562 111.273438 296.402344 108.128906 296.214844 104.839844 C 296.054688 102.046875 296.273438 99.3125 296.820312 96.691406 C 288.621094 98.660156 280.253906 104.929688 273.652344 119.988281 C 263.167969 143.894531 253.433594 143.929688 247.167969 140.65625 C 242.46875 138.203125 246.878906 148.539062 258.714844 150.246094 C 263.210938 142.128906 266.832031 136.433594 270.398438 131.808594 C 275.800781 124.808594 281.472656 120.089844 287.746094 117.390625 Z M 287.746094 117.390625 " fill-opacity="1" fill-rule="nonzero"/><path fill="#ffffff" d="M 72.835938 175.835938 C 72.4375 175.835938 72.035156 175.816406 71.644531 175.78125 C 69.996094 175.644531 68.28125 175.570312 66.542969 175.570312 C 49.125 175.570312 33.128906 182.507812 30.273438 185.121094 C 29.511719 186.480469 28.535156 187.675781 27.402344 188.675781 L 30.917969 212.003906 L 30.917969 338.273438 C 30.917969 347.25 38.195312 354.523438 47.167969 354.523438 C 56.144531 354.523438 63.421875 347.25 63.421875 338.273438 L 63.421875 219.339844 L 69.515625 218.421875 L 69.515625 338.273438 C 69.515625 347.25 76.792969 354.519531 85.765625 354.519531 C 94.742188 354.519531 102.019531 347.25 102.019531 338.273438 L 102.019531 243.546875 L 116.824219 235.605469 C 116.824219 235.605469 107.316406 217.539062 101.605469 202.765625 C 101.496094 202.28125 101.367188 201.804688 101.214844 201.339844 L 99.335938 188.859375 L 96.34375 169.027344 C 93.597656 168.085938 89.972656 167.011719 85.796875 166.023438 C 84.160156 171.695312 78.894531 175.835938 72.835938 175.835938 Z M 72.835938 175.835938 " fill-opacity="1" fill-rule="nonzero"/><g clip-path="url(#9659990428)"><path fill="#ffffff" d="M 27.8125 183.308594 C 31.359375 179.347656 52.136719 171.09375 71.898438 172.769531 C 77.675781 173.285156 82.777344 168.972656 83.269531 163.183594 C 83.761719 157.398438 79.46875 152.308594 73.683594 151.816406 C 57.867188 150.464844 37.496094 154.199219 23.601562 161.199219 C 20.28125 154.675781 22.757812 146.632812 29.238281 143.144531 C 38.148438 138.347656 49.152344 135.917969 61.953125 135.917969 C 66.660156 135.917969 71.285156 136.261719 75.703125 136.792969 L 70.9375 128.546875 L 74.199219 128.148438 L 81.421875 140.652344 C 65.9375 138.074219 46.210938 137.441406 30.671875 145.808594 C 26.53125 148.039062 24.492188 152.644531 25.328125 157.03125 C 37.542969 151.585938 53.261719 148.519531 66.988281 148.519531 C 69.386719 148.519531 71.726562 148.617188 73.941406 148.804688 C 81.246094 149.429688 86.699219 155.773438 86.296875 163.046875 C 91.765625 164.328125 96.367188 165.769531 99.320312 166.875 C 99.644531 167 99.972656 167.101562 100.304688 167.191406 C 100.371094 167.207031 100.441406 167.21875 100.507812 167.234375 C 100.839844 167.316406 101.167969 167.382812 101.5 167.429688 C 101.613281 167.445312 101.722656 167.464844 101.835938 167.476562 C 102.210938 167.515625 102.585938 167.542969 102.957031 167.546875 C 102.984375 167.546875 103.007812 167.550781 103.035156 167.550781 C 103.539062 167.550781 104.039062 167.507812 104.542969 167.433594 C 104.621094 167.421875 104.695312 167.402344 104.773438 167.386719 C 105.1875 167.320312 105.597656 167.226562 106.007812 167.105469 C 106.121094 167.070312 106.230469 167.027344 106.34375 166.992188 C 106.699219 166.871094 107.050781 166.734375 107.402344 166.574219 C 107.535156 166.515625 107.660156 166.449219 107.789062 166.382812 C 107.953125 166.300781 108.121094 166.234375 108.28125 166.140625 C 108.484375 166.023438 108.675781 165.890625 108.867188 165.761719 C 108.898438 165.738281 108.9375 165.71875 108.96875 165.695312 C 109.390625 165.40625 109.789062 165.09375 110.15625 164.753906 C 110.167969 164.742188 110.179688 164.730469 110.195312 164.71875 C 110.5625 164.375 110.898438 164.007812 111.210938 163.625 C 111.226562 163.601562 111.246094 163.578125 111.265625 163.554688 C 111.585938 163.152344 111.875 162.722656 112.128906 162.28125 C 112.148438 162.246094 112.167969 162.210938 112.183594 162.175781 C 112.960938 160.789062 113.421875 159.246094 113.519531 157.664062 C 113.519531 157.628906 113.519531 157.59375 113.519531 157.558594 C 113.535156 157.253906 113.542969 156.945312 113.53125 156.632812 C 113.527344 156.601562 113.523438 156.570312 113.523438 156.539062 C 113.507812 156.230469 113.484375 155.917969 113.441406 155.609375 C 113.441406 155.601562 113.4375 155.59375 113.4375 155.585938 C 113.257812 154.28125 112.832031 152.988281 112.132812 151.78125 L 96.886719 125.375 L 87.597656 109.285156 C 84.691406 104.253906 78.261719 102.53125 73.230469 105.433594 C 72.828125 105.667969 72.453125 105.929688 72.09375 106.207031 C 71.449219 107.332031 70.746094 108.433594 69.964844 109.492188 C 64.796875 116.496094 57.207031 121.066406 48.59375 122.367188 C 46.976562 122.609375 45.328125 122.734375 43.699219 122.734375 C 34.601562 122.734375 26.199219 118.855469 20.207031 112.597656 C 15.738281 113.558594 12.253906 117.339844 11.917969 122.121094 L 7.972656 177.757812 C 7.96875 177.820312 7.972656 177.878906 7.96875 177.9375 C 7.957031 178.164062 7.953125 178.386719 7.957031 178.613281 C 7.957031 178.75 7.960938 178.886719 7.964844 179.019531 C 7.976562 179.214844 7.992188 179.410156 8.011719 179.601562 C 8.03125 179.765625 8.046875 179.929688 8.074219 180.089844 C 8.097656 180.25 8.128906 180.40625 8.160156 180.5625 C 8.199219 180.75 8.238281 180.9375 8.285156 181.121094 C 8.316406 181.253906 8.359375 181.386719 8.398438 181.519531 C 8.457031 181.710938 8.515625 181.90625 8.585938 182.097656 C 8.632812 182.226562 8.683594 182.347656 8.734375 182.472656 C 8.8125 182.65625 8.886719 182.839844 8.972656 183.019531 C 9.039062 183.15625 9.109375 183.289062 9.179688 183.417969 C 9.265625 183.578125 9.347656 183.738281 9.441406 183.890625 C 9.527344 184.039062 9.625 184.183594 9.722656 184.328125 C 9.808594 184.457031 9.894531 184.589844 9.988281 184.714844 C 10.101562 184.871094 10.222656 185.019531 10.34375 185.167969 C 10.433594 185.277344 10.523438 185.386719 10.617188 185.492188 C 10.75 185.640625 10.886719 185.78125 11.027344 185.921875 C 11.128906 186.023438 11.226562 186.125 11.332031 186.222656 C 11.46875 186.347656 11.613281 186.46875 11.757812 186.585938 C 11.882812 186.691406 12.007812 186.796875 12.140625 186.894531 C 12.269531 186.992188 12.402344 187.085938 12.539062 187.175781 C 12.699219 187.285156 12.859375 187.394531 13.03125 187.496094 C 13.144531 187.566406 13.265625 187.632812 13.386719 187.699219 C 13.582031 187.804688 13.78125 187.910156 13.980469 188.003906 C 14.039062 188.03125 14.085938 188.0625 14.144531 188.085938 C 14.199219 188.113281 14.257812 188.128906 14.316406 188.152344 C 14.539062 188.25 14.765625 188.335938 15 188.417969 C 15.125 188.460938 15.25 188.507812 15.378906 188.546875 C 15.578125 188.609375 15.78125 188.660156 15.988281 188.710938 C 16.148438 188.75 16.3125 188.789062 16.476562 188.820312 C 16.644531 188.851562 16.8125 188.875 16.984375 188.902344 C 17.179688 188.929688 17.378906 188.957031 17.574219 188.972656 C 17.625 188.976562 17.671875 188.988281 17.722656 188.992188 C 17.910156 189.003906 18.097656 189.007812 18.285156 189.011719 C 18.34375 189.011719 18.402344 189.019531 18.460938 189.019531 C 18.488281 189.019531 18.515625 189.015625 18.546875 189.011719 C 18.949219 189.011719 19.347656 188.980469 19.742188 188.933594 C 19.851562 188.917969 19.960938 188.902344 20.070312 188.886719 C 20.441406 188.828125 20.808594 188.753906 21.164062 188.660156 C 21.21875 188.644531 21.269531 188.636719 21.324219 188.621094 C 21.742188 188.503906 22.148438 188.359375 22.542969 188.191406 C 22.617188 188.160156 22.691406 188.125 22.761719 188.089844 C 23.09375 187.941406 23.414062 187.777344 23.726562 187.597656 C 23.804688 187.550781 23.886719 187.507812 23.964844 187.460938 C 24.316406 187.246094 24.652344 187.011719 24.972656 186.757812 C 25.0625 186.691406 25.140625 186.613281 25.226562 186.542969 C 25.472656 186.335938 25.703125 186.125 25.929688 185.898438 L 25.929688 185.894531 C 26.660156 185.148438 27.308594 184.289062 27.8125 183.308594 Z M 27.8125 183.308594 " fill-opacity="1" fill-rule="nonzero"/></g><path fill="#ffffff" d="M 48.144531 119.375 C 64.296875 116.941406 75.414062 101.878906 72.980469 85.726562 C 70.546875 69.578125 55.480469 58.457031 39.328125 60.894531 C 23.175781 63.328125 12.054688 78.390625 14.488281 94.542969 C 16.925781 110.691406 31.992188 121.8125 48.144531 119.375 Z M 53.414062 100.316406 L 50.070312 102.40625 C 48.824219 100.410156 36.503906 99.648438 23.707031 100.777344 L 23.359375 96.851562 C 31.304688 96.148438 50.140625 95.078125 53.414062 100.316406 Z M 53.414062 100.316406 " fill-opacity="1" fill-rule="nonzero"/><g clip-path="url(#77c22d2f68)"><path fill="#ffffff" d="M 315.910156 277 L 322.476562 343.398438 C 323.1875 350.621094 329.625 355.898438 336.847656 355.183594 C 344.074219 354.46875 349.351562 348.035156 348.636719 340.808594 L 342.167969 275.398438 C 336.878906 276.316406 329.835938 277.105469 321.164062 277.105469 C 319.429688 277.105469 317.675781 277.0625 315.910156 277 Z M 315.910156 277 " fill-opacity="1" fill-rule="nonzero"/></g><path fill="#ffffff" d="M 251.316406 340.003906 C 250.296875 347.195312 255.300781 353.84375 262.488281 354.859375 C 269.671875 355.878906 276.328125 350.878906 277.34375 343.691406 L 287.296875 273.414062 C 279.109375 271.726562 270.292969 269.425781 261.683594 266.769531 Z M 251.316406 340.003906 " fill-opacity="1" fill-rule="nonzero"/><path fill="#ffffff" d="M 349.585938 190.171875 L 348.914062 189.765625 C 347.1875 188.644531 345.53125 187.378906 343.777344 186.039062 C 343.214844 185.609375 342.632812 185.167969 342.011719 184.699219 C 334.421875 178.925781 324.179688 172.050781 311.960938 169.796875 C 299.6875 167.804688 287.734375 170.832031 278.648438 173.71875 C 277.882812 173.957031 277.167969 174.183594 276.480469 174.402344 C 275.722656 174.644531 274.988281 174.871094 274.253906 175.097656 L 260.542969 220.054688 C 260.542969 220.054688 254.628906 240.097656 230.308594 242.398438 C 205.992188 244.699219 257.617188 265.328125 294.296875 271.683594 C 330.976562 278.039062 352.441406 269.753906 352.441406 269.753906 L 350.132812 190.496094 C 349.945312 190.386719 349.761719 190.273438 349.585938 190.171875 Z M 349.585938 190.171875 " fill-opacity="1" fill-rule="nonzero"/><g clip-path="url(#31d0137dbe)"><path fill="#ffffff" d="M 260.910156 172.589844 C 262.085938 173.242188 263.15625 173.53125 264.03125 173.6875 C 266.90625 174.089844 268.257812 173.632812 269.769531 173.355469 C 272.277344 172.757812 274.753906 171.902344 277.765625 170.964844 C 282.242188 169.542969 287.710938 167.964844 293.746094 167.039062 C 290.9375 165.085938 289.085938 161.914062 288.886719 158.296875 C 288.714844 155.15625 289.832031 152.238281 291.773438 150.058594 C 288.25 150.574219 284.964844 151.265625 281.964844 152.007812 L 287.085938 147.925781 C 290.789062 147.21875 294.386719 146.75 297.902344 146.5 C 298.480469 146.375 299.070312 146.28125 299.675781 146.246094 C 304.894531 145.957031 310.171875 146.265625 315.367188 147.167969 C 315.539062 147.195312 315.707031 147.238281 315.878906 147.265625 C 316.039062 147.292969 316.203125 147.3125 316.363281 147.339844 C 321.558594 148.238281 326.636719 149.726562 331.457031 151.753906 C 332.011719 151.988281 332.53125 152.273438 333.035156 152.585938 C 336.265625 154.007812 339.5 155.660156 342.746094 157.570312 C 342.699219 157.398438 342.648438 157.222656 342.601562 157.054688 C 342.0625 155.199219 341.492188 153.539062 340.898438 152.085938 L 344.242188 152.742188 C 344.628906 153.8125 345.007812 154.972656 345.378906 156.25 C 346.023438 158.460938 346.636719 160.980469 347.234375 163.835938 C 339.296875 158.449219 328.433594 152.375 314.875 150.015625 C 310.160156 149.199219 305.125 148.84375 299.839844 149.136719 L 299.835938 149.136719 C 295.128906 149.398438 291.519531 153.429688 291.777344 158.140625 C 292.039062 162.851562 296.070312 166.457031 300.78125 166.195312 C 304.714844 165.980469 308.429688 166.242188 311.957031 166.851562 C 325.398438 169.15625 336.328125 176.746094 343.765625 182.40625 C 346.289062 184.304688 348.332031 185.941406 350.492188 187.34375 C 351.824219 188.117188 352.941406 189 355.785156 189.589844 C 356.664062 189.742188 357.765625 189.828125 359.09375 189.613281 C 360.410156 189.402344 361.949219 188.808594 363.203125 187.835938 C 365.808594 185.808594 366.578125 183.226562 366.839844 181.710938 C 367.160156 179.648438 366.980469 178.324219 366.800781 176.949219 C 365.117188 165.367188 363.421875 156.390625 361.007812 148.949219 C 358.605469 141.554688 355.300781 135.433594 350.335938 130.816406 C 349.152344 129.707031 347.894531 128.707031 346.574219 127.804688 C 341.617188 131.652344 335.628906 133.917969 329.230469 134.285156 C 328.625 134.320312 328.019531 134.335938 327.421875 134.335938 C 315.449219 134.335938 304.96875 127.558594 299.726562 117.546875 C 296.035156 117.867188 292.402344 118.675781 288.945312 120.175781 C 282.714844 122.855469 277.542969 127.507812 272.796875 133.660156 C 268.019531 139.859375 263.398438 147.738281 257.914062 158.082031 C 257.285156 159.3125 256.667969 160.5 256.277344 162.550781 C 256.011719 164.066406 255.871094 166.757812 257.640625 169.542969 C 258.492188 170.871094 259.742188 171.953125 260.910156 172.589844 Z M 280.753906 152.308594 C 281.054688 151.820312 281.347656 151.351562 281.640625 150.886719 L 281.242188 152.1875 C 281.082031 152.226562 280.914062 152.269531 280.753906 152.308594 Z M 280.753906 152.308594 " fill-opacity="1" fill-rule="nonzero"/></g><path fill="#ffffff" d="M 329.054688 131.257812 C 344.632812 130.367188 356.542969 117.015625 355.648438 101.4375 C 354.753906 85.863281 341.402344 73.957031 325.824219 74.847656 C 310.246094 75.742188 298.339844 89.089844 299.230469 104.667969 C 300.121094 120.246094 313.472656 132.148438 329.054688 131.257812 Z M 347.355469 111.527344 L 347.007812 115.453125 C 334.210938 114.324219 321.894531 115.085938 320.648438 117.082031 L 317.304688 114.992188 C 320.578125 109.757812 339.410156 110.824219 347.355469 111.527344 Z M 347.355469 111.527344 " fill-opacity="1" fill-rule="nonzero"/><path fill="#ffffff" d="M 58.011719 46.265625 L 58.605469 48.535156 C 65.359375 46.761719 69.546875 43.640625 71.0625 39.261719 C 73.554688 32.050781 67.753906 24.273438 67.507812 23.949219 L 65.636719 25.363281 C 65.6875 25.433594 70.933594 32.453125 68.84375 38.496094 C 67.601562 42.089844 63.957031 44.703125 58.011719 46.265625 Z M 58.011719 46.265625 " fill-opacity="1" fill-rule="nonzero"/><path fill="#ffffff" d="M 95.660156 35.378906 L 94.585938 33.292969 C 89.023438 36.152344 84.496094 36.652344 81.132812 34.773438 C 75.457031 31.605469 74.695312 22.589844 74.6875 22.5 L 72.347656 22.679688 C 72.378906 23.097656 73.203125 33.027344 79.980469 36.820312 C 81.671875 37.765625 83.5625 38.238281 85.648438 38.238281 C 88.609375 38.238281 91.957031 37.28125 95.660156 35.378906 Z M 95.660156 35.378906 " fill-opacity="1" fill-rule="nonzero"/><path fill="#ffffff" d="M 96.941406 42.660156 L 96.535156 40.351562 C 89.507812 41.585938 85.101562 44.359375 83.433594 48.585938 C 80.582031 55.828125 86.984375 64.4375 87.257812 64.800781 L 89.132812 63.386719 C 89.074219 63.308594 83.246094 55.453125 85.621094 49.441406 C 86.96875 46.027344 90.777344 43.746094 96.941406 42.660156 Z M 96.941406 42.660156 " fill-opacity="1" fill-rule="nonzero"/><path fill="#ffffff" d="M 73.859375 53.246094 C 79.539062 56.300781 80.070312 66.113281 80.074219 66.210938 L 82.417969 66.101562 C 82.398438 65.648438 81.828125 54.875 74.976562 51.183594 C 70.925781 49 65.65625 49.800781 59.324219 53.5625 L 60.523438 55.582031 C 66.09375 52.269531 70.578125 51.484375 73.859375 53.246094 Z M 73.859375 53.246094 " fill-opacity="1" fill-rule="nonzero"/><path fill="#ffffff" d="M 211.671875 180.417969 C 205.554688 172.230469 190.652344 184.9375 191.304688 196.710938 C 204.707031 187.214844 217.433594 188.121094 211.671875 180.417969 Z M 211.671875 180.417969 " fill-opacity="1" fill-rule="nonzero"/><path fill="#ffffff" d="M 178.09375 199.804688 C 179.941406 186.925781 187.40625 180.109375 179.835938 179.214844 C 171.792969 178.265625 170.96875 193.757812 178.09375 199.804688 Z M 178.09375 199.804688 " fill-opacity="1" fill-rule="nonzero"/><path fill="#ffffff" d="M 197.585938 212.710938 C 207.929688 207.964844 216.476562 210.214844 213.542969 204.230469 C 210.429688 197.871094 198.652344 204.613281 197.585938 212.710938 Z M 197.585938 212.710938 " fill-opacity="1" fill-rule="nonzero"/><path fill="#ffffff" d="M 268.6875 43.050781 C 265.9375 46.484375 264.875 51.171875 266.253906 55.699219 C 268.476562 62.988281 276.1875 67.09375 283.476562 64.871094 C 286.351562 63.996094 288.71875 62.257812 290.410156 60.039062 L 301.910156 71.554688 L 303.378906 70.234375 L 293.589844 59.371094 L 286.007812 50.953125 L 283.660156 53.273438 L 288.074219 57.695312 C 286.78125 59.160156 285.089844 60.304688 283.085938 60.914062 C 277.316406 62.671875 271.210938 59.421875 269.453125 53.652344 C 268.503906 50.542969 269.019531 47.339844 270.59375 44.769531 C 271.804688 45.667969 273.15625 46.367188 274.59375 46.820312 C 272.234375 45.445312 270.363281 43.21875 269.503906 40.398438 C 267.691406 34.457031 271.039062 28.167969 276.984375 26.355469 C 282.929688 24.546875 289.214844 27.894531 291.027344 33.839844 C 291.449219 35.222656 291.582031 36.625 291.476562 37.988281 C 292.261719 35.488281 292.328125 32.738281 291.503906 30.042969 C 291.464844 29.914062 291.410156 29.792969 291.367188 29.664062 C 296.933594 28.34375 302.640625 31.550781 304.332031 37.09375 C 305.988281 42.527344 303.203125 48.25 298.054688 50.371094 L 295.285156 44.875 L 292.34375 46.375 L 298.125 56.507812 L 305.203125 68.914062 L 306.914062 67.9375 L 299.121094 52.484375 C 299.261719 52.445312 299.402344 52.417969 299.546875 52.375 C 306.488281 50.261719 310.398438 42.917969 308.285156 35.976562 C 306.167969 29.035156 298.824219 25.125 291.882812 27.238281 C 291.425781 27.378906 290.980469 27.546875 290.550781 27.726562 C 287.609375 22.09375 280.996094 19.167969 274.695312 21.089844 C 267.578125 23.257812 263.570312 30.78125 265.738281 37.898438 C 266.339844 39.886719 267.371094 41.617188 268.6875 43.050781 Z M 268.6875 43.050781 " fill-opacity="1" fill-rule="nonzero"/><path fill="#ffffff" d="M 149.105469 213.695312 C 149.75 213.367188 150.007812 212.578125 149.679688 211.929688 C 149.355469 211.28125 148.558594 211.023438 147.914062 211.351562 C 145.132812 212.761719 143.351562 214.691406 142.625 217.09375 C 141.503906 220.800781 143.378906 224.203125 143.460938 224.347656 C 143.703125 224.773438 144.144531 225.015625 144.605469 225.015625 C 144.820312 225.015625 145.039062 224.960938 145.246094 224.847656 C 145.875 224.496094 146.101562 223.695312 145.753906 223.0625 C 145.738281 223.035156 144.339844 220.457031 145.148438 217.835938 C 145.664062 216.15625 146.996094 214.761719 149.105469 213.695312 Z M 149.105469 213.695312 " fill-opacity="1" fill-rule="nonzero"/><path fill="#ffffff" d="M 145.851562 208.8125 C 146.507812 208.511719 146.800781 207.730469 146.496094 207.070312 C 146.195312 206.410156 145.414062 206.121094 144.75 206.425781 C 140.53125 208.363281 137.765625 211.113281 136.527344 214.601562 C 134.648438 219.90625 137.074219 224.910156 137.175781 225.121094 C 137.40625 225.585938 137.871094 225.851562 138.355469 225.851562 C 138.550781 225.851562 138.75 225.808594 138.9375 225.714844 C 139.589844 225.394531 139.855469 224.605469 139.53125 223.957031 C 139.511719 223.914062 137.492188 219.75 139.007812 215.480469 C 139.996094 212.6875 142.296875 210.445312 145.851562 208.8125 Z M 145.851562 208.8125 " fill-opacity="1" fill-rule="nonzero"/></svg>