<svg width="375" height="264" viewBox="0 0 375 264" fill="none" xmlns="http://www.w3.org/2000/svg">
<path d="M56.6378 208H52.9446L63.6264 178.909H67.2628L77.9446 208H74.2514L65.5582 183.511H65.331L56.6378 208ZM58.0014 196.636H72.8878V199.761H58.0014V196.636ZM82.0213 208V186.182H85.2599V189.591H85.544C85.9986 188.426 86.7325 187.522 87.7457 186.878C88.759 186.224 89.9759 185.898 91.3963 185.898C92.8357 185.898 94.0336 186.224 94.9901 186.878C95.956 187.522 96.7088 188.426 97.2486 189.591H97.4759C98.0346 188.464 98.8726 187.569 99.9901 186.906C101.107 186.234 102.447 185.898 104.01 185.898C105.961 185.898 107.556 186.509 108.797 187.73C110.037 188.942 110.658 190.831 110.658 193.398V208H107.305V193.398C107.305 191.788 106.865 190.637 105.984 189.946C105.104 189.255 104.067 188.909 102.874 188.909C101.339 188.909 100.151 189.373 99.3082 190.301C98.4654 191.22 98.044 192.384 98.044 193.795V208H94.6349V193.057C94.6349 191.816 94.2325 190.817 93.4276 190.06C92.6226 189.293 91.5857 188.909 90.3168 188.909C89.4455 188.909 88.6312 189.141 87.8736 189.605C87.1255 190.069 86.5194 190.713 86.0554 191.537C85.6009 192.351 85.3736 193.294 85.3736 194.364V208H82.0213ZM123.207 208.511C121.825 208.511 120.57 208.251 119.443 207.73C118.316 207.2 117.421 206.438 116.759 205.443C116.096 204.439 115.764 203.227 115.764 201.807C115.764 200.557 116.01 199.544 116.503 198.767C116.995 197.981 117.653 197.366 118.477 196.92C119.301 196.475 120.21 196.144 121.205 195.926C122.208 195.699 123.217 195.519 124.23 195.386C125.556 195.216 126.631 195.088 127.455 195.003C128.288 194.908 128.894 194.752 129.273 194.534C129.661 194.316 129.855 193.937 129.855 193.398V193.284C129.855 191.883 129.472 190.794 128.705 190.017C127.947 189.241 126.796 188.852 125.253 188.852C123.652 188.852 122.398 189.203 121.489 189.903C120.58 190.604 119.94 191.352 119.571 192.148L116.389 191.011C116.957 189.686 117.715 188.653 118.662 187.915C119.618 187.167 120.66 186.646 121.787 186.352C122.923 186.049 124.041 185.898 125.139 185.898C125.84 185.898 126.645 185.983 127.554 186.153C128.473 186.314 129.358 186.651 130.21 187.162C131.072 187.673 131.787 188.445 132.355 189.477C132.923 190.509 133.207 191.892 133.207 193.625V208H129.855V205.045H129.685C129.457 205.519 129.079 206.026 128.548 206.565C128.018 207.105 127.313 207.564 126.432 207.943C125.551 208.322 124.476 208.511 123.207 208.511ZM123.719 205.5C125.045 205.5 126.162 205.24 127.071 204.719C127.99 204.198 128.681 203.526 129.145 202.702C129.618 201.878 129.855 201.011 129.855 200.102V197.034C129.713 197.205 129.401 197.361 128.918 197.503C128.444 197.635 127.895 197.754 127.27 197.858C126.654 197.953 126.053 198.038 125.466 198.114C124.888 198.18 124.42 198.237 124.06 198.284C123.188 198.398 122.374 198.582 121.616 198.838C120.868 199.084 120.262 199.458 119.798 199.96C119.344 200.453 119.116 201.125 119.116 201.977C119.116 203.142 119.547 204.023 120.409 204.619C121.28 205.206 122.384 205.5 123.719 205.5ZM139.326 208V186.182H142.565V189.477H142.792C143.19 188.398 143.909 187.522 144.951 186.849C145.993 186.177 147.167 185.841 148.474 185.841C148.72 185.841 149.028 185.846 149.397 185.855C149.766 185.865 150.046 185.879 150.235 185.898V189.307C150.121 189.278 149.861 189.236 149.454 189.179C149.056 189.113 148.635 189.08 148.19 189.08C147.129 189.08 146.182 189.302 145.349 189.747C144.525 190.183 143.871 190.789 143.388 191.565C142.915 192.332 142.678 193.208 142.678 194.193V208H139.326ZM160.629 208.511C159.247 208.511 157.992 208.251 156.865 207.73C155.738 207.2 154.843 206.438 154.18 205.443C153.518 204.439 153.186 203.227 153.186 201.807C153.186 200.557 153.432 199.544 153.925 198.767C154.417 197.981 155.075 197.366 155.899 196.92C156.723 196.475 157.632 196.144 158.626 195.926C159.63 195.699 160.639 195.519 161.652 195.386C162.978 195.216 164.053 195.088 164.876 195.003C165.71 194.908 166.316 194.752 166.695 194.534C167.083 194.316 167.277 193.937 167.277 193.398V193.284C167.277 191.883 166.893 190.794 166.126 190.017C165.369 189.241 164.218 188.852 162.675 188.852C161.074 188.852 159.82 189.203 158.911 189.903C158.001 190.604 157.362 191.352 156.993 192.148L153.811 191.011C154.379 189.686 155.137 188.653 156.084 187.915C157.04 187.167 158.082 186.646 159.209 186.352C160.345 186.049 161.463 185.898 162.561 185.898C163.262 185.898 164.067 185.983 164.976 186.153C165.894 186.314 166.78 186.651 167.632 187.162C168.494 187.673 169.209 188.445 169.777 189.477C170.345 190.509 170.629 191.892 170.629 193.625V208H167.277V205.045H167.107C166.879 205.519 166.5 206.026 165.97 206.565C165.44 207.105 164.734 207.564 163.854 207.943C162.973 208.322 161.898 208.511 160.629 208.511ZM161.141 205.5C162.466 205.5 163.584 205.24 164.493 204.719C165.411 204.198 166.103 203.526 166.567 202.702C167.04 201.878 167.277 201.011 167.277 200.102V197.034C167.135 197.205 166.822 197.361 166.339 197.503C165.866 197.635 165.317 197.754 164.692 197.858C164.076 197.953 163.475 198.038 162.888 198.114C162.31 198.18 161.841 198.237 161.482 198.284C160.61 198.398 159.796 198.582 159.038 198.838C158.29 199.084 157.684 199.458 157.22 199.96C156.766 200.453 156.538 201.125 156.538 201.977C156.538 203.142 156.969 204.023 157.831 204.619C158.702 205.206 159.805 205.5 161.141 205.5ZM180.1 178.909V208H176.748V178.909H180.1ZM197.945 208V178.909H207.774C210.047 178.909 211.912 179.297 213.371 180.074C214.829 180.841 215.909 181.897 216.609 183.241C217.31 184.586 217.661 186.116 217.661 187.83C217.661 189.544 217.31 191.063 216.609 192.389C215.909 193.715 214.834 194.757 213.385 195.514C211.936 196.262 210.085 196.636 207.831 196.636H199.876V193.455H207.717C209.27 193.455 210.52 193.227 211.467 192.773C212.424 192.318 213.115 191.674 213.541 190.841C213.977 189.998 214.195 188.994 214.195 187.83C214.195 186.665 213.977 185.647 213.541 184.776C213.106 183.904 212.41 183.232 211.453 182.759C210.497 182.276 209.232 182.034 207.661 182.034H201.467V208H197.945ZM211.638 194.932L218.797 208H214.706L207.661 194.932H211.638ZM229.496 208.511C228.114 208.511 226.859 208.251 225.732 207.73C224.605 207.2 223.71 206.438 223.048 205.443C222.385 204.439 222.053 203.227 222.053 201.807C222.053 200.557 222.299 199.544 222.792 198.767C223.284 197.981 223.942 197.366 224.766 196.92C225.59 196.475 226.499 196.144 227.494 195.926C228.497 195.699 229.506 195.519 230.519 195.386C231.845 195.216 232.92 195.088 233.744 195.003C234.577 194.908 235.183 194.752 235.562 194.534C235.95 194.316 236.144 193.937 236.144 193.398V193.284C236.144 191.883 235.761 190.794 234.994 190.017C234.236 189.241 233.085 188.852 231.542 188.852C229.942 188.852 228.687 189.203 227.778 189.903C226.869 190.604 226.229 191.352 225.86 192.148L222.678 191.011C223.246 189.686 224.004 188.653 224.951 187.915C225.907 187.167 226.949 186.646 228.076 186.352C229.212 186.049 230.33 185.898 231.428 185.898C232.129 185.898 232.934 185.983 233.843 186.153C234.762 186.314 235.647 186.651 236.499 187.162C237.361 187.673 238.076 188.445 238.644 189.477C239.212 190.509 239.496 191.892 239.496 193.625V208H236.144V205.045H235.974C235.746 205.519 235.368 206.026 234.837 206.565C234.307 207.105 233.602 207.564 232.721 207.943C231.84 208.322 230.765 208.511 229.496 208.511ZM230.008 205.5C231.334 205.5 232.451 205.24 233.36 204.719C234.279 204.198 234.97 203.526 235.434 202.702C235.907 201.878 236.144 201.011 236.144 200.102V197.034C236.002 197.205 235.69 197.361 235.207 197.503C234.733 197.635 234.184 197.754 233.559 197.858C232.943 197.953 232.342 198.038 231.755 198.114C231.177 198.18 230.709 198.237 230.349 198.284C229.478 198.398 228.663 198.582 227.906 198.838C227.157 199.084 226.551 199.458 226.087 199.96C225.633 200.453 225.406 201.125 225.406 201.977C225.406 203.142 225.836 204.023 226.698 204.619C227.569 205.206 228.673 205.5 230.008 205.5ZM245.615 208V186.182H248.854V189.591H249.138C249.592 188.426 250.326 187.522 251.339 186.878C252.353 186.224 253.57 185.898 254.99 185.898C256.429 185.898 257.627 186.224 258.584 186.878C259.55 187.522 260.303 188.426 260.842 189.591H261.07C261.628 188.464 262.466 187.569 263.584 186.906C264.701 186.234 266.041 185.898 267.604 185.898C269.554 185.898 271.15 186.509 272.391 187.73C273.631 188.942 274.251 190.831 274.251 193.398V208H270.899V193.398C270.899 191.788 270.459 190.637 269.578 189.946C268.697 189.255 267.661 188.909 266.467 188.909C264.933 188.909 263.745 189.373 262.902 190.301C262.059 191.22 261.638 192.384 261.638 193.795V208H258.229V193.057C258.229 191.816 257.826 190.817 257.021 190.06C256.216 189.293 255.179 188.909 253.911 188.909C253.039 188.909 252.225 189.141 251.467 189.605C250.719 190.069 250.113 190.713 249.649 191.537C249.195 192.351 248.967 193.294 248.967 194.364V208H245.615ZM289.244 208.455C287.275 208.455 285.546 207.986 284.06 207.048C282.582 206.111 281.427 204.799 280.594 203.114C279.77 201.428 279.358 199.458 279.358 197.205C279.358 194.932 279.77 192.948 280.594 191.253C281.427 189.558 282.582 188.241 284.06 187.304C285.546 186.366 287.275 185.898 289.244 185.898C291.214 185.898 292.938 186.366 294.415 187.304C295.902 188.241 297.057 189.558 297.881 191.253C298.714 192.948 299.131 194.932 299.131 197.205C299.131 199.458 298.714 201.428 297.881 203.114C297.057 204.799 295.902 206.111 294.415 207.048C292.938 207.986 291.214 208.455 289.244 208.455ZM289.244 205.443C290.741 205.443 291.972 205.06 292.938 204.293C293.903 203.526 294.618 202.517 295.082 201.267C295.546 200.017 295.778 198.663 295.778 197.205C295.778 195.746 295.546 194.387 295.082 193.128C294.618 191.868 293.903 190.85 292.938 190.074C291.972 189.297 290.741 188.909 289.244 188.909C287.748 188.909 286.517 189.297 285.551 190.074C284.585 190.85 283.87 191.868 283.406 193.128C282.942 194.387 282.71 195.746 282.71 197.205C282.71 198.663 282.942 200.017 283.406 201.267C283.87 202.517 284.585 203.526 285.551 204.293C286.517 205.06 287.748 205.443 289.244 205.443ZM319.702 191.068L316.691 191.92C316.502 191.419 316.222 190.931 315.853 190.457C315.493 189.974 315.001 189.577 314.376 189.264C313.751 188.952 312.951 188.795 311.975 188.795C310.64 188.795 309.527 189.103 308.637 189.719C307.756 190.325 307.316 191.097 307.316 192.034C307.316 192.867 307.619 193.526 308.225 194.009C308.831 194.491 309.778 194.894 311.066 195.216L314.305 196.011C316.255 196.485 317.709 197.209 318.665 198.185C319.622 199.151 320.1 200.396 320.1 201.92C320.1 203.17 319.74 204.288 319.021 205.273C318.31 206.258 317.316 207.034 316.038 207.602C314.759 208.17 313.272 208.455 311.577 208.455C309.352 208.455 307.51 207.972 306.052 207.006C304.594 206.04 303.67 204.629 303.282 202.773L306.464 201.977C306.767 203.152 307.34 204.032 308.183 204.619C309.035 205.206 310.147 205.5 311.521 205.5C313.083 205.5 314.324 205.169 315.242 204.506C316.17 203.833 316.634 203.028 316.634 202.091C316.634 201.333 316.369 200.699 315.839 200.188C315.308 199.667 314.494 199.278 313.396 199.023L309.759 198.17C307.761 197.697 306.293 196.963 305.356 195.969C304.428 194.965 303.964 193.71 303.964 192.205C303.964 190.973 304.309 189.884 305.001 188.938C305.701 187.991 306.653 187.247 307.856 186.707C309.068 186.168 310.441 185.898 311.975 185.898C314.134 185.898 315.829 186.371 317.06 187.318C318.301 188.265 319.182 189.515 319.702 191.068Z" fill="#24B5D3"/>
<path d="M130.49 240V225.455H135.405C136.546 225.455 137.479 225.661 138.203 226.072C138.932 226.48 139.472 227.031 139.822 227.727C140.173 228.423 140.348 229.2 140.348 230.057C140.348 230.914 140.173 231.693 139.822 232.393C139.477 233.094 138.942 233.653 138.217 234.07C137.493 234.482 136.565 234.688 135.433 234.688H131.91V233.125H135.376C136.157 233.125 136.785 232.99 137.258 232.72C137.732 232.45 138.075 232.086 138.288 231.626C138.506 231.162 138.615 230.639 138.615 230.057C138.615 229.474 138.506 228.954 138.288 228.494C138.075 228.035 137.729 227.675 137.251 227.415C136.773 227.15 136.139 227.017 135.348 227.017H132.251V240H130.49ZM151.14 229.091C151.055 228.371 150.709 227.812 150.103 227.415C149.497 227.017 148.753 226.818 147.873 226.818C147.229 226.818 146.665 226.922 146.182 227.131C145.704 227.339 145.33 227.625 145.06 227.99C144.795 228.355 144.662 228.769 144.662 229.233C144.662 229.621 144.755 229.955 144.939 230.234C145.129 230.509 145.37 230.739 145.664 230.923C145.957 231.103 146.265 231.252 146.587 231.371C146.909 231.484 147.205 231.577 147.475 231.648L148.952 232.045C149.331 232.145 149.752 232.282 150.216 232.457C150.685 232.633 151.133 232.872 151.559 233.175C151.99 233.473 152.345 233.857 152.624 234.325C152.903 234.794 153.043 235.369 153.043 236.051C153.043 236.837 152.837 237.547 152.425 238.182C152.018 238.816 151.421 239.321 150.635 239.695C149.854 240.069 148.905 240.256 147.787 240.256C146.746 240.256 145.844 240.088 145.081 239.751C144.324 239.415 143.727 238.946 143.292 238.345C142.861 237.744 142.617 237.045 142.56 236.25H144.378C144.426 236.799 144.61 237.254 144.932 237.614C145.259 237.969 145.671 238.234 146.168 238.409C146.67 238.58 147.21 238.665 147.787 238.665C148.46 238.665 149.064 238.556 149.599 238.338C150.134 238.116 150.557 237.808 150.87 237.415C151.182 237.017 151.339 236.553 151.339 236.023C151.339 235.54 151.204 235.147 150.934 234.844C150.664 234.541 150.309 234.295 149.868 234.105C149.428 233.916 148.952 233.75 148.441 233.608L146.651 233.097C145.515 232.77 144.615 232.304 143.952 231.697C143.289 231.091 142.958 230.298 142.958 229.318C142.958 228.504 143.178 227.794 143.618 227.188C144.064 226.577 144.66 226.103 145.408 225.767C146.161 225.426 147.001 225.256 147.93 225.256C148.867 225.256 149.7 225.424 150.43 225.76C151.159 226.091 151.736 226.546 152.162 227.124C152.593 227.701 152.821 228.357 152.844 229.091H151.14ZM157.7 225.455V240H155.939V225.455H157.7ZM172.937 230H171.175C171.071 229.493 170.889 229.048 170.628 228.665C170.373 228.281 170.06 227.959 169.691 227.699C169.326 227.434 168.921 227.235 168.476 227.102C168.031 226.97 167.567 226.903 167.084 226.903C166.204 226.903 165.406 227.126 164.691 227.571C163.981 228.016 163.415 228.672 162.993 229.538C162.577 230.405 162.368 231.468 162.368 232.727C162.368 233.987 162.577 235.05 162.993 235.916C163.415 236.783 163.981 237.438 164.691 237.884C165.406 238.329 166.204 238.551 167.084 238.551C167.567 238.551 168.031 238.485 168.476 238.352C168.921 238.22 169.326 238.023 169.691 237.763C170.06 237.498 170.373 237.173 170.628 236.79C170.889 236.402 171.071 235.956 171.175 235.455H172.937C172.804 236.198 172.563 236.863 172.212 237.45C171.862 238.037 171.426 238.537 170.905 238.949C170.385 239.356 169.8 239.666 169.151 239.879C168.507 240.092 167.818 240.199 167.084 240.199C165.844 240.199 164.741 239.896 163.775 239.29C162.809 238.684 162.049 237.822 161.495 236.705C160.941 235.587 160.664 234.261 160.664 232.727C160.664 231.193 160.941 229.867 161.495 228.75C162.049 227.633 162.809 226.771 163.775 226.165C164.741 225.559 165.844 225.256 167.084 225.256C167.818 225.256 168.507 225.362 169.151 225.575C169.8 225.788 170.385 226.101 170.905 226.513C171.426 226.92 171.862 227.417 172.212 228.004C172.563 228.587 172.804 229.252 172.937 230ZM188.056 232.727C188.056 234.261 187.779 235.587 187.225 236.705C186.671 237.822 185.911 238.684 184.945 239.29C183.979 239.896 182.876 240.199 181.635 240.199C180.395 240.199 179.291 239.896 178.325 239.29C177.36 238.684 176.6 237.822 176.046 236.705C175.492 235.587 175.215 234.261 175.215 232.727C175.215 231.193 175.492 229.867 176.046 228.75C176.6 227.633 177.36 226.771 178.325 226.165C179.291 225.559 180.395 225.256 181.635 225.256C182.876 225.256 183.979 225.559 184.945 226.165C185.911 226.771 186.671 227.633 187.225 228.75C187.779 229.867 188.056 231.193 188.056 232.727ZM186.351 232.727C186.351 231.468 186.14 230.405 185.719 229.538C185.302 228.672 184.736 228.016 184.021 227.571C183.311 227.126 182.516 226.903 181.635 226.903C180.754 226.903 179.957 227.126 179.242 227.571C178.531 228.016 177.966 228.672 177.544 229.538C177.128 230.405 176.919 231.468 176.919 232.727C176.919 233.987 177.128 235.05 177.544 235.916C177.966 236.783 178.531 237.438 179.242 237.884C179.957 238.329 180.754 238.551 181.635 238.551C182.516 238.551 183.311 238.329 184.021 237.884C184.736 237.438 185.302 236.783 185.719 235.916C186.14 235.05 186.351 233.987 186.351 232.727ZM180.868 223.977L182.601 220.682H184.561L182.345 223.977H180.868ZM191.017 240V225.455H192.779V238.438H199.54V240H191.017ZM213.974 232.727C213.974 234.261 213.697 235.587 213.143 236.705C212.589 237.822 211.829 238.684 210.863 239.29C209.897 239.896 208.794 240.199 207.553 240.199C206.313 240.199 205.209 239.896 204.243 239.29C203.278 238.684 202.518 237.822 201.964 236.705C201.41 235.587 201.133 234.261 201.133 232.727C201.133 231.193 201.41 229.867 201.964 228.75C202.518 227.633 203.278 226.771 204.243 226.165C205.209 225.559 206.313 225.256 207.553 225.256C208.794 225.256 209.897 225.559 210.863 226.165C211.829 226.771 212.589 227.633 213.143 228.75C213.697 229.867 213.974 231.193 213.974 232.727ZM212.269 232.727C212.269 231.468 212.058 230.405 211.637 229.538C211.22 228.672 210.654 228.016 209.939 227.571C209.229 227.126 208.434 226.903 207.553 226.903C206.672 226.903 205.875 227.126 205.16 227.571C204.449 228.016 203.884 228.672 203.462 229.538C203.046 230.405 202.837 231.468 202.837 232.727C202.837 233.987 203.046 235.05 203.462 235.916C203.884 236.783 204.449 237.438 205.16 237.884C205.875 238.329 206.672 238.551 207.553 238.551C208.434 238.551 209.229 238.329 209.939 237.884C210.654 237.438 211.22 236.783 211.637 235.916C212.058 235.05 212.269 233.987 212.269 232.727ZM226.878 230C226.722 229.522 226.516 229.093 226.26 228.714C226.01 228.331 225.709 228.004 225.358 227.734C225.013 227.464 224.62 227.259 224.18 227.116C223.739 226.974 223.256 226.903 222.731 226.903C221.869 226.903 221.085 227.126 220.38 227.571C219.674 228.016 219.113 228.672 218.697 229.538C218.28 230.405 218.072 231.468 218.072 232.727C218.072 233.987 218.282 235.05 218.704 235.916C219.125 236.783 219.696 237.438 220.415 237.884C221.135 238.329 221.945 238.551 222.844 238.551C223.678 238.551 224.412 238.374 225.046 238.018C225.685 237.659 226.182 237.152 226.537 236.499C226.897 235.84 227.077 235.066 227.077 234.176L227.617 234.29H223.242V232.727H228.782V234.29C228.782 235.488 228.526 236.529 228.015 237.415C227.508 238.3 226.807 238.987 225.912 239.474C225.022 239.957 224 240.199 222.844 240.199C221.556 240.199 220.425 239.896 219.449 239.29C218.479 238.684 217.721 237.822 217.177 236.705C216.637 235.587 216.367 234.261 216.367 232.727C216.367 231.577 216.521 230.542 216.829 229.624C217.141 228.7 217.581 227.914 218.15 227.266C218.718 226.617 219.39 226.12 220.167 225.774C220.943 225.429 221.798 225.256 222.731 225.256C223.498 225.256 224.213 225.372 224.876 225.604C225.543 225.831 226.137 226.155 226.658 226.577C227.184 226.993 227.622 227.493 227.972 228.075C228.323 228.653 228.564 229.295 228.697 230H226.878ZM244.071 232.727C244.071 234.261 243.794 235.587 243.24 236.705C242.686 237.822 241.926 238.684 240.96 239.29C239.994 239.896 238.891 240.199 237.651 240.199C236.41 240.199 235.307 239.896 234.341 239.29C233.375 238.684 232.615 237.822 232.061 236.705C231.507 235.587 231.23 234.261 231.23 232.727C231.23 231.193 231.507 229.867 232.061 228.75C232.615 227.633 233.375 226.771 234.341 226.165C235.307 225.559 236.41 225.256 237.651 225.256C238.891 225.256 239.994 225.559 240.96 226.165C241.926 226.771 242.686 227.633 243.24 228.75C243.794 229.867 244.071 231.193 244.071 232.727ZM242.367 232.727C242.367 231.468 242.156 230.405 241.735 229.538C241.318 228.672 240.752 228.016 240.037 227.571C239.327 227.126 238.531 226.903 237.651 226.903C236.77 226.903 235.972 227.126 235.257 227.571C234.547 228.016 233.981 228.672 233.56 229.538C233.143 230.405 232.935 231.468 232.935 232.727C232.935 233.987 233.143 235.05 233.56 235.916C233.981 236.783 234.547 237.438 235.257 237.884C235.972 238.329 236.77 238.551 237.651 238.551C238.531 238.551 239.327 238.329 240.037 237.884C240.752 237.438 241.318 236.783 241.735 235.916C242.156 235.05 242.367 233.987 242.367 232.727Z" fill="#24B5D3"/>
<path d="M223.659 59.8995C223.659 60.0706 223.677 60.2382 223.71 60.4058C223.742 60.5734 223.793 60.7374 223.858 60.8942C223.922 61.0528 224.002 61.2042 224.095 61.3465C224.189 61.4889 224.297 61.6204 224.418 61.7412C224.537 61.8637 224.669 61.9718 224.809 62.0692C224.951 62.1647 225.101 62.2458 225.258 62.3124C225.415 62.3791 225.577 62.4314 225.744 62.4656C225.912 62.5017 226.081 62.5197 226.253 62.5233H231.435C231.408 63.1216 231.365 63.7217 231.307 64.3182C231.252 64.9165 231.179 65.5111 231.095 66.1058C231.01 66.7005 230.911 67.2916 230.797 67.8827C230.684 68.472 230.558 69.0576 230.415 69.6415C230.275 70.2254 230.12 70.8057 229.952 71.3805C229.783 71.9572 229.601 72.5284 229.404 73.0961C229.21 73.6638 229.001 74.226 228.777 74.7847C228.556 75.3415 228.32 75.8947 228.071 76.4408C227.822 76.9868 227.561 77.5274 227.287 78.0608C227.013 78.5961 226.725 79.1223 226.426 79.6431C226.126 80.1639 225.815 80.6775 225.492 81.1839C225.168 81.6884 224.833 82.1858 224.485 82.676C224.137 83.1661 223.778 83.6473 223.409 84.1213C223.038 84.5934 222.657 85.0565 222.265 85.5125C221.873 85.9666 221.47 86.4117 221.057 86.8478C220.643 87.2839 220.219 87.7092 219.787 88.1255C219.352 88.54 218.909 88.9454 218.457 89.3401C218.003 89.7347 217.541 90.1186 217.071 90.4916C216.599 90.8646 216.119 91.2251 215.631 91.5765C215.143 91.9261 214.647 92.2649 214.143 92.591C213.638 92.9172 213.126 93.2326 212.607 93.5335C212.088 93.8363 211.562 94.1264 211.03 94.4039C210.497 94.6815 209.958 94.9464 209.412 95.1969C208.866 95.4491 208.315 95.6888 207.758 95.9141C207.201 96.1393 206.639 96.352 206.073 96.5502C205.505 96.7502 204.934 96.9359 204.359 97.1071C203.782 97.2801 203.204 97.4386 202.62 97.5828C202.036 97.727 201.45 97.8585 200.861 97.9739C200.272 98.091 199.679 98.1937 199.084 98.2838C198.491 98.3721 197.895 98.446 197.297 98.5073C196.698 98.5667 196.1 98.6136 195.5 98.646C194.9 98.6785 194.3 98.6965 193.698 98.7001H192.835V51.9595H198.088C198.272 51.9811 198.455 51.9829 198.639 51.9649C198.823 51.9469 199.003 51.9108 199.18 51.855C199.356 51.7991 199.526 51.7252 199.686 51.6333C199.847 51.5414 199.996 51.4351 200.135 51.3107C200.274 51.1882 200.398 51.053 200.506 50.9035C200.616 50.7539 200.708 50.5953 200.784 50.4259C200.859 50.2583 200.917 50.0835 200.957 49.9015C200.995 49.7213 201.014 49.5375 201.014 49.3537C201.014 49.168 200.995 48.986 200.957 48.804C200.917 48.6238 200.859 48.449 200.784 48.2796C200.708 48.112 200.616 47.9516 200.506 47.8039C200.398 47.6543 200.274 47.5173 200.135 47.3948C199.996 47.2723 199.847 47.1641 199.686 47.0722C199.526 46.9821 199.356 46.9082 199.18 46.8524C199.003 46.7965 198.823 46.7587 198.639 46.7424C198.455 46.7244 198.272 46.7262 198.088 46.746H182.19C182.006 46.7262 181.822 46.7244 181.638 46.7424C181.453 46.7587 181.273 46.7965 181.096 46.8524C180.919 46.9082 180.752 46.9821 180.59 47.0722C180.429 47.1641 180.28 47.2723 180.141 47.3948C180.004 47.5173 179.88 47.6543 179.77 47.8039C179.661 47.9516 179.568 48.112 179.492 48.2796C179.416 48.449 179.359 48.6238 179.321 48.804C179.281 48.986 179.263 49.168 179.263 49.3537C179.263 49.5375 179.281 49.7213 179.321 49.9015C179.359 50.0835 179.416 50.2583 179.492 50.4259C179.568 50.5953 179.661 50.7539 179.77 50.9035C179.88 51.053 180.004 51.1882 180.141 51.3107C180.28 51.4351 180.429 51.5414 180.59 51.6333C180.752 51.7252 180.919 51.7991 181.096 51.855C181.273 51.9108 181.453 51.9469 181.638 51.9649C181.822 51.9829 182.006 51.9811 182.19 51.9595H187.443V98.7001H186.614C186.014 98.6947 185.414 98.6749 184.814 98.6406C184.215 98.6082 183.617 98.5595 183.021 98.4983C182.422 98.4352 181.828 98.3595 181.235 98.2694C180.64 98.1793 180.049 98.0748 179.461 97.9558C178.872 97.8387 178.288 97.7072 177.706 97.5612C177.122 97.4152 176.544 97.2548 175.971 97.0818C175.396 96.9088 174.825 96.7214 174.259 96.5214C173.693 96.3214 173.133 96.1087 172.578 95.8816C172.022 95.6546 171.471 95.4149 170.927 95.1626C170.383 94.9103 169.846 94.6436 169.314 94.3661C168.782 94.0868 168.256 93.7966 167.739 93.4939C167.222 93.1911 166.71 92.8758 166.207 92.5478C165.704 92.2216 165.209 91.8828 164.722 91.5314C164.236 91.1818 163.758 90.8196 163.288 90.4466C162.817 90.0735 162.358 89.6879 161.906 89.2932C161.455 88.8986 161.012 88.4931 160.579 88.0768C160.149 87.6605 159.725 87.2353 159.314 86.7991C158.901 86.363 158.5 85.9179 158.109 85.4638C157.718 85.0079 157.337 84.5447 156.97 84.0708C156.6 83.5986 156.242 83.1175 155.896 82.6273C155.55 82.1372 155.216 81.6398 154.894 81.1334C154.571 80.6288 154.261 80.1152 153.962 79.5944C153.665 79.0736 153.378 78.5474 153.104 78.014C152.832 77.4806 152.571 76.94 152.324 76.3939C152.077 75.8479 151.841 75.2964 151.619 74.7378C151.399 74.181 151.19 73.6187 150.996 73.0511C150.801 72.4852 150.619 71.9139 150.452 71.3373C150.284 70.7624 150.131 70.1821 149.99 69.6001C149.85 69.0162 149.723 68.4305 149.612 67.8412C149.498 67.2519 149.401 66.6609 149.316 66.068C149.232 65.4733 149.161 64.8786 149.105 64.2821C149.05 63.6856 149.006 63.0873 148.979 62.4872H154.128C154.301 62.4872 154.472 62.471 154.641 62.4368C154.811 62.4043 154.975 62.3539 155.133 62.289C155.294 62.2223 155.445 62.1412 155.587 62.0457C155.732 61.9502 155.863 61.8421 155.986 61.7196C156.108 61.597 156.216 61.4655 156.312 61.3213C156.407 61.1789 156.489 61.0276 156.555 60.869C156.622 60.7086 156.671 60.5446 156.705 60.377C156.739 60.2076 156.755 60.0364 156.755 59.8652C156.755 59.6922 156.739 59.521 156.705 59.3534C156.671 59.184 156.622 59.02 156.555 58.8596C156.489 58.7011 156.407 58.5497 156.312 58.4073C156.216 58.2632 156.108 58.1316 155.986 58.0091C155.863 57.8883 155.732 57.7784 155.587 57.6829C155.445 57.5874 155.294 57.5063 155.133 57.4414C154.975 57.3747 154.811 57.3243 154.641 57.2918C154.472 57.2576 154.301 57.2414 154.128 57.2414H138.37C138.197 57.2414 138.026 57.2576 137.857 57.2918C137.687 57.3243 137.523 57.3747 137.365 57.4414C137.206 57.5063 137.055 57.5874 136.911 57.6829C136.767 57.7784 136.635 57.8883 136.512 58.0091C136.39 58.1316 136.282 58.2632 136.186 58.4073C136.091 58.5497 136.01 58.7011 135.943 58.8596C135.878 59.02 135.828 59.184 135.793 59.3534C135.761 59.521 135.743 59.6922 135.743 59.8652C135.743 60.0364 135.761 60.2076 135.793 60.377C135.828 60.5446 135.878 60.7086 135.943 60.869C136.01 61.0276 136.091 61.1789 136.186 61.3213C136.282 61.4655 136.39 61.597 136.512 61.7196C136.635 61.8421 136.767 61.9502 136.911 62.0457C137.055 62.1412 137.206 62.2223 137.365 62.289C137.523 62.3539 137.687 62.4043 137.857 62.4368C138.026 62.471 138.197 62.4872 138.37 62.4872H143.726C143.753 63.1738 143.796 63.8604 143.854 64.5452C143.914 65.2282 143.989 65.9112 144.081 66.5924C144.173 67.2736 144.281 67.9512 144.407 68.6269C144.532 69.3027 144.672 69.9749 144.829 70.6453C144.986 71.3138 145.157 71.9788 145.346 72.6384C145.535 73.2997 145.739 73.9557 145.959 74.6063C146.179 75.2568 146.415 75.902 146.665 76.5417C146.916 77.1814 147.183 77.8158 147.464 78.4429C147.745 79.07 148.04 79.6899 148.35 80.3026C148.662 80.9153 148.986 81.5208 149.327 82.1173C149.668 82.7156 150.021 83.3031 150.388 83.8834C150.756 84.4654 151.138 85.0367 151.535 85.599C151.929 86.1594 152.338 86.7126 152.76 87.2551C153.182 87.7975 153.616 88.3309 154.063 88.8517C154.512 89.3743 154.971 89.8843 155.443 90.3853C155.914 90.8845 156.398 91.3728 156.892 91.8504C157.388 92.3261 157.894 92.7911 158.411 93.2434C158.93 93.6957 159.458 94.1354 159.995 94.5643C160.534 94.9914 161.084 95.4059 161.641 95.806C162.199 96.2078 162.767 96.5953 163.344 96.9683C163.922 97.3431 164.508 97.7036 165.101 98.0496C165.695 98.3956 166.297 98.7271 166.908 99.0443C167.517 99.3615 168.135 99.6642 168.759 99.9507C169.384 100.239 170.015 100.511 170.653 100.769C171.291 101.027 171.934 101.27 172.583 101.497C173.232 101.724 173.886 101.935 174.545 102.129C175.205 102.326 175.868 102.506 176.537 102.668C177.205 102.832 177.876 102.98 178.551 103.113C179.227 103.245 179.905 103.36 180.584 103.459C181.265 103.559 181.948 103.641 182.633 103.708C183.316 103.775 184.003 103.825 184.689 103.859C185.376 103.894 186.064 103.912 186.751 103.912H187.582V134.981H182.19C182.017 134.981 181.847 134.998 181.678 135.03C181.509 135.064 181.345 135.115 181.184 135.18C181.026 135.246 180.874 135.327 180.73 135.423C180.588 135.518 180.454 135.627 180.334 135.749C180.211 135.872 180.101 136.003 180.006 136.147C179.91 136.29 179.829 136.441 179.764 136.6C179.698 136.76 179.647 136.924 179.615 137.092C179.58 137.261 179.564 137.432 179.564 137.603C179.564 137.776 179.58 137.948 179.615 138.115C179.647 138.285 179.698 138.449 179.764 138.607C179.829 138.768 179.91 138.919 180.006 139.061C180.101 139.206 180.211 139.337 180.334 139.46C180.454 139.58 180.588 139.69 180.73 139.786C180.874 139.881 181.026 139.962 181.184 140.027C181.345 140.094 181.509 140.144 181.678 140.177C181.847 140.211 182.017 140.227 182.19 140.227H198.088C198.259 140.227 198.43 140.211 198.6 140.177C198.769 140.144 198.933 140.094 199.092 140.027C199.252 139.962 199.403 139.881 199.546 139.786C199.69 139.69 199.821 139.58 199.944 139.46C200.066 139.337 200.175 139.206 200.27 139.061C200.366 138.919 200.447 138.768 200.513 138.607C200.58 138.449 200.629 138.285 200.663 138.115C200.697 137.948 200.713 137.776 200.713 137.603C200.713 137.432 200.697 137.261 200.663 137.092C200.629 136.924 200.58 136.76 200.513 136.6C200.447 136.441 200.367 136.29 200.27 136.147C200.175 136.003 200.066 135.872 199.944 135.749C199.821 135.627 199.69 135.518 199.546 135.423C199.403 135.327 199.252 135.246 199.092 135.18C198.933 135.115 198.769 135.064 198.6 135.03C198.43 134.998 198.259 134.981 198.088 134.981H192.835V103.912H193.698C194.386 103.912 195.073 103.894 195.76 103.859C196.448 103.825 197.133 103.775 197.817 103.708C198.502 103.641 199.185 103.559 199.865 103.459C200.546 103.36 201.223 103.245 201.899 103.113C202.573 102.98 203.245 102.832 203.912 102.668C204.581 102.506 205.244 102.326 205.903 102.129C206.563 101.935 207.217 101.724 207.866 101.497C208.516 101.27 209.16 101.027 209.798 100.769C210.434 100.511 211.066 100.239 211.69 99.9507C212.315 99.6642 212.932 99.3615 213.542 99.0443C214.152 98.7271 214.753 98.3956 215.348 98.0496C215.943 97.7036 216.529 97.3431 217.105 96.9683C217.682 96.5953 218.25 96.2078 218.808 95.806C219.367 95.4059 219.915 94.9914 220.453 94.5643C220.992 94.1354 221.52 93.6957 222.037 93.2434C222.555 92.7911 223.061 92.3261 223.557 91.8504C224.052 91.3728 224.535 90.8845 225.007 90.3853C225.479 89.8843 225.939 89.3743 226.386 88.8517C226.833 88.3309 227.267 87.7975 227.691 87.2551C228.112 86.7126 228.52 86.1594 228.916 85.599C229.311 85.0367 229.693 84.4654 230.06 83.8834C230.43 83.3031 230.783 82.7156 231.124 82.1173C231.462 81.5208 231.789 80.9153 232.099 80.3026C232.41 79.6899 232.706 79.07 232.987 78.4429C233.268 77.8158 233.535 77.1814 233.785 76.5417C234.036 75.902 234.272 75.2568 234.492 74.6063C234.712 73.9557 234.915 73.2997 235.104 72.6384C235.292 71.9788 235.465 71.3138 235.622 70.6453C235.778 69.9749 235.919 69.3027 236.043 68.6269C236.168 67.9512 236.276 67.2736 236.368 66.5924C236.46 65.9112 236.535 65.2282 236.595 64.5452C236.654 63.8604 236.697 63.1738 236.723 62.4872H242.046C242.217 62.4872 242.388 62.471 242.558 62.4368C242.727 62.4043 242.891 62.3539 243.05 62.289C243.21 62.2223 243.362 62.1412 243.504 62.0457C243.648 61.9502 243.781 61.8421 243.902 61.7196C244.025 61.597 244.133 61.4655 244.228 61.3213C244.326 61.1789 244.405 61.0276 244.472 60.869C244.538 60.7086 244.587 60.5446 244.621 60.377C244.655 60.2076 244.672 60.0364 244.672 59.8652C244.672 59.6922 244.655 59.521 244.621 59.3534C244.587 59.184 244.538 59.02 244.472 58.8596C244.405 58.7011 244.326 58.5497 244.228 58.4073C244.133 58.2632 244.025 58.1316 243.902 58.0091C243.781 57.8883 243.648 57.7784 243.504 57.6829C243.362 57.5874 243.21 57.5063 243.05 57.4414C242.891 57.3747 242.727 57.3243 242.558 57.2918C242.388 57.2576 242.217 57.2414 242.046 57.2414H226.287C226.112 57.2414 225.941 57.2576 225.77 57.2918C225.6 57.3261 225.434 57.3765 225.274 57.4432C225.114 57.5117 224.96 57.5928 224.816 57.6901C224.672 57.7874 224.539 57.8973 224.418 58.0217C224.295 58.146 224.186 58.2794 224.09 58.4253C223.995 58.5695 223.915 58.7227 223.85 58.8849C223.786 59.0453 223.737 59.2111 223.704 59.3823C223.672 59.5535 223.658 59.7246 223.659 59.8995Z" fill="#24B5D3"/>
<mask id="mask0_53_27" style="mask-type:luminance" maskUnits="userSpaceOnUse" x="98" y="11" width="165" height="150">
<path d="M98.8452 11.5713H262.619V160.083H98.8452V11.5713Z" fill="white"/>
</mask>
<g mask="url(#mask0_53_27)">
<path d="M190.207 11.5713C189.025 11.5731 187.845 11.6037 186.664 11.6632C185.486 11.7227 184.307 11.811 183.13 11.9281C181.955 12.0452 180.784 12.1912 179.615 12.3642C178.447 12.539 177.283 12.7426 176.124 12.9733C174.965 13.2058 173.814 13.4653 172.668 13.7536C171.521 14.0419 170.382 14.3573 169.253 14.6997C168.123 15.0439 167 15.4151 165.888 15.8134C164.776 16.2117 163.675 16.6369 162.583 17.0911C161.493 17.5434 160.413 18.0209 159.345 18.5273C158.276 19.0319 157.222 19.5635 156.18 20.1204C155.139 20.6772 154.111 21.2593 153.097 21.8666C152.084 22.4739 151.088 23.1046 150.105 23.7624C149.123 24.4183 148.157 25.0977 147.208 25.8005C146.26 26.5034 145.328 27.2296 144.414 27.9793C143.501 28.7271 142.607 29.4984 141.731 30.2913C140.857 31.0842 140.001 31.897 139.165 32.7332C138.331 33.5675 137.516 34.4217 136.721 35.2957C135.928 36.1697 135.157 37.0636 134.407 37.9754C133.658 38.8891 132.93 39.8189 132.225 40.7668C131.522 41.7147 130.841 42.6788 130.185 43.6592C129.527 44.6413 128.895 45.6379 128.288 46.6488C127.68 47.6616 127.096 48.687 126.54 49.7286C125.981 50.7684 125.449 51.8226 124.945 52.8895C124.438 53.9563 123.959 55.0339 123.507 56.1242C123.053 57.2145 122.627 58.3155 122.227 59.4256C121.829 60.5375 121.458 61.6566 121.114 62.7865C120.769 63.9164 120.454 65.0517 120.166 66.1978C119.877 67.3422 119.618 68.4919 119.385 69.6506C119.153 70.8076 118.951 71.9699 118.776 73.1377C118.601 74.3036 118.455 75.475 118.337 76.6499C118.219 77.8249 118.131 78.9998 118.072 80.1802C118.012 81.3588 117.981 82.5373 117.98 83.7177C117.992 89.3204 118.661 94.8438 119.985 100.288C119.639 100.288 119.328 100.288 118.982 100.288C118.313 100.32 117.648 100.383 116.985 100.481C116.322 100.578 115.666 100.706 115.015 100.866C114.367 101.025 113.725 101.216 113.092 101.439C112.462 101.661 111.842 101.913 111.234 102.194C110.627 102.477 110.036 102.787 109.458 103.128C108.881 103.467 108.322 103.833 107.78 104.225C107.239 104.62 106.718 105.038 106.217 105.481C105.717 105.927 105.237 106.393 104.781 106.883C104.327 107.374 103.896 107.885 103.489 108.417C103.084 108.949 102.703 109.498 102.352 110.068C101.999 110.635 101.674 111.221 101.379 111.819C101.082 112.419 100.817 113.032 100.579 113.659C100.343 114.285 100.137 114.921 99.9625 115.566C99.7877 116.211 99.6435 116.863 99.5318 117.523C99.42 118.183 99.3407 118.848 99.2939 119.514C99.247 120.181 99.2326 120.85 99.2488 121.518C99.211 122.116 99.211 122.715 99.2488 123.313C99.4417 125.241 99.867 127.117 100.528 128.939C103.19 137.501 110.62 149.652 131.009 159.629C131.371 159.793 131.751 159.874 132.149 159.87C132.55 159.881 132.93 159.8 133.29 159.629C137.026 157.926 140.59 155.915 143.978 153.595C147.368 151.278 150.533 148.686 153.472 145.819C154.661 146.52 155.872 147.185 157.099 147.816C158.328 148.447 159.574 149.043 160.837 149.602C162.098 150.162 163.376 150.685 164.67 151.171C165.962 151.656 167.267 152.105 168.586 152.518C169.905 152.928 171.233 153.302 172.574 153.637C173.913 153.972 175.261 154.267 176.618 154.527C177.975 154.785 179.339 155.003 180.708 155.183C182.078 155.361 183.451 155.502 184.828 155.603C186.207 155.704 187.585 155.765 188.967 155.787C190.348 155.81 191.728 155.792 193.109 155.734C194.489 155.677 195.866 155.579 197.241 155.444C198.614 155.307 199.984 155.132 201.348 154.916C202.714 154.702 204.071 154.448 205.42 154.156C206.77 153.864 208.109 153.532 209.441 153.163C210.771 152.793 212.09 152.386 213.398 151.941C214.705 151.496 215.999 151.013 217.278 150.494C218.558 149.975 219.823 149.42 221.07 148.829C222.319 148.236 223.548 147.609 224.759 146.947C225.971 146.284 227.163 145.589 228.334 144.859C229.507 144.127 230.657 143.363 231.783 142.567C232.911 141.77 234.016 140.943 235.095 140.083C236.177 139.224 237.231 138.333 238.26 137.413C239.289 136.494 240.291 135.544 241.266 134.565C242.241 133.589 243.187 132.583 244.102 131.552C245.019 130.52 245.906 129.462 246.762 128.379C247.618 127.297 248.443 126.191 249.236 125.061C250.027 123.931 250.788 122.778 251.514 121.605C252.24 120.432 252.932 119.239 253.59 118.026C254.248 116.811 254.87 115.58 255.457 114.331C256.045 113.083 256.594 111.818 257.11 110.538C257.623 109.257 258.101 107.963 258.54 106.655C258.98 105.348 259.384 104.027 259.748 102.697C260.112 101.365 260.436 100.027 260.725 98.6768C261.011 97.327 261.26 95.9701 261.469 94.6059C261.678 93.2417 261.847 91.8739 261.979 90.5007C262.109 89.1275 262.2 87.7508 262.251 86.3722C262.303 84.9936 262.314 83.6132 262.287 82.2346C262.26 80.8542 262.191 79.4774 262.085 78.1024C261.979 76.7256 261.831 75.3542 261.645 73.9882C261.46 72.6205 261.236 71.2599 260.971 69.9047C260.708 68.5514 260.406 67.2052 260.063 65.8681C259.723 64.5309 259.344 63.2064 258.926 61.8909C258.508 60.5753 258.054 59.2724 257.562 57.9839C257.07 56.6955 256.54 55.4214 255.974 54.1617C255.41 52.9039 254.808 51.6622 254.172 50.4368C253.534 49.2132 252.864 48.0076 252.157 46.8218C251.451 45.6361 250.712 44.4719 249.939 43.3276C249.166 42.1851 248.36 41.0642 247.522 39.9667C246.686 38.8692 245.818 37.797 244.918 36.75C244.019 35.703 243.091 34.6812 242.134 33.6865C241.176 32.6935 240.192 31.7258 239.177 30.7887C238.164 29.8516 237.124 28.9434 236.059 28.0658C234.994 27.1863 233.904 26.3394 232.79 25.5248C231.677 24.7085 230.54 23.9246 229.381 23.1749C228.222 22.4234 227.044 21.708 225.843 21.025C224.643 20.342 223.423 19.6933 222.187 19.0806C220.949 18.4679 219.695 17.8894 218.424 17.3488C217.154 16.8081 215.869 16.3036 214.57 15.8368C213.27 15.3683 211.958 14.9394 210.634 14.5465C209.309 14.1537 207.974 13.8005 206.63 13.4851C205.285 13.1679 203.934 12.8922 202.573 12.6543C201.213 12.4147 199.847 12.2164 198.473 12.056C197.102 11.8957 195.727 11.7767 194.348 11.6956C192.968 11.6145 191.589 11.5731 190.207 11.5713ZM190.207 150.618C187.304 150.615 184.412 150.424 181.532 150.043C178.652 149.665 175.81 149.101 173.005 148.351C170.199 147.603 167.454 146.675 164.769 145.571C162.084 144.464 159.482 143.19 156.962 141.747C159.401 138.678 161.358 135.329 162.837 131.702C163.183 130.873 163.459 130.044 163.736 129.285C164.405 127.325 164.798 125.312 164.911 123.245C164.938 122.841 164.938 122.439 164.911 122.035C164.931 121.862 164.931 121.691 164.911 121.518C164.915 119.761 164.717 118.029 164.313 116.321C163.911 114.611 163.315 112.973 162.525 111.403C162.14 110.585 161.7 109.799 161.204 109.042C160.709 108.285 160.163 107.566 159.568 106.885C158.972 106.204 158.332 105.568 157.647 104.977C156.964 104.384 156.242 103.843 155.483 103.351C154.722 102.859 153.933 102.423 153.113 102.041C152.291 101.659 151.45 101.335 150.583 101.07C149.718 100.805 148.839 100.601 147.945 100.459C147.051 100.317 146.152 100.237 145.247 100.219C144.025 100.227 142.816 100.351 141.618 100.592C140.419 100.834 139.257 101.189 138.129 101.656C136.999 102.124 135.927 102.695 134.908 103.371C133.892 104.047 132.948 104.815 132.079 105.672C131.153 104.759 130.138 103.953 129.039 103.256H128.866C127.837 102.632 126.765 102.092 125.653 101.634C125.341 100.519 125.06 99.3958 124.808 98.2659C124.557 97.136 124.334 95.9989 124.141 94.8582C123.948 93.7156 123.784 92.5713 123.651 91.4198C123.517 90.2701 123.415 89.1185 123.341 87.9616C123.267 86.8065 123.224 85.6495 123.211 84.4926C123.197 83.3338 123.213 82.1769 123.26 81.02C123.307 79.863 123.384 78.7097 123.49 77.5564C123.597 76.403 123.734 75.2533 123.901 74.1072C124.067 72.9629 124.264 71.8221 124.489 70.685C124.714 69.5497 124.97 68.4216 125.255 67.2989C125.539 66.1762 125.853 65.0625 126.195 63.956C126.538 62.8496 126.907 61.7539 127.307 60.6672C127.707 59.5788 128.134 58.5047 128.589 57.4397C129.044 56.3747 129.527 55.3223 130.037 54.2825C130.547 53.2427 131.084 52.2173 131.647 51.2045C132.211 50.1935 132.8 49.197 133.415 48.2148C134.029 47.2345 134.671 46.2686 135.336 45.3207C136.001 44.3728 136.691 43.4429 137.404 42.5311C138.118 41.6174 138.853 40.7254 139.614 39.8514C140.374 38.9774 141.156 38.1232 141.96 37.2888C142.766 36.4563 143.591 35.6435 144.438 34.8524C145.283 34.0613 146.15 33.2936 147.036 32.5475C147.923 31.8015 148.83 31.0788 149.752 30.3814C150.677 29.6822 151.619 29.0064 152.578 28.3577C153.537 27.7071 154.512 27.0818 155.504 26.4835C156.496 25.8834 157.501 25.3104 158.523 24.7625C159.545 24.2165 160.579 23.6957 161.628 23.2019C162.677 22.7082 163.738 22.2414 164.81 21.8035C165.883 21.3656 166.966 20.9547 168.06 20.5727C169.153 20.1889 170.258 19.8356 171.37 19.5113C172.482 19.1851 173.603 18.8895 174.731 18.6228C175.857 18.3543 176.993 18.1183 178.131 17.9092C179.272 17.7002 180.416 17.5218 181.566 17.374C182.716 17.2244 183.869 17.1055 185.024 17.0172C186.18 16.9271 187.336 16.8676 188.495 16.8388C189.654 16.8099 190.813 16.8099 191.971 16.8424C193.13 16.873 194.287 16.9343 195.442 17.0244C196.599 17.1163 197.751 17.237 198.9 17.3866C200.05 17.538 201.195 17.7182 202.333 17.929C203.474 18.1381 204.608 18.3778 205.734 18.6463C206.862 18.9166 207.981 19.2139 209.093 19.5401C210.205 19.8681 211.308 20.2231 212.402 20.6069C213.496 20.9908 214.577 21.4035 215.649 21.8432C216.721 22.2847 217.781 22.7514 218.83 23.247C219.877 23.7426 220.911 24.2652 221.931 24.813C222.953 25.3626 223.958 25.9375 224.948 26.5394C225.939 27.1395 226.914 27.7666 227.871 28.4172C228.829 29.0695 229.77 29.7453 230.693 30.4445C231.615 31.1455 232.52 31.87 233.405 32.616C234.292 33.3639 235.157 34.1334 236.002 34.9263C236.847 35.7174 237.67 36.5319 238.474 37.3663C239.278 38.2007 240.058 39.0567 240.817 39.9307C241.576 40.8065 242.311 41.7021 243.023 42.614C243.734 43.5276 244.423 44.4593 245.086 45.409C245.751 46.3587 246.389 47.3246 247.003 48.3068C247.616 49.2889 248.204 50.2854 248.766 51.2982C249.326 52.311 249.862 53.3382 250.37 54.378C250.878 55.4196 251.359 56.472 251.813 57.537C252.267 58.6039 252.693 59.6797 253.091 60.7664C253.487 61.8548 253.857 62.9523 254.197 64.0588C254.538 65.1652 254.85 66.2789 255.133 67.4034C255.416 68.5261 255.668 69.6542 255.893 70.7913C256.117 71.9267 256.311 73.0674 256.475 74.2135C256.639 75.3596 256.774 76.5094 256.879 77.6627C256.985 78.816 257.059 79.9712 257.104 81.1281C257.149 82.285 257.164 83.442 257.149 84.5989C257.133 85.7576 257.088 86.9128 257.012 88.0697C256.938 89.2249 256.832 90.3764 256.697 91.5261C256.562 92.6758 256.396 93.822 256.201 94.9645C256.007 96.1052 255.783 97.2405 255.529 98.3704C255.275 99.5003 254.992 100.623 254.68 101.737C254.367 102.852 254.026 103.959 253.657 105.056C253.287 106.154 252.889 107.24 252.464 108.316C252.037 109.394 251.583 110.459 251.101 111.511C250.62 112.565 250.112 113.605 249.575 114.631C249.04 115.658 248.478 116.671 247.89 117.667C247.303 118.665 246.688 119.648 246.048 120.614C245.41 121.579 244.745 122.527 244.057 123.459C243.369 124.391 242.657 125.303 241.92 126.198C241.185 127.092 240.426 127.966 239.644 128.822C238.863 129.676 238.06 130.511 237.234 131.325C236.411 132.138 235.566 132.929 234.699 133.698C233.834 134.47 232.947 135.216 232.043 135.938C231.138 136.663 230.215 137.362 229.275 138.038C228.332 138.714 227.375 139.366 226.4 139.991C225.425 140.618 224.434 141.219 223.429 141.793C222.421 142.368 221.401 142.916 220.367 143.437C219.332 143.96 218.285 144.455 217.224 144.922C216.164 145.389 215.092 145.828 214.009 146.241C212.926 146.654 211.832 147.036 210.729 147.392C209.626 147.748 208.515 148.074 207.394 148.371C206.275 148.668 205.146 148.937 204.013 149.177C202.879 149.414 201.739 149.625 200.594 149.805C199.45 149.984 198.3 150.135 197.147 150.256C195.995 150.377 194.84 150.467 193.682 150.526C192.525 150.588 191.366 150.618 190.207 150.618ZM124.892 106.847L125.617 107.296C126.24 107.635 126.828 108.026 127.379 108.469L128.037 109.021C128.778 109.677 129.457 110.39 130.075 111.162C130.32 111.488 130.625 111.742 130.991 111.924C131.355 112.106 131.74 112.198 132.149 112.198C132.562 112.196 132.953 112.104 133.324 111.92C133.69 111.735 134.002 111.482 134.258 111.162C134.89 110.286 135.617 109.493 136.435 108.788C137.253 108.082 138.143 107.48 139.104 106.981C140.064 106.483 141.07 106.105 142.119 105.842C143.169 105.581 144.234 105.444 145.316 105.431C145.816 105.46 146.314 105.512 146.809 105.59C147.305 105.667 147.795 105.768 148.282 105.894C148.766 106.018 149.244 106.166 149.716 106.337C150.187 106.51 150.648 106.703 151.1 106.921C151.553 107.138 151.992 107.375 152.421 107.635C152.85 107.894 153.264 108.174 153.666 108.475C154.068 108.774 154.454 109.093 154.825 109.43C155.195 109.769 155.548 110.122 155.883 110.495C156.218 110.866 156.535 111.254 156.833 111.657C157.132 112.059 157.409 112.475 157.665 112.906C157.923 113.337 158.159 113.778 158.372 114.231C158.586 114.683 158.777 115.146 158.946 115.616C159.116 116.089 159.262 116.566 159.383 117.053C159.505 117.539 159.604 118.029 159.678 118.525C159.752 119.019 159.802 119.518 159.828 120.017C159.853 120.518 159.855 121.017 159.831 121.518C159.853 121.943 159.853 122.369 159.831 122.796C159.7 124.351 159.388 125.87 158.898 127.352C158.898 127.766 158.586 128.215 158.449 128.663C156.773 133.133 154.319 137.126 151.088 140.642C148.413 143.511 145.496 146.106 142.335 148.427C139.174 150.748 135.826 152.755 132.288 154.449C114.455 145.509 108.097 134.877 105.677 127.456C105.138 125.982 104.817 124.463 104.709 122.899C104.709 122.14 104.709 121.725 104.709 121.655C104.682 121.154 104.68 120.653 104.704 120.15C104.725 119.649 104.772 119.148 104.844 118.651C104.915 118.154 105.01 117.662 105.129 117.173C105.25 116.687 105.392 116.206 105.56 115.732C105.726 115.258 105.915 114.793 106.127 114.337C106.34 113.881 106.574 113.438 106.83 113.005C107.086 112.573 107.362 112.153 107.659 111.747C107.957 111.342 108.272 110.953 108.607 110.578C108.942 110.203 109.294 109.846 109.665 109.506C110.034 109.165 110.42 108.844 110.822 108.541C111.224 108.239 111.638 107.958 112.069 107.694C112.498 107.433 112.939 107.193 113.392 106.974C113.844 106.756 114.307 106.559 114.779 106.386C115.25 106.213 115.729 106.062 116.217 105.936C116.704 105.809 117.194 105.707 117.691 105.627C118.189 105.55 118.688 105.496 119.189 105.465C121.195 105.501 123.094 105.961 124.892 106.847Z" fill="#24B5D3"/>
</g>
</svg>
