<svg xmlns="http://www.w3.org/2000/svg" xmlns:xlink="http://www.w3.org/1999/xlink" width="500" zoomAndPan="magnify" viewBox="0 0 375 374.999991" height="500" preserveAspectRatio="xMidYMid meet" version="1.0"><defs><clipPath id="c457c1bad7"><path d="M 4 25.082031 L 359 25.082031 L 359 347 L 4 347 Z M 4 25.082031 " clip-rule="nonzero"/></clipPath></defs><path fill="#ffffff" d="M 274.550781 129.839844 C 274.550781 130.210938 274.589844 130.574219 274.660156 130.9375 C 274.730469 131.300781 274.839844 131.65625 274.980469 131.996094 C 275.121094 132.339844 275.292969 132.667969 275.496094 132.976562 C 275.699219 133.285156 275.933594 133.570312 276.195312 133.832031 C 276.453125 134.097656 276.738281 134.332031 277.042969 134.542969 C 277.351562 134.75 277.675781 134.925781 278.015625 135.070312 C 278.355469 135.214844 278.707031 135.328125 279.070312 135.402344 C 279.433594 135.480469 279.800781 135.519531 280.171875 135.527344 L 291.40625 135.527344 C 291.347656 136.824219 291.253906 138.125 291.128906 139.417969 C 291.007812 140.714844 290.851562 142.003906 290.667969 143.292969 C 290.484375 144.582031 290.269531 145.863281 290.023438 147.144531 C 289.777344 148.421875 289.503906 149.691406 289.195312 150.957031 C 288.890625 152.222656 288.554688 153.480469 288.191406 154.726562 C 287.824219 155.976562 287.429688 157.214844 287.003906 158.445312 C 286.582031 159.675781 286.128906 160.894531 285.644531 162.105469 C 285.164062 163.3125 284.652344 164.511719 284.113281 165.695312 C 283.574219 166.878906 283.007812 168.050781 282.414062 169.207031 C 281.820312 170.367188 281.195312 171.507812 280.546875 172.636719 C 279.898438 173.765625 279.222656 174.878906 278.523438 175.976562 C 277.820312 177.070312 277.09375 178.148438 276.339844 179.210938 C 275.585938 180.273438 274.808594 181.316406 274.007812 182.34375 C 273.203125 183.367188 272.378906 184.371094 271.527344 185.359375 C 270.679688 186.34375 269.804688 187.308594 268.910156 188.253906 C 268.011719 189.199219 267.09375 190.121094 266.15625 191.023438 C 265.214844 191.921875 264.253906 192.800781 263.273438 193.65625 C 262.289062 194.511719 261.289062 195.34375 260.269531 196.152344 C 259.246094 196.960938 258.207031 197.742188 257.148438 198.503906 C 256.089844 199.261719 255.015625 199.996094 253.921875 200.703125 C 252.828125 201.410156 251.71875 202.09375 250.59375 202.746094 C 249.46875 203.402344 248.328125 204.03125 247.175781 204.632812 C 246.019531 205.234375 244.851562 205.808594 243.667969 206.351562 C 242.484375 206.898438 241.289062 207.417969 240.082031 207.90625 C 238.875 208.394531 237.65625 208.855469 236.429688 209.285156 C 235.199219 209.71875 233.960938 210.121094 232.714844 210.492188 C 231.464844 210.867188 230.210938 211.210938 228.945312 211.523438 C 227.679688 211.835938 226.410156 212.121094 225.132812 212.371094 C 223.855469 212.625 222.570312 212.847656 221.28125 213.042969 C 219.996094 213.234375 218.703125 213.394531 217.40625 213.527344 C 216.109375 213.65625 214.8125 213.757812 213.511719 213.828125 C 212.210938 213.898438 210.910156 213.9375 209.605469 213.945312 L 207.734375 213.945312 L 207.734375 112.628906 L 219.121094 112.628906 C 219.519531 112.675781 219.917969 112.679688 220.316406 112.640625 C 220.714844 112.601562 221.105469 112.523438 221.488281 112.402344 C 221.871094 112.28125 222.238281 112.121094 222.585938 111.921875 C 222.933594 111.722656 223.257812 111.492188 223.558594 111.222656 C 223.859375 110.957031 224.128906 110.664062 224.363281 110.339844 C 224.601562 110.015625 224.800781 109.671875 224.964844 109.304688 C 225.128906 108.941406 225.253906 108.5625 225.339844 108.167969 C 225.421875 107.777344 225.464844 107.378906 225.464844 106.980469 C 225.464844 106.578125 225.421875 106.183594 225.339844 105.789062 C 225.253906 105.398438 225.128906 105.019531 224.964844 104.652344 C 224.800781 104.289062 224.601562 103.941406 224.363281 103.621094 C 224.128906 103.296875 223.859375 103 223.558594 102.734375 C 223.257812 102.46875 222.933594 102.234375 222.585938 102.035156 C 222.238281 101.839844 221.871094 101.679688 221.488281 101.558594 C 221.105469 101.4375 220.714844 101.355469 220.316406 101.320312 C 219.917969 101.28125 219.519531 101.285156 219.121094 101.328125 L 184.660156 101.328125 C 184.261719 101.285156 183.863281 101.28125 183.464844 101.320312 C 183.0625 101.355469 182.671875 101.4375 182.289062 101.558594 C 181.90625 101.679688 181.542969 101.839844 181.191406 102.035156 C 180.84375 102.234375 180.519531 102.46875 180.21875 102.734375 C 179.921875 103 179.652344 103.296875 179.414062 103.621094 C 179.179688 103.941406 178.976562 104.289062 178.8125 104.652344 C 178.648438 105.019531 178.523438 105.398438 178.441406 105.789062 C 178.355469 106.183594 178.316406 106.578125 178.316406 106.980469 C 178.316406 107.378906 178.355469 107.777344 178.441406 108.167969 C 178.523438 108.5625 178.648438 108.941406 178.8125 109.304688 C 178.976562 109.671875 179.179688 110.015625 179.414062 110.339844 C 179.652344 110.664062 179.921875 110.957031 180.21875 111.222656 C 180.519531 111.492188 180.84375 111.722656 181.191406 111.921875 C 181.542969 112.121094 181.90625 112.28125 182.289062 112.402344 C 182.671875 112.523438 183.0625 112.601562 183.464844 112.640625 C 183.863281 112.679688 184.261719 112.675781 184.660156 112.628906 L 196.046875 112.628906 L 196.046875 213.945312 L 194.25 213.945312 C 192.949219 213.933594 191.648438 213.890625 190.347656 213.816406 C 189.050781 213.746094 187.753906 213.640625 186.460938 213.507812 C 185.164062 213.371094 183.875 213.207031 182.589844 213.011719 C 181.300781 212.816406 180.019531 212.589844 178.746094 212.332031 C 177.46875 212.078125 176.203125 211.792969 174.941406 211.476562 C 173.675781 211.160156 172.421875 210.8125 171.179688 210.4375 C 169.933594 210.0625 168.695312 209.65625 167.46875 209.222656 C 166.242188 208.789062 165.027344 208.328125 163.824219 207.835938 C 162.621094 207.34375 161.425781 206.824219 160.246094 206.277344 C 159.066406 205.730469 157.902344 205.152344 156.75 204.550781 C 155.597656 203.945312 154.457031 203.316406 153.335938 202.660156 C 152.214844 202.003906 151.105469 201.320312 150.015625 200.609375 C 148.925781 199.902344 147.851562 199.167969 146.796875 198.40625 C 145.742188 197.648438 144.707031 196.863281 143.6875 196.054688 C 142.667969 195.246094 141.671875 194.410156 140.691406 193.554688 C 139.714844 192.699219 138.753906 191.820312 137.816406 190.917969 C 136.882812 190.015625 135.964844 189.09375 135.074219 188.148438 C 134.179688 187.203125 133.308594 186.238281 132.460938 185.253906 C 131.613281 184.265625 130.789062 183.261719 129.992188 182.234375 C 129.191406 181.210938 128.414062 180.167969 127.664062 179.105469 C 126.914062 178.042969 126.191406 176.964844 125.492188 175.867188 C 124.792969 174.773438 124.121094 173.660156 123.472656 172.53125 C 122.828125 171.402344 122.207031 170.261719 121.613281 169.105469 C 121.023438 167.949219 120.457031 166.777344 119.921875 165.59375 C 119.386719 164.410156 118.875 163.214844 118.394531 162.003906 C 117.917969 160.796875 117.464844 159.578125 117.042969 158.347656 C 116.621094 157.121094 116.226562 155.882812 115.863281 154.632812 C 115.5 153.386719 115.167969 152.128906 114.863281 150.867188 C 114.558594 149.601562 114.285156 148.332031 114.042969 147.054688 C 113.796875 145.777344 113.585938 144.496094 113.402344 143.210938 C 113.21875 141.921875 113.066406 140.632812 112.945312 139.339844 C 112.824219 138.046875 112.730469 136.75 112.671875 135.449219 L 123.832031 135.449219 C 124.207031 135.449219 124.578125 135.414062 124.945312 135.339844 C 125.3125 135.269531 125.667969 135.160156 126.011719 135.019531 C 126.359375 134.875 126.6875 134.699219 126.996094 134.492188 C 127.308594 134.285156 127.59375 134.050781 127.859375 133.785156 C 128.125 133.519531 128.359375 133.234375 128.566406 132.921875 C 128.773438 132.613281 128.949219 132.285156 129.09375 131.941406 C 129.238281 131.59375 129.34375 131.238281 129.417969 130.875 C 129.492188 130.507812 129.527344 130.136719 129.527344 129.765625 C 129.527344 129.390625 129.492188 129.019531 129.417969 128.65625 C 129.34375 128.289062 129.238281 127.933594 129.09375 127.585938 C 128.949219 127.242188 128.773438 126.914062 128.566406 126.605469 C 128.359375 126.292969 128.125 126.007812 127.859375 125.742188 C 127.59375 125.480469 127.308594 125.242188 126.996094 125.035156 C 126.6875 124.828125 126.359375 124.652344 126.011719 124.511719 C 125.667969 124.367188 125.3125 124.257812 124.945312 124.1875 C 124.578125 124.113281 124.207031 124.078125 123.832031 124.078125 L 89.675781 124.078125 C 89.300781 124.078125 88.929688 124.113281 88.5625 124.1875 C 88.195312 124.257812 87.839844 124.367188 87.496094 124.511719 C 87.152344 124.652344 86.824219 124.828125 86.511719 125.035156 C 86.199219 125.242188 85.914062 125.480469 85.648438 125.742188 C 85.382812 126.007812 85.148438 126.292969 84.941406 126.605469 C 84.734375 126.914062 84.558594 127.242188 84.414062 127.585938 C 84.273438 127.933594 84.164062 128.289062 84.089844 128.65625 C 84.019531 129.019531 83.980469 129.390625 83.980469 129.765625 C 83.980469 130.136719 84.019531 130.507812 84.089844 130.875 C 84.164062 131.238281 84.273438 131.59375 84.414062 131.941406 C 84.558594 132.285156 84.734375 132.613281 84.941406 132.921875 C 85.148438 133.234375 85.382812 133.519531 85.648438 133.785156 C 85.914062 134.050781 86.199219 134.285156 86.511719 134.492188 C 86.824219 134.699219 87.152344 134.875 87.496094 135.019531 C 87.839844 135.160156 88.195312 135.269531 88.5625 135.339844 C 88.929688 135.414062 89.300781 135.449219 89.675781 135.449219 L 101.285156 135.449219 C 101.34375 136.9375 101.4375 138.425781 101.5625 139.910156 C 101.691406 141.390625 101.855469 142.871094 102.054688 144.347656 C 102.253906 145.824219 102.488281 147.292969 102.761719 148.757812 C 103.03125 150.222656 103.335938 151.679688 103.675781 153.132812 C 104.015625 154.582031 104.386719 156.023438 104.796875 157.453125 C 105.207031 158.886719 105.648438 160.308594 106.125 161.71875 C 106.601562 163.128906 107.113281 164.527344 107.65625 165.914062 C 108.199219 167.300781 108.777344 168.675781 109.386719 170.035156 C 109.996094 171.394531 110.636719 172.738281 111.308594 174.066406 C 111.984375 175.394531 112.6875 176.707031 113.425781 178 C 114.164062 179.296875 114.929688 180.570312 115.726562 181.828125 C 116.523438 183.089844 117.351562 184.328125 118.210938 185.546875 C 119.066406 186.761719 119.953125 187.960938 120.867188 189.136719 C 121.78125 190.3125 122.722656 191.46875 123.691406 192.597656 C 124.664062 193.730469 125.660156 194.835938 126.683594 195.921875 C 127.703125 197.003906 128.753906 198.0625 129.824219 199.097656 C 130.898438 200.128906 131.996094 201.136719 133.117188 202.117188 C 134.242188 203.097656 135.386719 204.050781 136.550781 204.980469 C 137.71875 205.90625 138.910156 206.804688 140.117188 207.671875 C 141.328125 208.542969 142.558594 209.382812 143.808594 210.191406 C 145.0625 211.003906 146.332031 211.785156 147.617188 212.535156 C 148.90625 213.285156 150.210938 214.003906 151.535156 214.691406 C 152.855469 215.378906 154.195312 216.035156 155.546875 216.65625 C 156.902344 217.28125 158.269531 217.871094 159.652344 218.429688 C 161.035156 218.988281 162.429688 219.515625 163.835938 220.007812 C 165.242188 220.5 166.660156 220.957031 168.089844 221.378906 C 169.519531 221.804688 170.957031 222.195312 172.40625 222.546875 C 173.855469 222.902344 175.308594 223.222656 176.773438 223.511719 C 178.238281 223.796875 179.707031 224.046875 181.179688 224.261719 C 182.65625 224.476562 184.136719 224.65625 185.621094 224.800781 C 187.101562 224.945312 188.589844 225.054688 190.078125 225.128906 C 191.566406 225.203125 193.058594 225.242188 194.546875 225.242188 L 196.347656 225.242188 L 196.347656 292.589844 L 184.660156 292.589844 C 184.285156 292.589844 183.917969 292.625 183.550781 292.695312 C 183.183594 292.769531 182.828125 292.878906 182.480469 293.019531 C 182.136719 293.164062 181.808594 293.339844 181.496094 293.546875 C 181.1875 293.753906 180.898438 293.988281 180.636719 294.253906 C 180.371094 294.519531 180.132812 294.804688 179.925781 295.117188 C 179.71875 295.425781 179.542969 295.753906 179.402344 296.097656 C 179.257812 296.445312 179.148438 296.800781 179.078125 297.164062 C 179.003906 297.53125 178.96875 297.902344 178.96875 298.273438 C 178.96875 298.648438 179.003906 299.019531 179.078125 299.382812 C 179.148438 299.75 179.257812 300.105469 179.402344 300.449219 C 179.542969 300.796875 179.71875 301.125 179.925781 301.433594 C 180.132812 301.746094 180.371094 302.03125 180.636719 302.296875 C 180.898438 302.558594 181.1875 302.796875 181.496094 303.003906 C 181.808594 303.210938 182.136719 303.386719 182.480469 303.527344 C 182.828125 303.671875 183.183594 303.78125 183.550781 303.851562 C 183.917969 303.925781 184.285156 303.960938 184.660156 303.960938 L 219.121094 303.960938 C 219.492188 303.960938 219.863281 303.925781 220.230469 303.851562 C 220.597656 303.78125 220.953125 303.671875 221.296875 303.527344 C 221.644531 303.386719 221.972656 303.210938 222.28125 303.003906 C 222.59375 302.796875 222.878906 302.558594 223.144531 302.296875 C 223.410156 302.03125 223.644531 301.746094 223.851562 301.433594 C 224.058594 301.125 224.234375 300.796875 224.378906 300.449219 C 224.523438 300.105469 224.628906 299.75 224.703125 299.382812 C 224.777344 299.019531 224.8125 298.648438 224.8125 298.273438 C 224.8125 297.902344 224.777344 297.53125 224.703125 297.164062 C 224.628906 296.800781 224.523438 296.445312 224.378906 296.097656 C 224.234375 295.753906 224.0625 295.425781 223.851562 295.117188 C 223.644531 294.804688 223.410156 294.519531 223.144531 294.253906 C 222.878906 293.988281 222.59375 293.753906 222.28125 293.546875 C 221.972656 293.339844 221.644531 293.164062 221.296875 293.019531 C 220.953125 292.878906 220.597656 292.769531 220.230469 292.695312 C 219.863281 292.625 219.492188 292.589844 219.121094 292.589844 L 207.734375 292.589844 L 207.734375 225.242188 L 209.605469 225.242188 C 211.097656 225.242188 212.585938 225.203125 214.074219 225.128906 C 215.566406 225.054688 217.050781 224.945312 218.535156 224.800781 C 220.019531 224.65625 221.5 224.476562 222.972656 224.261719 C 224.449219 224.046875 225.917969 223.796875 227.382812 223.511719 C 228.84375 223.222656 230.300781 222.902344 231.746094 222.546875 C 233.195312 222.195312 234.632812 221.804688 236.0625 221.378906 C 237.492188 220.957031 238.910156 220.5 240.316406 220.007812 C 241.726562 219.515625 243.121094 218.988281 244.503906 218.429688 C 245.882812 217.871094 247.253906 217.28125 248.605469 216.65625 C 249.960938 216.035156 251.296875 215.378906 252.621094 214.691406 C 253.941406 214.003906 255.246094 213.285156 256.535156 212.535156 C 257.824219 211.785156 259.09375 211.003906 260.34375 210.191406 C 261.59375 209.382812 262.824219 208.542969 264.035156 207.671875 C 265.246094 206.804688 266.433594 205.90625 267.601562 204.980469 C 268.769531 204.050781 269.914062 203.097656 271.035156 202.117188 C 272.15625 201.136719 273.253906 200.128906 274.328125 199.097656 C 275.402344 198.0625 276.449219 197.003906 277.472656 195.921875 C 278.496094 194.835938 279.492188 193.730469 280.460938 192.597656 C 281.429688 191.46875 282.371094 190.3125 283.289062 189.136719 C 284.203125 187.960938 285.085938 186.761719 285.945312 185.546875 C 286.800781 184.328125 287.628906 183.089844 288.425781 181.828125 C 289.226562 180.570312 289.992188 179.296875 290.730469 178 C 291.464844 176.707031 292.171875 175.394531 292.84375 174.066406 C 293.519531 172.738281 294.160156 171.394531 294.769531 170.035156 C 295.378906 168.675781 295.957031 167.300781 296.5 165.914062 C 297.042969 164.527344 297.554688 163.128906 298.03125 161.71875 C 298.507812 160.308594 298.949219 158.886719 299.359375 157.453125 C 299.765625 156.023438 300.140625 154.582031 300.480469 153.132812 C 300.820312 151.679688 301.125 150.222656 301.394531 148.757812 C 301.664062 147.292969 301.898438 145.824219 302.097656 144.347656 C 302.296875 142.871094 302.460938 141.390625 302.589844 139.910156 C 302.71875 138.425781 302.8125 136.9375 302.867188 135.449219 L 314.40625 135.449219 C 314.777344 135.449219 315.148438 135.414062 315.515625 135.339844 C 315.882812 135.269531 316.238281 135.160156 316.582031 135.019531 C 316.929688 134.875 317.257812 134.699219 317.566406 134.492188 C 317.878906 134.285156 318.167969 134.050781 318.429688 133.785156 C 318.695312 133.519531 318.929688 133.234375 319.136719 132.921875 C 319.347656 132.613281 319.519531 132.285156 319.664062 131.941406 C 319.808594 131.59375 319.914062 131.238281 319.988281 130.875 C 320.0625 130.507812 320.097656 130.136719 320.097656 129.765625 C 320.097656 129.390625 320.0625 129.019531 319.988281 128.65625 C 319.914062 128.289062 319.808594 127.933594 319.664062 127.585938 C 319.519531 127.242188 319.347656 126.914062 319.136719 126.605469 C 318.929688 126.292969 318.695312 126.007812 318.429688 125.742188 C 318.167969 125.480469 317.878906 125.242188 317.566406 125.035156 C 317.257812 124.828125 316.929688 124.652344 316.582031 124.511719 C 316.238281 124.367188 315.882812 124.257812 315.515625 124.1875 C 315.148438 124.113281 314.777344 124.078125 314.40625 124.078125 L 280.246094 124.078125 C 279.867188 124.078125 279.496094 124.113281 279.125 124.1875 C 278.757812 124.261719 278.398438 124.371094 278.050781 124.515625 C 277.703125 124.664062 277.371094 124.839844 277.058594 125.050781 C 276.746094 125.261719 276.457031 125.5 276.195312 125.769531 C 275.929688 126.039062 275.691406 126.328125 275.484375 126.644531 C 275.277344 126.957031 275.105469 127.289062 274.964844 127.640625 C 274.824219 127.988281 274.71875 128.347656 274.648438 128.71875 C 274.578125 129.089844 274.546875 129.460938 274.550781 129.839844 Z M 274.550781 129.839844 " fill-opacity="1" fill-rule="nonzero"/><g clip-path="url(#c457c1bad7)"><path fill="#ffffff" d="M 202.039062 25.082031 C 199.476562 25.085938 196.917969 25.152344 194.359375 25.28125 C 191.804688 25.410156 189.25 25.601562 186.699219 25.855469 C 184.152344 26.109375 181.613281 26.425781 179.078125 26.800781 C 176.546875 27.179688 174.023438 27.621094 171.511719 28.121094 C 169 28.625 166.503906 29.1875 164.019531 29.8125 C 161.535156 30.4375 159.066406 31.121094 156.617188 31.863281 C 154.167969 32.609375 151.734375 33.414062 149.324219 34.277344 C 146.914062 35.140625 144.527344 36.0625 142.160156 37.046875 C 139.796875 38.027344 137.457031 39.0625 135.140625 40.160156 C 132.824219 41.253906 130.539062 42.40625 128.28125 43.613281 C 126.023438 44.820312 123.796875 46.082031 121.597656 47.398438 C 119.402344 48.714844 117.242188 50.082031 115.113281 51.507812 C 112.984375 52.929688 110.890625 54.402344 108.832031 55.925781 C 106.777344 57.449219 104.757812 59.023438 102.777344 60.648438 C 100.796875 62.269531 98.859375 63.941406 96.960938 65.660156 C 95.066406 67.378906 93.210938 69.140625 91.398438 70.953125 C 89.589844 72.761719 87.824219 74.613281 86.101562 76.507812 C 84.382812 78.402344 82.710938 80.339844 81.085938 82.316406 C 79.460938 84.296875 77.882812 86.3125 76.355469 88.367188 C 74.832031 90.421875 73.355469 92.511719 71.933594 94.636719 C 70.507812 96.765625 69.136719 98.925781 67.820312 101.117188 C 66.503906 103.3125 65.238281 105.535156 64.03125 107.792969 C 62.820312 110.046875 61.667969 112.332031 60.574219 114.644531 C 59.476562 116.957031 58.4375 119.292969 57.457031 121.65625 C 56.472656 124.019531 55.550781 126.40625 54.683594 128.8125 C 53.820312 131.222656 53.015625 133.648438 52.269531 136.097656 C 51.523438 138.546875 50.839844 141.007812 50.214844 143.492188 C 49.589844 145.972656 49.027344 148.464844 48.523438 150.976562 C 48.019531 153.484375 47.582031 156.003906 47.203125 158.535156 C 46.824219 161.0625 46.507812 163.601562 46.25 166.148438 C 45.996094 168.695312 45.804688 171.242188 45.675781 173.800781 C 45.546875 176.355469 45.480469 178.910156 45.476562 181.46875 C 45.503906 193.613281 46.953125 205.585938 49.824219 217.386719 C 49.074219 217.386719 48.398438 217.386719 47.648438 217.386719 C 46.199219 217.457031 44.757812 217.59375 43.320312 217.804688 C 41.882812 218.015625 40.460938 218.292969 39.050781 218.640625 C 37.644531 218.984375 36.253906 219.398438 34.882812 219.882812 C 33.515625 220.363281 32.171875 220.910156 30.855469 221.519531 C 29.539062 222.132812 28.257812 222.804688 27.003906 223.542969 C 25.753906 224.277344 24.542969 225.070312 23.367188 225.921875 C 22.195312 226.777344 21.066406 227.683594 19.980469 228.644531 C 18.894531 229.609375 17.855469 230.621094 16.867188 231.683594 C 15.882812 232.746094 14.949219 233.855469 14.066406 235.007812 C 13.1875 236.160156 12.363281 237.351562 11.601562 238.585938 C 10.835938 239.816406 10.132812 241.085938 9.492188 242.382812 C 8.847656 243.683594 8.273438 245.011719 7.757812 246.371094 C 7.246094 247.726562 6.800781 249.105469 6.421875 250.503906 C 6.042969 251.902344 5.730469 253.316406 5.488281 254.746094 C 5.246094 256.175781 5.074219 257.617188 4.972656 259.0625 C 4.871094 260.507812 4.839844 261.957031 4.875 263.40625 C 4.792969 264.703125 4.792969 266 4.875 267.296875 C 5.292969 271.476562 6.214844 275.542969 7.648438 279.492188 C 13.417969 298.050781 29.523438 324.390625 73.71875 346.015625 C 74.503906 346.371094 75.328125 346.546875 76.191406 346.539062 C 77.058594 346.5625 77.882812 346.386719 78.664062 346.015625 C 86.761719 342.324219 94.488281 337.964844 101.832031 332.9375 C 109.179688 327.914062 116.039062 322.296875 122.410156 316.082031 C 124.988281 317.601562 127.613281 319.042969 130.273438 320.410156 C 132.9375 321.777344 135.636719 323.070312 138.375 324.28125 C 141.109375 325.496094 143.878906 326.628906 146.683594 327.683594 C 149.484375 328.734375 152.3125 329.707031 155.171875 330.601562 C 158.03125 331.492188 160.910156 332.300781 163.816406 333.027344 C 166.71875 333.753906 169.640625 334.394531 172.582031 334.957031 C 175.523438 335.515625 178.480469 335.988281 181.449219 336.378906 C 184.417969 336.765625 187.394531 337.070312 190.378906 337.289062 C 193.367188 337.507812 196.355469 337.640625 199.351562 337.6875 C 202.34375 337.738281 205.335938 337.699219 208.328125 337.574219 C 211.320312 337.449219 214.304688 337.238281 217.285156 336.945312 C 220.261719 336.648438 223.230469 336.269531 226.1875 335.800781 C 229.148438 335.335938 232.089844 334.785156 235.015625 334.152344 C 237.941406 333.519531 240.84375 332.800781 243.730469 332 C 246.613281 331.199219 249.472656 330.316406 252.308594 329.351562 C 255.140625 328.386719 257.945312 327.339844 260.71875 326.214844 C 263.492188 325.089844 266.234375 323.886719 268.9375 322.605469 C 271.644531 321.320312 274.308594 319.960938 276.933594 318.527344 C 279.5625 317.089844 282.144531 315.582031 284.683594 314 C 287.226562 312.414062 289.71875 310.757812 292.160156 309.03125 C 294.605469 307.304688 297 305.511719 299.339844 303.648438 C 301.683594 301.785156 303.96875 299.855469 306.199219 297.859375 C 308.429688 295.867188 310.601562 293.808594 312.714844 291.6875 C 314.828125 289.570312 316.878906 287.390625 318.863281 285.15625 C 320.851562 282.917969 322.773438 280.625 324.628906 278.277344 C 326.484375 275.933594 328.273438 273.535156 329.992188 271.085938 C 331.707031 268.636719 333.355469 266.136719 334.929688 263.59375 C 336.503906 261.050781 338.003906 258.464844 339.429688 255.835938 C 340.855469 253.203125 342.203125 250.535156 343.476562 247.828125 C 344.75 245.121094 345.941406 242.378906 347.058594 239.605469 C 348.171875 236.828125 349.207031 234.023438 350.160156 231.1875 C 351.113281 228.355469 351.988281 225.492188 352.777344 222.609375 C 353.566406 219.722656 354.269531 216.820312 354.894531 213.894531 C 355.515625 210.96875 356.054688 208.027344 356.507812 205.070312 C 356.960938 202.113281 357.328125 199.148438 357.613281 196.171875 C 357.894531 193.195312 358.09375 190.210938 358.203125 187.222656 C 358.316406 184.234375 358.339844 181.242188 358.28125 178.253906 C 358.222656 175.261719 358.074219 172.277344 357.84375 169.296875 C 357.613281 166.3125 357.292969 163.339844 356.890625 160.378906 C 356.488281 157.414062 356.003906 154.464844 355.429688 151.527344 C 354.859375 148.59375 354.203125 145.675781 353.460938 142.777344 C 352.722656 139.878906 351.902344 137.007812 350.996094 134.15625 C 350.089844 131.304688 349.105469 128.480469 348.039062 125.6875 C 346.972656 122.894531 345.824219 120.132812 344.597656 117.402344 C 343.375 114.675781 342.070312 111.984375 340.691406 109.328125 C 339.308594 106.675781 337.855469 104.0625 336.324219 101.492188 C 334.792969 98.921875 333.191406 96.398438 331.515625 93.917969 C 329.839844 91.441406 328.09375 89.011719 326.277344 86.632812 C 324.464844 84.253906 322.582031 81.929688 320.632812 79.660156 C 318.683594 77.390625 316.671875 75.175781 314.597656 73.019531 C 312.519531 70.867188 310.386719 68.769531 308.1875 66.738281 C 305.992188 64.707031 303.738281 62.738281 301.429688 60.835938 C 299.121094 58.929688 296.757812 57.09375 294.34375 55.328125 C 291.929688 53.558594 289.464844 51.859375 286.953125 50.234375 C 284.441406 48.605469 281.886719 47.054688 279.285156 45.574219 C 276.683594 44.09375 274.039062 42.6875 271.359375 41.359375 C 268.675781 40.03125 265.957031 38.777344 263.203125 37.605469 C 260.449219 36.433594 257.664062 35.339844 254.847656 34.328125 C 252.03125 33.3125 249.1875 32.382812 246.316406 31.53125 C 243.445312 30.679688 240.550781 29.914062 237.636719 29.230469 C 234.722656 28.542969 231.792969 27.945312 228.84375 27.429688 C 225.894531 26.910156 222.933594 26.480469 219.957031 26.132812 C 216.984375 25.785156 214.003906 25.527344 211.015625 25.351562 C 208.023438 25.175781 205.035156 25.085938 202.039062 25.082031 Z M 202.039062 326.484375 C 195.746094 326.476562 189.476562 326.0625 183.234375 325.238281 C 176.992188 324.417969 170.832031 323.195312 164.75 321.570312 C 158.667969 319.949219 152.71875 317.9375 146.898438 315.542969 C 141.078125 313.144531 135.4375 310.382812 129.976562 307.253906 C 135.261719 300.601562 139.503906 293.34375 142.710938 285.480469 C 143.460938 283.683594 144.058594 281.886719 144.660156 280.242188 C 146.109375 275.992188 146.960938 271.628906 147.207031 267.148438 C 147.265625 266.273438 147.265625 265.402344 147.207031 264.527344 C 147.25 264.152344 147.25 263.78125 147.207031 263.40625 C 147.214844 259.597656 146.785156 255.84375 145.910156 252.140625 C 145.039062 248.433594 143.746094 244.882812 142.035156 241.480469 C 141.199219 239.707031 140.246094 238.003906 139.171875 236.363281 C 138.097656 234.722656 136.914062 233.164062 135.625 231.6875 C 134.332031 230.210938 132.945312 228.832031 131.460938 227.550781 C 129.980469 226.265625 128.414062 225.09375 126.769531 224.027344 C 125.121094 222.960938 123.410156 222.015625 121.632812 221.1875 C 119.851562 220.359375 118.027344 219.65625 116.148438 219.082031 C 114.273438 218.507812 112.367188 218.066406 110.429688 217.757812 C 108.492188 217.449219 106.542969 217.277344 104.582031 217.238281 C 101.933594 217.253906 99.3125 217.523438 96.714844 218.046875 C 94.117188 218.570312 91.597656 219.339844 89.152344 220.351562 C 86.703125 221.367188 84.378906 222.605469 82.171875 224.070312 C 79.96875 225.535156 77.921875 227.199219 76.039062 229.058594 C 74.03125 227.078125 71.832031 225.332031 69.449219 223.820312 L 69.074219 223.820312 C 66.84375 222.46875 64.519531 221.296875 62.109375 220.304688 C 61.433594 217.886719 60.824219 215.453125 60.277344 213.003906 C 59.734375 210.554688 59.25 208.089844 58.832031 205.617188 C 58.414062 203.140625 58.058594 200.660156 57.769531 198.164062 C 57.480469 195.671875 57.257812 193.175781 57.097656 190.667969 C 56.9375 188.164062 56.84375 185.65625 56.816406 183.148438 C 56.785156 180.636719 56.820312 178.128906 56.921875 175.621094 C 57.023438 173.113281 57.191406 170.613281 57.421875 168.113281 C 57.652344 165.613281 57.949219 163.121094 58.3125 160.636719 C 58.671875 158.15625 59.097656 155.683594 59.585938 153.21875 C 60.074219 150.757812 60.628906 148.3125 61.246094 145.878906 C 61.863281 143.445312 62.542969 141.03125 63.285156 138.632812 C 64.027344 136.234375 64.828125 133.859375 65.695312 131.503906 C 66.5625 129.144531 67.488281 126.816406 68.472656 124.507812 C 69.460938 122.199219 70.507812 119.917969 71.613281 117.664062 C 72.71875 115.410156 73.882812 113.1875 75.101562 110.992188 C 76.324219 108.800781 77.601562 106.640625 78.933594 104.511719 C 80.265625 102.386719 81.65625 100.292969 83.097656 98.238281 C 84.539062 96.183594 86.035156 94.167969 87.582031 92.191406 C 89.128906 90.210938 90.722656 88.277344 92.371094 86.382812 C 94.019531 84.488281 95.714844 82.636719 97.457031 80.828125 C 99.203125 79.023438 100.992188 77.261719 102.828125 75.546875 C 104.660156 73.832031 106.539062 72.167969 108.460938 70.550781 C 110.382812 68.933594 112.347656 67.367188 114.347656 65.855469 C 116.351562 64.339844 118.394531 62.875 120.472656 61.46875 C 122.550781 60.058594 124.664062 58.703125 126.816406 57.40625 C 128.964844 56.105469 131.144531 54.863281 133.359375 53.675781 C 135.574219 52.492188 137.816406 51.363281 140.089844 50.292969 C 142.363281 49.222656 144.664062 48.210938 146.988281 47.261719 C 149.3125 46.3125 151.660156 45.421875 154.03125 44.59375 C 156.402344 43.761719 158.796875 42.996094 161.207031 42.292969 C 163.617188 41.585938 166.046875 40.945312 168.492188 40.367188 C 170.933594 39.785156 173.394531 39.273438 175.863281 38.820312 C 178.335938 38.367188 180.816406 37.980469 183.308594 37.660156 C 185.800781 37.335938 188.300781 37.078125 190.804688 36.886719 C 193.308594 36.691406 195.816406 36.5625 198.328125 36.5 C 200.839844 36.4375 203.351562 36.4375 205.863281 36.507812 C 208.375 36.574219 210.882812 36.707031 213.386719 36.902344 C 215.894531 37.101562 218.390625 37.363281 220.882812 37.6875 C 223.375 38.015625 225.855469 38.40625 228.324219 38.863281 C 230.796875 39.316406 233.253906 39.835938 235.695312 40.417969 C 238.140625 41.003906 240.566406 41.648438 242.976562 42.355469 C 245.386719 43.066406 247.777344 43.835938 250.148438 44.667969 C 252.519531 45.5 254.863281 46.394531 257.1875 47.347656 C 259.511719 48.304688 261.808594 49.316406 264.082031 50.390625 C 266.351562 51.464844 268.59375 52.597656 270.804688 53.785156 C 273.019531 54.976562 275.199219 56.222656 277.34375 57.527344 C 279.492188 58.828125 281.605469 60.1875 283.679688 61.597656 C 285.757812 63.011719 287.796875 64.476562 289.796875 65.992188 C 291.796875 67.511719 293.757812 69.082031 295.675781 70.699219 C 297.597656 72.320312 299.472656 73.988281 301.304688 75.707031 C 303.136719 77.421875 304.921875 79.1875 306.664062 80.996094 C 308.40625 82.804688 310.097656 84.660156 311.742188 86.554688 C 313.386719 88.453125 314.980469 90.394531 316.523438 92.371094 C 318.066406 94.351562 319.558594 96.371094 320.996094 98.429688 C 322.4375 100.488281 323.820312 102.582031 325.152344 104.710938 C 326.480469 106.839844 327.753906 109 328.972656 111.195312 C 330.1875 113.390625 331.347656 115.617188 332.449219 117.871094 C 333.550781 120.128906 334.59375 122.410156 335.578125 124.71875 C 336.5625 127.03125 337.484375 129.363281 338.347656 131.71875 C 339.207031 134.078125 340.007812 136.457031 340.746094 138.855469 C 341.484375 141.253906 342.160156 143.667969 342.773438 146.105469 C 343.386719 148.539062 343.933594 150.984375 344.421875 153.449219 C 344.90625 155.910156 345.328125 158.382812 345.683594 160.867188 C 346.039062 163.351562 346.332031 165.84375 346.558594 168.34375 C 346.789062 170.84375 346.949219 173.347656 347.046875 175.855469 C 347.144531 178.363281 347.175781 180.871094 347.144531 183.378906 C 347.109375 185.890625 347.011719 188.394531 346.847656 190.902344 C 346.6875 193.40625 346.457031 195.902344 346.164062 198.394531 C 345.871094 200.886719 345.511719 203.371094 345.089844 205.847656 C 344.667969 208.320312 344.183594 210.78125 343.632812 213.230469 C 343.082031 215.679688 342.46875 218.113281 341.792969 220.527344 C 341.113281 222.945312 340.375 225.34375 339.574219 227.722656 C 338.773438 230.101562 337.910156 232.457031 336.988281 234.789062 C 336.0625 237.125 335.078125 239.433594 334.035156 241.714844 C 332.992188 244 331.890625 246.253906 330.726562 248.476562 C 329.566406 250.703125 328.347656 252.898438 327.074219 255.058594 C 325.800781 257.222656 324.46875 259.351562 323.082031 261.445312 C 321.699219 263.539062 320.257812 265.59375 318.765625 267.613281 C 317.273438 269.632812 315.730469 271.609375 314.132812 273.550781 C 312.539062 275.488281 310.894531 277.382812 309.199219 279.238281 C 307.507812 281.089844 305.765625 282.898438 303.976562 284.664062 C 302.191406 286.425781 300.359375 288.140625 298.480469 289.808594 C 296.605469 291.480469 294.683594 293.097656 292.722656 294.664062 C 290.761719 296.234375 288.761719 297.75 286.722656 299.214844 C 284.679688 300.679688 282.605469 302.09375 280.492188 303.449219 C 278.378906 304.808594 276.230469 306.109375 274.050781 307.355469 C 271.867188 308.601562 269.65625 309.789062 267.414062 310.917969 C 265.171875 312.050781 262.902344 313.125 260.601562 314.136719 C 258.304688 315.148438 255.980469 316.101562 253.632812 316.996094 C 251.285156 317.890625 248.914062 318.71875 246.523438 319.492188 C 244.132812 320.261719 241.722656 320.96875 239.292969 321.613281 C 236.867188 322.257812 234.421875 322.839844 231.964844 323.359375 C 229.507812 323.875 227.035156 324.332031 224.554688 324.722656 C 222.074219 325.109375 219.582031 325.4375 217.082031 325.699219 C 214.585938 325.960938 212.082031 326.15625 209.570312 326.285156 C 207.0625 326.417969 204.550781 326.484375 202.039062 326.484375 Z M 60.460938 231.605469 L 62.03125 232.578125 C 63.382812 233.3125 64.65625 234.160156 65.851562 235.121094 L 67.277344 236.316406 C 68.882812 237.738281 70.355469 239.285156 71.695312 240.957031 C 72.226562 241.664062 72.886719 242.214844 73.679688 242.609375 C 74.46875 243.003906 75.304688 243.203125 76.191406 243.203125 C 77.085938 243.199219 77.933594 243 78.738281 242.601562 C 79.53125 242.199219 80.207031 241.652344 80.761719 240.957031 C 82.132812 239.058594 83.707031 237.339844 85.480469 235.8125 C 87.253906 234.28125 89.183594 232.976562 91.265625 231.894531 C 93.347656 230.816406 95.527344 229.996094 97.800781 229.425781 C 100.078125 228.859375 102.386719 228.5625 104.730469 228.535156 C 105.816406 228.597656 106.894531 228.710938 107.96875 228.878906 C 109.042969 229.046875 110.105469 229.265625 111.160156 229.539062 C 112.210938 229.808594 113.246094 230.128906 114.269531 230.5 C 115.289062 230.875 116.289062 231.292969 117.269531 231.765625 C 118.25 232.234375 119.203125 232.75 120.132812 233.3125 C 121.0625 233.875 121.960938 234.480469 122.832031 235.132812 C 123.703125 235.78125 124.539062 236.472656 125.34375 237.203125 C 126.144531 237.9375 126.910156 238.703125 127.636719 239.511719 C 128.363281 240.316406 129.050781 241.15625 129.695312 242.03125 C 130.34375 242.902344 130.945312 243.804688 131.5 244.738281 C 132.058594 245.671875 132.570312 246.628906 133.03125 247.609375 C 133.496094 248.589844 133.910156 249.59375 134.277344 250.613281 C 134.644531 251.636719 134.960938 252.671875 135.222656 253.726562 C 135.488281 254.78125 135.703125 255.84375 135.863281 256.917969 C 136.023438 257.988281 136.132812 259.070312 136.1875 260.152344 C 136.242188 261.238281 136.246094 262.320312 136.195312 263.40625 C 136.242188 264.328125 136.242188 265.25 136.195312 266.175781 C 135.910156 269.546875 135.234375 272.839844 134.171875 276.050781 C 134.171875 276.949219 133.496094 277.921875 133.199219 278.894531 C 129.566406 288.582031 124.246094 297.238281 117.242188 304.859375 C 111.445312 311.078125 105.121094 316.703125 98.269531 321.734375 C 91.417969 326.765625 84.160156 331.117188 76.492188 334.789062 C 37.835938 315.410156 24.054688 292.363281 18.808594 276.277344 C 17.640625 273.082031 16.945312 269.789062 16.710938 266.398438 C 16.710938 264.753906 16.710938 263.855469 16.710938 263.703125 C 16.652344 262.617188 16.648438 261.53125 16.699219 260.441406 C 16.746094 259.355469 16.847656 258.269531 17.003906 257.191406 C 17.15625 256.113281 17.363281 255.046875 17.621094 253.988281 C 17.882812 252.933594 18.191406 251.890625 18.554688 250.863281 C 18.914062 249.835938 19.324219 248.828125 19.785156 247.839844 C 20.246094 246.851562 20.753906 245.890625 21.308594 244.953125 C 21.863281 244.015625 22.460938 243.105469 23.105469 242.226562 C 23.75 241.347656 24.433594 240.503906 25.160156 239.691406 C 25.886719 238.878906 26.648438 238.105469 27.453125 237.367188 C 28.253906 236.628906 29.089844 235.933594 29.960938 235.277344 C 30.832031 234.621094 31.730469 234.011719 32.664062 233.441406 C 33.59375 232.875 34.550781 232.355469 35.53125 231.878906 C 36.511719 231.40625 37.515625 230.980469 38.539062 230.605469 C 39.558594 230.230469 40.597656 229.902344 41.65625 229.628906 C 42.710938 229.355469 43.773438 229.132812 44.851562 228.960938 C 45.929688 228.792969 47.011719 228.675781 48.097656 228.609375 C 52.445312 228.6875 56.5625 229.683594 60.460938 231.605469 Z M 60.460938 231.605469 " fill-opacity="1" fill-rule="nonzero"/></g></svg>