<svg xmlns="http://www.w3.org/2000/svg" xmlns:xlink="http://www.w3.org/1999/xlink" width="500" zoomAndPan="magnify" viewBox="0 0 375 374.999991" height="500" preserveAspectRatio="xMidYMid meet" version="1.0"><path fill="#76d276" d="M 187.5 0 C 184.429688 0 181.363281 0.0742188 178.300781 0.226562 C 175.234375 0.375 172.175781 0.601562 169.121094 0.902344 C 166.066406 1.203125 163.023438 1.578125 159.988281 2.03125 C 156.953125 2.480469 153.929688 3.003906 150.921875 3.601562 C 147.910156 4.203125 144.917969 4.875 141.941406 5.617188 C 138.964844 6.363281 136.007812 7.183594 133.070312 8.074219 C 130.136719 8.964844 127.222656 9.925781 124.332031 10.960938 C 121.445312 11.996094 118.582031 13.097656 115.746094 14.273438 C 112.910156 15.445312 110.105469 16.691406 107.332031 18.003906 C 104.558594 19.3125 101.820312 20.691406 99.113281 22.140625 C 96.40625 23.585938 93.738281 25.097656 91.105469 26.675781 C 88.472656 28.253906 85.882812 29.894531 83.332031 31.597656 C 80.777344 33.304688 78.269531 35.070312 75.804688 36.898438 C 73.339844 38.726562 70.921875 40.613281 68.550781 42.558594 C 66.179688 44.507812 63.855469 46.511719 61.582031 48.570312 C 59.308594 50.632812 57.085938 52.746094 54.917969 54.917969 C 52.746094 57.085938 50.632812 59.308594 48.570312 61.582031 C 46.511719 63.855469 44.507812 66.179688 42.558594 68.550781 C 40.613281 70.921875 38.726562 73.339844 36.898438 75.804688 C 35.070312 78.269531 33.304688 80.777344 31.597656 83.332031 C 29.894531 85.882812 28.253906 88.472656 26.675781 91.105469 C 25.097656 93.738281 23.585938 96.40625 22.140625 99.113281 C 20.691406 101.820312 19.3125 104.558594 18.003906 107.332031 C 16.691406 110.105469 15.445312 112.910156 14.273438 115.746094 C 13.097656 118.582031 11.996094 121.445312 10.960938 124.332031 C 9.925781 127.222656 8.964844 130.136719 8.074219 133.070312 C 7.183594 136.007812 6.363281 138.964844 5.621094 141.941406 C 4.875 144.917969 4.203125 147.910156 3.601562 150.921875 C 3.003906 153.929688 2.480469 156.953125 2.03125 159.988281 C 1.578125 163.023438 1.203125 166.066406 0.902344 169.121094 C 0.601562 172.175781 0.375 175.234375 0.226562 178.300781 C 0.0742188 181.363281 0 184.429688 0 187.5 C 0 190.570312 0.0742188 193.636719 0.226562 196.699219 C 0.375 199.765625 0.601562 202.824219 0.902344 205.878906 C 1.203125 208.933594 1.578125 211.976562 2.03125 215.011719 C 2.480469 218.046875 3.003906 221.070312 3.601562 224.078125 C 4.203125 227.089844 4.875 230.082031 5.621094 233.058594 C 6.363281 236.035156 7.183594 238.992188 8.074219 241.929688 C 8.964844 244.863281 9.925781 247.777344 10.960938 250.667969 C 11.996094 253.554688 13.097656 256.417969 14.273438 259.253906 C 15.445312 262.089844 16.691406 264.894531 18.003906 267.667969 C 19.3125 270.441406 20.691406 273.179688 22.140625 275.886719 C 23.585938 278.59375 25.097656 281.261719 26.675781 283.894531 C 28.253906 286.527344 29.894531 289.117188 31.597656 291.667969 C 33.304688 294.222656 35.070312 296.730469 36.898438 299.195312 C 38.726562 301.660156 40.613281 304.078125 42.558594 306.449219 C 44.507812 308.820312 46.511719 311.144531 48.570312 313.417969 C 50.632812 315.691406 52.746094 317.914062 54.917969 320.082031 C 57.085938 322.253906 59.308594 324.367188 61.582031 326.429688 C 63.855469 328.488281 66.179688 330.492188 68.550781 332.441406 C 70.921875 334.386719 73.339844 336.273438 75.804688 338.101562 C 78.269531 339.929688 80.777344 341.695312 83.332031 343.402344 C 85.882812 345.105469 88.472656 346.746094 91.105469 348.324219 C 93.738281 349.902344 96.40625 351.414062 99.113281 352.859375 C 101.820312 354.308594 104.558594 355.6875 107.332031 356.996094 C 110.105469 358.308594 112.910156 359.554688 115.746094 360.726562 C 118.582031 361.902344 121.445312 363.003906 124.332031 364.039062 C 127.222656 365.074219 130.136719 366.035156 133.070312 366.925781 C 136.007812 367.816406 138.964844 368.636719 141.941406 369.378906 C 144.917969 370.125 147.910156 370.796875 150.921875 371.398438 C 153.929688 371.996094 156.953125 372.519531 159.988281 372.96875 C 163.023438 373.421875 166.066406 373.796875 169.121094 374.097656 C 172.175781 374.398438 175.234375 374.625 178.300781 374.773438 C 181.363281 374.925781 184.429688 375 187.5 375 C 190.570312 375 193.636719 374.925781 196.699219 374.773438 C 199.765625 374.625 202.824219 374.398438 205.878906 374.097656 C 208.933594 373.796875 211.976562 373.421875 215.011719 372.96875 C 218.046875 372.519531 221.070312 371.996094 224.078125 371.398438 C 227.089844 370.796875 230.082031 370.125 233.058594 369.378906 C 236.035156 368.636719 238.992188 367.816406 241.929688 366.925781 C 244.863281 366.035156 247.777344 365.074219 250.667969 364.039062 C 253.554688 363.003906 256.417969 361.902344 259.253906 360.726562 C 262.089844 359.554688 264.894531 358.308594 267.667969 356.996094 C 270.441406 355.6875 273.179688 354.308594 275.886719 352.859375 C 278.59375 351.414062 281.261719 349.902344 283.894531 348.324219 C 286.527344 346.746094 289.117188 345.105469 291.667969 343.402344 C 294.222656 341.695312 296.730469 339.929688 299.195312 338.101562 C 301.660156 336.273438 304.078125 334.386719 306.449219 332.4375 C 308.820312 330.492188 311.144531 328.488281 313.417969 326.429688 C 315.691406 324.367188 317.914062 322.253906 320.082031 320.082031 C 322.253906 317.914062 324.367188 315.691406 326.429688 313.417969 C 328.488281 311.144531 330.492188 308.820312 332.441406 306.449219 C 334.386719 304.078125 336.273438 301.660156 338.101562 299.195312 C 339.929688 296.730469 341.695312 294.222656 343.402344 291.667969 C 345.105469 289.117188 346.746094 286.527344 348.324219 283.894531 C 349.902344 281.261719 351.414062 278.59375 352.859375 275.886719 C 354.308594 273.179688 355.6875 270.441406 356.996094 267.667969 C 358.308594 264.894531 359.554688 262.089844 360.726562 259.253906 C 361.902344 256.417969 363.003906 253.554688 364.039062 250.667969 C 365.074219 247.777344 366.035156 244.863281 366.925781 241.929688 C 367.816406 238.992188 368.636719 236.035156 369.378906 233.058594 C 370.125 230.082031 370.796875 227.089844 371.398438 224.078125 C 371.996094 221.070312 372.519531 218.046875 372.96875 215.011719 C 373.421875 211.976562 373.796875 208.933594 374.097656 205.878906 C 374.398438 202.824219 374.625 199.765625 374.773438 196.699219 C 374.925781 193.636719 375 190.570312 375 187.5 C 375 184.429688 374.925781 181.363281 374.773438 178.300781 C 374.621094 175.234375 374.394531 172.175781 374.09375 169.121094 C 373.792969 166.070312 373.417969 163.023438 372.96875 159.988281 C 372.515625 156.953125 371.992188 153.933594 371.394531 150.921875 C 370.792969 147.914062 370.121094 144.917969 369.375 141.941406 C 368.628906 138.96875 367.8125 136.011719 366.921875 133.074219 C 366.03125 130.136719 365.066406 127.226562 364.035156 124.335938 C 363 121.445312 361.894531 118.585938 360.722656 115.75 C 359.546875 112.914062 358.304688 110.113281 356.992188 107.335938 C 355.679688 104.5625 354.300781 101.824219 352.851562 99.117188 C 351.40625 96.410156 349.894531 93.742188 348.316406 91.109375 C 346.738281 88.480469 345.097656 85.886719 343.394531 83.335938 C 341.6875 80.785156 339.921875 78.277344 338.09375 75.8125 C 336.265625 73.347656 334.378906 70.929688 332.433594 68.558594 C 330.484375 66.1875 328.480469 63.863281 326.421875 61.589844 C 324.359375 59.316406 322.246094 57.09375 320.074219 54.925781 C 317.90625 52.753906 315.683594 50.640625 313.410156 48.578125 C 311.136719 46.519531 308.8125 44.515625 306.441406 42.566406 C 304.070312 40.621094 301.652344 38.734375 299.1875 36.90625 C 296.722656 35.078125 294.214844 33.3125 291.664062 31.605469 C 289.113281 29.902344 286.519531 28.261719 283.890625 26.683594 C 281.257812 25.105469 278.589844 23.59375 275.882812 22.148438 C 273.175781 20.699219 270.4375 19.320312 267.664062 18.007812 C 264.886719 16.695312 262.085938 15.453125 259.25 14.277344 C 256.414062 13.105469 253.550781 12 250.664062 10.964844 C 247.773438 9.933594 244.863281 8.96875 241.925781 8.078125 C 238.988281 7.1875 236.03125 6.371094 233.058594 5.625 C 230.082031 4.878906 227.085938 4.207031 224.078125 3.605469 C 221.066406 3.007812 218.046875 2.484375 215.011719 2.03125 C 211.976562 1.582031 208.929688 1.207031 205.878906 0.90625 C 202.824219 0.605469 199.765625 0.378906 196.699219 0.226562 C 193.636719 0.0742188 190.570312 0 187.5 0 Z M 252.773438 184.921875 C 251.15625 184.929688 249.554688 184.78125 247.96875 184.46875 C 246.378906 184.160156 244.839844 183.695312 243.34375 183.074219 C 241.851562 182.457031 240.433594 181.695312 239.089844 180.792969 C 237.746094 179.890625 236.507812 178.863281 235.371094 177.714844 L 212.167969 154.570312 L 212.167969 280.019531 C 212.167969 280.828125 212.128906 281.632812 212.050781 282.4375 C 211.96875 283.242188 211.851562 284.039062 211.695312 284.832031 C 211.535156 285.625 211.339844 286.40625 211.105469 287.179688 C 210.871094 287.953125 210.597656 288.714844 210.289062 289.460938 C 209.980469 290.207031 209.636719 290.933594 209.253906 291.648438 C 208.875 292.359375 208.460938 293.050781 208.011719 293.722656 C 207.5625 294.394531 207.082031 295.042969 206.570312 295.667969 C 206.054688 296.292969 205.515625 296.890625 204.941406 297.460938 C 204.371094 298.035156 203.773438 298.574219 203.148438 299.089844 C 202.523438 299.601562 201.875 300.082031 201.203125 300.53125 C 200.53125 300.980469 199.839844 301.394531 199.128906 301.773438 C 198.414062 302.15625 197.6875 302.5 196.941406 302.808594 C 196.195312 303.117188 195.433594 303.390625 194.660156 303.625 C 193.886719 303.859375 193.105469 304.054688 192.3125 304.214844 C 191.519531 304.371094 190.722656 304.488281 189.917969 304.570312 C 189.113281 304.648438 188.308594 304.6875 187.5 304.6875 C 186.691406 304.6875 185.886719 304.648438 185.082031 304.570312 C 184.277344 304.488281 183.480469 304.371094 182.6875 304.214844 C 181.894531 304.054688 181.113281 303.859375 180.339844 303.625 C 179.566406 303.390625 178.804688 303.117188 178.058594 302.808594 C 177.3125 302.5 176.585938 302.15625 175.871094 301.773438 C 175.160156 301.394531 174.46875 300.980469 173.796875 300.53125 C 173.125 300.082031 172.476562 299.601562 171.851562 299.089844 C 171.226562 298.574219 170.628906 298.035156 170.058594 297.460938 C 169.484375 296.890625 168.945312 296.292969 168.429688 295.667969 C 167.917969 295.042969 167.4375 294.394531 166.988281 293.722656 C 166.539062 293.050781 166.125 292.359375 165.746094 291.648438 C 165.363281 290.933594 165.019531 290.207031 164.710938 289.460938 C 164.402344 288.714844 164.128906 287.953125 163.894531 287.179688 C 163.660156 286.40625 163.464844 285.625 163.304688 284.832031 C 163.148438 284.039062 163.03125 283.242188 162.949219 282.4375 C 162.871094 281.632812 162.832031 280.828125 162.832031 280.019531 L 162.832031 154.570312 L 139.628906 177.714844 C 138.492188 178.863281 137.253906 179.890625 135.910156 180.792969 C 134.566406 181.695312 133.148438 182.457031 131.65625 183.074219 C 130.160156 183.695312 128.621094 184.160156 127.03125 184.46875 C 125.445312 184.78125 123.84375 184.929688 122.226562 184.921875 C 121.019531 184.910156 119.820312 184.8125 118.628906 184.625 C 117.433594 184.4375 116.261719 184.164062 115.109375 183.808594 C 113.957031 183.449219 112.835938 183.007812 111.75 182.488281 C 110.660156 181.964844 109.617188 181.367188 108.617188 180.691406 C 107.613281 180.015625 106.667969 179.273438 105.777344 178.460938 C 104.882812 177.644531 104.058594 176.773438 103.292969 175.835938 C 102.527344 174.902344 101.835938 173.917969 101.21875 172.882812 C 100.597656 171.847656 100.054688 170.773438 99.59375 169.65625 C 99.128906 168.542969 98.75 167.398438 98.457031 166.230469 C 98.160156 165.058594 97.949219 163.875 97.828125 162.671875 C 97.707031 161.472656 97.671875 160.269531 97.726562 159.0625 C 97.78125 157.855469 97.921875 156.660156 98.148438 155.476562 C 98.378906 154.292969 98.691406 153.128906 99.089844 151.992188 C 99.488281 150.851562 99.96875 149.746094 100.53125 148.679688 C 101.089844 147.609375 101.726562 146.585938 102.433594 145.609375 C 103.144531 144.632812 103.921875 143.714844 104.765625 142.851562 L 170.039062 77.578125 C 170.609375 77.003906 171.207031 76.460938 171.832031 75.945312 C 172.457031 75.429688 173.105469 74.945312 173.777344 74.492188 C 174.449219 74.042969 175.140625 73.625 175.851562 73.242188 C 176.566406 72.859375 177.296875 72.511719 178.042969 72.203125 C 178.792969 71.890625 179.550781 71.617188 180.328125 71.382812 C 181.101562 71.144531 181.882812 70.949219 182.679688 70.789062 C 183.472656 70.628906 184.273438 70.511719 185.078125 70.433594 C 185.882812 70.351562 186.691406 70.3125 187.5 70.3125 C 188.308594 70.3125 189.117188 70.351562 189.921875 70.433594 C 190.726562 70.511719 191.527344 70.628906 192.320312 70.789062 C 193.117188 70.949219 193.898438 71.144531 194.671875 71.382812 C 195.449219 71.617188 196.207031 71.890625 196.957031 72.203125 C 197.703125 72.511719 198.433594 72.859375 199.148438 73.242188 C 199.859375 73.625 200.550781 74.042969 201.222656 74.492188 C 201.894531 74.945312 202.542969 75.429688 203.167969 75.945312 C 203.792969 76.460938 204.390625 77.003906 204.960938 77.578125 L 270.234375 142.851562 C 271.078125 143.714844 271.855469 144.632812 272.566406 145.609375 C 273.273438 146.585938 273.910156 147.609375 274.46875 148.679688 C 275.03125 149.746094 275.511719 150.851562 275.910156 151.992188 C 276.308594 153.128906 276.621094 154.292969 276.851562 155.476562 C 277.078125 156.660156 277.21875 157.859375 277.273438 159.0625 C 277.328125 160.269531 277.292969 161.472656 277.171875 162.671875 C 277.050781 163.875 276.839844 165.058594 276.542969 166.230469 C 276.25 167.398438 275.871094 168.542969 275.40625 169.65625 C 274.945312 170.773438 274.402344 171.847656 273.78125 172.882812 C 273.164062 173.917969 272.472656 174.902344 271.707031 175.835938 C 270.941406 176.773438 270.117188 177.644531 269.222656 178.460938 C 268.332031 179.273438 267.386719 180.015625 266.382812 180.691406 C 265.382812 181.367188 264.339844 181.964844 263.25 182.488281 C 262.164062 183.007812 261.042969 183.449219 259.890625 183.808594 C 258.738281 184.164062 257.566406 184.4375 256.371094 184.625 C 255.179688 184.8125 253.980469 184.910156 252.773438 184.921875 Z M 252.773438 184.921875 " fill-opacity="1" fill-rule="nonzero"/></svg>