<svg xmlns="http://www.w3.org/2000/svg" xmlns:xlink="http://www.w3.org/1999/xlink" width="500" zoomAndPan="magnify" viewBox="0 0 375 374.999991" height="500" preserveAspectRatio="xMidYMid meet" version="1.0"><defs><clipPath id="ba0f23e0e1"><path d="M 0 0 L 375 0 L 375 374.25 L 0 374.25 Z M 0 0 " clip-rule="nonzero"/></clipPath></defs><path fill="#ffffff" d="M 277.4375 215.050781 C 276.710938 214.699219 249.4375 201.265625 244.59375 199.519531 C 242.613281 198.808594 240.496094 198.113281 238.242188 198.113281 C 234.558594 198.113281 231.464844 199.949219 229.054688 203.558594 C 226.332031 207.609375 218.085938 217.25 215.539062 220.132812 C 215.207031 220.515625 214.75 220.96875 214.476562 220.96875 C 214.234375 220.96875 210.015625 219.230469 208.734375 218.671875 C 179.484375 205.960938 157.28125 175.386719 154.234375 170.230469 C 153.796875 169.492188 153.78125 169.152344 153.777344 169.152344 C 153.882812 168.761719 154.867188 167.773438 155.375 167.265625 C 156.859375 165.796875 158.46875 163.855469 160.027344 161.980469 C 160.765625 161.09375 161.5 160.207031 162.230469 159.367188 C 164.488281 156.734375 165.492188 154.695312 166.65625 152.332031 L 167.269531 151.101562 C 170.117188 145.441406 167.6875 140.667969 166.898438 139.128906 C 166.253906 137.835938 154.742188 110.03125 153.515625 107.109375 C 150.570312 100.0625 146.679688 96.78125 141.277344 96.78125 C 140.773438 96.78125 141.277344 96.78125 139.171875 96.867188 C 136.609375 96.976562 122.664062 98.8125 116.496094 102.707031 C 109.953125 106.828125 98.890625 119.980469 98.890625 143.105469 C 98.890625 163.917969 112.09375 183.570312 117.761719 191.042969 C 117.902344 191.230469 118.160156 191.613281 118.535156 192.164062 C 140.242188 223.882812 167.304688 247.386719 194.734375 258.351562 C 221.144531 268.902344 233.648438 270.121094 240.757812 270.121094 C 243.746094 270.121094 246.136719 269.890625 248.246094 269.679688 L 249.585938 269.554688 C 258.710938 268.742188 278.757812 258.351562 283.320312 245.671875 C 286.910156 235.683594 287.859375 224.773438 285.46875 220.8125 C 283.832031 218.121094 281.011719 216.765625 277.4375 215.050781 " fill-opacity="1" fill-rule="nonzero"/><g clip-path="url(#ba0f23e0e1)"><path fill="#ffffff" d="M 191 326.855469 C 162.414062 326.855469 134.726562 318.59375 110.925781 302.96875 C 110.121094 302.441406 109.195312 302.171875 108.257812 302.171875 C 107.765625 302.171875 107.269531 302.246094 106.785156 302.402344 L 58.164062 317.863281 L 73.863281 271.535156 C 74.371094 270.035156 74.117188 268.382812 73.179688 267.101562 C 55.054688 242.324219 45.472656 213.046875 45.472656 182.4375 C 45.472656 102.796875 110.757812 38.003906 191 38.003906 C 271.234375 38.003906 336.511719 102.796875 336.511719 182.4375 C 336.511719 262.070312 271.238281 326.855469 191 326.855469 Z M 191 0 C 89.695312 0 7.273438 81.839844 7.273438 182.4375 C 7.273438 214.976562 15.976562 246.824219 32.464844 274.695312 L 0.910156 367.828125 C 0.320312 369.566406 0.757812 371.484375 2.042969 372.792969 C 2.96875 373.738281 4.222656 374.25 5.507812 374.25 C 6.003906 374.25 6.496094 374.175781 6.980469 374.023438 L 104.042969 343.164062 C 130.601562 357.359375 160.621094 364.855469 191.003906 364.855469 C 292.300781 364.855469 374.714844 283.023438 374.714844 182.4375 C 374.714844 81.839844 292.300781 0 191 0 " fill-opacity="1" fill-rule="nonzero"/></g></svg>