<svg xmlns="http://www.w3.org/2000/svg" xmlns:xlink="http://www.w3.org/1999/xlink" width="500" zoomAndPan="magnify" viewBox="0 0 375 374.999991" height="500" preserveAspectRatio="xMidYMid meet" version="1.0"><defs><clipPath id="dd35089f43"><path d="M 16 32 L 368.578125 32 L 368.578125 354 L 16 354 Z M 16 32 " clip-rule="nonzero"/></clipPath></defs><g clip-path="url(#dd35089f43)"><path fill="#ffffff" d="M 337.691406 63.53125 C 336.515625 62.351562 335.308594 61.203125 334.074219 60.078125 C 332.839844 58.957031 331.582031 57.867188 330.296875 56.804688 C 329.011719 55.742188 327.703125 54.710938 326.367188 53.710938 C 325.035156 52.710938 323.675781 51.742188 322.296875 50.808594 C 320.917969 49.871094 319.515625 48.96875 318.09375 48.101562 C 316.671875 47.230469 315.226562 46.394531 313.765625 45.59375 C 312.304688 44.792969 310.824219 44.027344 309.324219 43.296875 C 307.824219 42.566406 306.3125 41.875 304.78125 41.214844 C 303.246094 40.554688 301.703125 39.933594 300.140625 39.347656 C 298.578125 38.765625 297.003906 38.214844 295.417969 37.707031 C 293.832031 37.195312 292.234375 36.722656 290.625 36.289062 C 289.015625 35.851562 287.394531 35.457031 285.765625 35.097656 C 284.140625 34.738281 282.503906 34.421875 280.859375 34.140625 C 279.214844 33.859375 277.566406 33.617188 275.914062 33.417969 C 274.257812 33.214844 272.597656 33.050781 270.9375 32.929688 C 269.273438 32.804688 267.609375 32.722656 265.941406 32.675781 C 264.277344 32.632812 262.609375 32.628906 260.941406 32.660156 C 259.277344 32.695312 257.609375 32.769531 255.949219 32.882812 C 254.285156 32.996094 252.625 33.148438 250.96875 33.34375 C 249.3125 33.535156 247.660156 33.765625 246.015625 34.035156 C 244.371094 34.308594 242.734375 34.617188 241.105469 34.964844 C 239.472656 35.3125 237.851562 35.699219 236.242188 36.125 C 234.628906 36.550781 233.027344 37.011719 231.4375 37.515625 C 229.847656 38.015625 228.269531 38.554688 226.707031 39.128906 C 225.140625 39.707031 223.589844 40.320312 222.054688 40.96875 C 220.519531 41.617188 219 42.304688 217.496094 43.023438 C 215.996094 43.746094 214.511719 44.503906 213.042969 45.292969 C 211.574219 46.085938 210.128906 46.914062 208.699219 47.773438 C 207.273438 48.632812 205.867188 49.527344 204.480469 50.457031 C 203.09375 51.382812 201.730469 52.34375 200.390625 53.335938 C 199.050781 54.328125 197.738281 55.351562 196.445312 56.40625 C 195.152344 57.457031 193.886719 58.542969 192.648438 59.65625 C 191.386719 58.523438 190.097656 57.421875 188.78125 56.347656 C 187.46875 55.277344 186.128906 54.238281 184.761719 53.230469 C 183.398438 52.222656 182.007812 51.25 180.597656 50.308594 C 179.183594 49.367188 177.75 48.460938 176.292969 47.589844 C 174.839844 46.722656 173.363281 45.886719 171.867188 45.085938 C 170.371094 44.285156 168.855469 43.523438 167.320312 42.796875 C 165.789062 42.070312 164.238281 41.378906 162.671875 40.726562 C 161.105469 40.078125 159.527344 39.460938 157.929688 38.886719 C 156.332031 38.3125 154.726562 37.773438 153.101562 37.277344 C 151.480469 36.78125 149.847656 36.320312 148.203125 35.902344 C 146.558594 35.484375 144.90625 35.105469 143.246094 34.765625 C 141.582031 34.425781 139.914062 34.125 138.238281 33.867188 C 136.558594 33.609375 134.878906 33.390625 133.191406 33.214844 C 131.503906 33.035156 129.8125 32.898438 128.121094 32.804688 C 126.425781 32.707031 124.730469 32.652344 123.035156 32.636719 C 121.335938 32.625 119.640625 32.652344 117.945312 32.71875 C 116.25 32.785156 114.558594 32.894531 112.867188 33.046875 C 111.179688 33.195312 109.492188 33.386719 107.8125 33.617188 C 106.132812 33.847656 104.457031 34.117188 102.789062 34.429688 C 101.121094 34.742188 99.464844 35.09375 97.8125 35.484375 C 96.160156 35.875 94.523438 36.308594 92.890625 36.777344 C 91.261719 37.25 89.644531 37.757812 88.039062 38.308594 C 86.433594 38.859375 84.84375 39.445312 83.265625 40.070312 C 81.6875 40.695312 80.128906 41.359375 78.582031 42.0625 C 77.039062 42.761719 75.511719 43.5 74.003906 44.273438 C 72.492188 45.050781 71.003906 45.859375 69.53125 46.707031 C 68.0625 47.554688 66.613281 48.4375 65.1875 49.351562 C 63.757812 50.269531 62.355469 51.21875 60.972656 52.203125 C 59.589844 53.1875 58.234375 54.207031 56.902344 55.257812 C 55.566406 56.304688 54.261719 57.386719 52.980469 58.5 C 51.699219 59.613281 50.449219 60.757812 49.222656 61.929688 C 47.996094 63.105469 46.800781 64.308594 45.632812 65.539062 C 44.46875 66.769531 43.328125 68.027344 42.222656 69.3125 C 41.117188 70.601562 40.042969 71.914062 39 73.25 C 37.957031 74.589844 36.945312 75.949219 35.96875 77.335938 C 34.992188 78.722656 34.046875 80.132812 33.136719 81.566406 C 32.230469 83 31.355469 84.453125 30.515625 85.925781 C 29.675781 87.402344 28.871094 88.894531 28.105469 90.410156 C 27.339844 91.921875 26.609375 93.453125 25.914062 95 C 25.222656 96.550781 24.566406 98.113281 23.949219 99.695312 C 23.332031 101.273438 22.75 102.867188 22.210938 104.476562 C 21.671875 106.085938 21.167969 107.707031 20.707031 109.335938 C 20.242188 110.96875 19.820312 112.613281 19.4375 114.265625 C 19.054688 115.917969 18.710938 117.578125 18.40625 119.25 C 18.105469 120.917969 17.839844 122.59375 17.617188 124.277344 C 17.398438 125.957031 17.214844 127.644531 17.074219 129.335938 C 16.933594 131.027344 16.832031 132.71875 16.773438 134.414062 C 16.714844 136.109375 16.695312 137.804688 16.71875 139.503906 C 16.742188 141.199219 16.804688 142.894531 16.910156 144.585938 C 17.015625 146.28125 17.160156 147.972656 17.34375 149.65625 C 17.53125 151.34375 17.757812 153.023438 18.023438 154.699219 C 18.292969 156.375 18.597656 158.042969 18.945312 159.703125 C 19.292969 161.367188 19.683594 163.015625 20.109375 164.660156 C 20.535156 166.300781 21.003906 167.929688 21.507812 169.550781 C 22.015625 171.171875 22.558594 172.777344 23.144531 174.371094 C 23.726562 175.960938 24.347656 177.539062 25.007812 179.105469 C 25.667969 180.667969 26.367188 182.214844 27.101562 183.742188 C 27.835938 185.273438 28.605469 186.785156 29.414062 188.277344 C 30.21875 189.769531 31.0625 191.238281 31.941406 192.691406 C 32.820312 194.144531 33.730469 195.574219 34.679688 196.980469 C 35.625 198.386719 36.605469 199.773438 37.621094 201.132812 C 38.636719 202.492188 39.679688 203.828125 40.761719 205.136719 C 41.839844 206.445312 42.949219 207.730469 44.089844 208.984375 C 45.230469 210.242188 46.398438 211.46875 47.597656 212.667969 L 185.011719 350.097656 C 185.511719 350.601562 186.058594 351.046875 186.648438 351.441406 C 187.234375 351.835938 187.859375 352.167969 188.511719 352.441406 C 189.167969 352.710938 189.84375 352.917969 190.539062 353.054688 C 191.234375 353.195312 191.933594 353.265625 192.644531 353.265625 C 193.351562 353.265625 194.054688 353.195312 194.75 353.058594 C 195.445312 352.917969 196.121094 352.714844 196.773438 352.441406 C 197.429688 352.171875 198.050781 351.839844 198.640625 351.445312 C 199.230469 351.050781 199.773438 350.601562 200.277344 350.101562 L 337.691406 212.667969 C 338.914062 211.449219 340.101562 210.199219 341.261719 208.921875 C 342.421875 207.640625 343.546875 206.335938 344.640625 205 C 345.738281 203.667969 346.796875 202.308594 347.828125 200.921875 C 348.855469 199.535156 349.847656 198.125 350.808594 196.6875 C 351.765625 195.253906 352.6875 193.796875 353.574219 192.316406 C 354.464844 190.835938 355.3125 189.335938 356.128906 187.8125 C 356.941406 186.289062 357.714844 184.75 358.453125 183.1875 C 359.191406 181.628906 359.890625 180.050781 360.550781 178.457031 C 361.210938 176.863281 361.832031 175.253906 362.414062 173.628906 C 362.996094 172.003906 363.539062 170.363281 364.039062 168.710938 C 364.539062 167.0625 365 165.398438 365.417969 163.722656 C 365.839844 162.050781 366.214844 160.367188 366.550781 158.675781 C 366.890625 156.980469 367.183594 155.28125 367.4375 153.574219 C 367.691406 151.867188 367.902344 150.15625 368.070312 148.4375 C 368.242188 146.71875 368.367188 145 368.453125 143.273438 C 368.535156 141.550781 368.578125 139.824219 368.578125 138.101562 C 368.578125 136.375 368.535156 134.648438 368.453125 132.925781 C 368.367188 131.203125 368.242188 129.480469 368.070312 127.761719 C 367.902344 126.046875 367.691406 124.332031 367.4375 122.625 C 367.183594 120.917969 366.890625 119.21875 366.550781 117.527344 C 366.214844 115.832031 365.839844 114.148438 365.417969 112.476562 C 365 110.800781 364.539062 109.140625 364.039062 107.488281 C 363.539062 105.835938 362.996094 104.199219 362.414062 102.574219 C 361.832031 100.949219 361.210938 99.335938 360.550781 97.742188 C 359.890625 96.148438 359.191406 94.570312 358.453125 93.011719 C 357.714844 91.449219 356.941406 89.910156 356.128906 88.386719 C 355.3125 86.867188 354.464844 85.363281 353.574219 83.882812 C 352.6875 82.402344 351.765625 80.945312 350.808594 79.511719 C 349.847656 78.078125 348.855469 76.664062 347.828125 75.28125 C 346.796875 73.894531 345.738281 72.53125 344.640625 71.199219 C 343.546875 69.863281 342.421875 68.558594 341.261719 67.28125 C 340.101562 66 338.914062 64.75 337.691406 63.53125 Z M 329.535156 204.511719 L 192.644531 341.417969 L 55.753906 204.511719 C 54.667969 203.425781 53.605469 202.3125 52.574219 201.171875 C 51.539062 200.035156 50.535156 198.871094 49.5625 197.683594 C 48.585938 196.496094 47.636719 195.285156 46.722656 194.050781 C 45.804688 192.8125 44.921875 191.558594 44.066406 190.28125 C 43.210938 189 42.386719 187.703125 41.597656 186.386719 C 40.804688 185.066406 40.046875 183.730469 39.324219 182.375 C 38.597656 181.019531 37.90625 179.644531 37.25 178.253906 C 36.589844 176.867188 35.96875 175.460938 35.378906 174.039062 C 34.789062 172.621094 34.234375 171.1875 33.71875 169.738281 C 33.199219 168.292969 32.714844 166.832031 32.269531 165.359375 C 31.824219 163.890625 31.414062 162.40625 31.039062 160.917969 C 30.664062 159.425781 30.328125 157.925781 30.027344 156.417969 C 29.726562 154.910156 29.464844 153.394531 29.238281 151.875 C 29.011719 150.355469 28.824219 148.828125 28.671875 147.296875 C 28.519531 145.769531 28.40625 144.234375 28.332031 142.699219 C 28.253906 141.164062 28.21875 139.628906 28.214844 138.089844 C 28.214844 136.550781 28.253906 135.015625 28.328125 133.480469 C 28.402344 131.945312 28.515625 130.410156 28.667969 128.878906 C 28.816406 127.351562 29.003906 125.824219 29.230469 124.304688 C 29.457031 122.78125 29.71875 121.269531 30.019531 119.761719 C 30.316406 118.253906 30.652344 116.753906 31.027344 115.261719 C 31.402344 113.769531 31.8125 112.289062 32.257812 110.816406 C 32.703125 109.34375 33.183594 107.886719 33.703125 106.4375 C 34.21875 104.988281 34.773438 103.554688 35.363281 102.136719 C 35.949219 100.714844 36.574219 99.308594 37.230469 97.917969 C 37.886719 96.527344 38.578125 95.15625 39.300781 93.800781 C 40.027344 92.445312 40.785156 91.105469 41.574219 89.789062 C 42.363281 88.46875 43.1875 87.171875 44.042969 85.890625 C 44.894531 84.613281 45.78125 83.355469 46.695312 82.121094 C 47.613281 80.886719 48.558594 79.675781 49.53125 78.484375 C 50.507812 77.296875 51.511719 76.132812 52.542969 74.992188 C 53.578125 73.855469 54.636719 72.742188 55.722656 71.65625 C 56.8125 70.566406 57.925781 69.507812 59.0625 68.476562 C 60.203125 67.441406 61.367188 66.4375 62.554688 65.460938 C 63.742188 64.488281 64.957031 63.542969 66.191406 62.625 C 67.425781 61.710938 68.683594 60.824219 69.960938 59.972656 C 71.238281 59.117188 72.539062 58.292969 73.855469 57.503906 C 75.175781 56.714844 76.511719 55.957031 77.867188 55.230469 C 79.222656 54.507812 80.597656 53.816406 81.988281 53.160156 C 83.375 52.5 84.78125 51.878906 86.203125 51.289062 C 87.621094 50.703125 89.058594 50.148438 90.503906 49.632812 C 91.953125 49.113281 93.410156 48.632812 94.882812 48.1875 C 96.355469 47.738281 97.835938 47.332031 99.328125 46.957031 C 100.820312 46.582031 102.316406 46.246094 103.828125 45.945312 C 105.335938 45.648438 106.847656 45.386719 108.371094 45.160156 C 109.890625 44.933594 111.414062 44.746094 112.945312 44.597656 C 114.476562 44.445312 116.007812 44.332031 117.542969 44.257812 C 119.078125 44.183594 120.617188 44.144531 122.152344 44.144531 C 123.691406 44.148438 125.226562 44.183594 126.761719 44.261719 C 128.300781 44.335938 129.832031 44.449219 131.363281 44.601562 C 132.890625 44.753906 134.417969 44.941406 135.9375 45.167969 C 137.457031 45.394531 138.972656 45.65625 140.480469 45.957031 C 141.988281 46.257812 143.488281 46.59375 144.980469 46.96875 C 146.46875 47.34375 147.953125 47.753906 149.421875 48.199219 C 150.894531 48.648438 152.351562 49.128906 153.800781 49.648438 C 155.246094 50.167969 156.679688 50.71875 158.101562 51.308594 C 159.523438 51.898438 160.925781 52.519531 162.316406 53.179688 C 163.707031 53.835938 165.078125 54.527344 166.433594 55.253906 C 167.789062 55.980469 169.125 56.738281 170.445312 57.527344 C 171.761719 58.320312 173.0625 59.144531 174.339844 59.996094 C 175.617188 60.851562 176.875 61.738281 178.109375 62.65625 C 179.34375 63.570312 180.554688 64.515625 181.742188 65.492188 C 182.929688 66.46875 184.09375 67.472656 185.230469 68.507812 C 186.371094 69.539062 187.484375 70.601562 188.570312 71.6875 C 188.84375 71.945312 189.136719 72.175781 189.453125 72.378906 C 189.769531 72.582031 190.105469 72.75 190.453125 72.890625 C 190.800781 73.027344 191.160156 73.132812 191.53125 73.203125 C 191.898438 73.273438 192.273438 73.3125 192.648438 73.3125 C 193.023438 73.3125 193.394531 73.273438 193.765625 73.203125 C 194.132812 73.132812 194.492188 73.027344 194.84375 72.890625 C 195.191406 72.75 195.523438 72.582031 195.839844 72.378906 C 196.160156 72.175781 196.453125 71.945312 196.726562 71.6875 C 197.8125 70.601562 198.925781 69.542969 200.066406 68.507812 C 201.203125 67.476562 202.367188 66.472656 203.554688 65.5 C 204.742188 64.523438 205.953125 63.578125 207.1875 62.664062 C 208.421875 61.746094 209.679688 60.863281 210.957031 60.007812 C 212.234375 59.15625 213.535156 58.332031 214.851562 57.542969 C 216.171875 56.75 217.507812 55.996094 218.863281 55.269531 C 220.21875 54.546875 221.589844 53.855469 222.980469 53.199219 C 224.371094 52.539062 225.773438 51.917969 227.195312 51.328125 C 228.613281 50.742188 230.046875 50.1875 231.496094 49.671875 C 232.941406 49.152344 234.398438 48.671875 235.871094 48.222656 C 237.34375 47.777344 238.824219 47.367188 240.3125 46.996094 C 241.804688 46.621094 243.304688 46.285156 244.8125 45.984375 C 246.316406 45.683594 247.832031 45.421875 249.351562 45.195312 C 250.871094 44.972656 252.398438 44.785156 253.925781 44.632812 C 255.457031 44.480469 256.988281 44.367188 258.523438 44.292969 C 260.058594 44.21875 261.59375 44.179688 263.132812 44.179688 C 264.667969 44.179688 266.203125 44.21875 267.738281 44.292969 C 269.273438 44.371094 270.808594 44.480469 272.335938 44.632812 C 273.867188 44.785156 275.390625 44.972656 276.910156 45.195312 C 278.433594 45.421875 279.945312 45.683594 281.453125 45.984375 C 282.960938 46.285156 284.460938 46.621094 285.949219 46.996094 C 287.441406 47.367188 288.921875 47.777344 290.394531 48.226562 C 291.863281 48.671875 293.324219 49.152344 294.769531 49.671875 C 296.21875 50.1875 297.652344 50.742188 299.070312 51.332031 C 300.492188 51.917969 301.894531 52.542969 303.285156 53.199219 C 304.671875 53.855469 306.046875 54.546875 307.402344 55.269531 C 308.757812 55.996094 310.09375 56.753906 311.410156 57.542969 C 312.730469 58.332031 314.027344 59.15625 315.304688 60.007812 C 316.585938 60.863281 317.839844 61.75 319.074219 62.664062 C 320.308594 63.578125 321.519531 64.523438 322.707031 65.5 C 323.898438 66.476562 325.058594 67.480469 326.199219 68.511719 C 327.335938 69.542969 328.449219 70.601562 329.539062 71.691406 C 330.625 72.777344 331.683594 73.890625 332.714844 75.027344 C 333.746094 76.167969 334.75 77.332031 335.726562 78.519531 C 336.703125 79.707031 337.644531 80.917969 338.5625 82.152344 C 339.476562 83.386719 340.363281 84.644531 341.214844 85.921875 C 342.070312 87.199219 342.890625 88.5 343.683594 89.816406 C 344.472656 91.136719 345.230469 92.472656 345.953125 93.828125 C 346.679688 95.183594 347.371094 96.554688 348.027344 97.945312 C 348.683594 99.335938 349.304688 100.738281 349.894531 102.160156 C 350.480469 103.578125 351.035156 105.011719 351.554688 106.460938 C 352.070312 107.90625 352.554688 109.367188 353 110.835938 C 353.445312 112.308594 353.855469 113.789062 354.226562 115.28125 C 354.601562 116.769531 354.9375 118.269531 355.238281 119.777344 C 355.539062 121.285156 355.800781 122.800781 356.027344 124.320312 C 356.25 125.839844 356.441406 127.367188 356.589844 128.894531 C 356.742188 130.425781 356.855469 131.957031 356.929688 133.492188 C 357.003906 135.027344 357.042969 136.5625 357.042969 138.101562 C 357.042969 139.636719 357.003906 141.175781 356.929688 142.710938 C 356.855469 144.246094 356.742188 145.777344 356.589844 147.304688 C 356.441406 148.835938 356.25 150.359375 356.027344 151.882812 C 355.800781 153.402344 355.539062 154.917969 355.238281 156.421875 C 354.9375 157.929688 354.601562 159.429688 354.226562 160.921875 C 353.855469 162.414062 353.445312 163.894531 353 165.363281 C 352.550781 166.835938 352.070312 168.292969 351.550781 169.742188 C 351.035156 171.1875 350.480469 172.621094 349.894531 174.042969 C 349.304688 175.460938 348.683594 176.867188 348.027344 178.257812 C 347.367188 179.644531 346.675781 181.019531 345.953125 182.375 C 345.226562 183.730469 344.472656 185.066406 343.679688 186.386719 C 342.890625 187.703125 342.070312 189 341.214844 190.28125 C 340.359375 191.558594 339.476562 192.8125 338.5625 194.046875 C 337.644531 195.28125 336.699219 196.496094 335.726562 197.683594 C 334.75 198.871094 333.746094 200.035156 332.714844 201.171875 C 331.683594 202.3125 330.621094 203.425781 329.535156 204.511719 Z M 300.144531 145.675781 C 301.527344 145.644531 302.96875 145.601562 304.46875 145.53125 C 304.753906 145.515625 305.027344 145.449219 305.289062 145.328125 C 305.546875 145.207031 305.773438 145.039062 305.964844 144.828125 C 306.160156 144.613281 306.304688 144.375 306.402344 144.101562 C 306.5 143.832031 306.539062 143.554688 306.527344 143.269531 C 306.523438 142.980469 306.460938 142.703125 306.34375 142.4375 C 306.222656 142.171875 306.058594 141.945312 305.84375 141.75 C 305.628906 141.554688 305.382812 141.410156 305.109375 141.316406 C 304.835938 141.222656 304.554688 141.1875 304.265625 141.210938 C 302.714844 141.28125 301.25 141.320312 299.828125 141.351562 L 321.292969 119.882812 C 321.960938 119.214844 322.558594 118.488281 323.082031 117.699219 C 323.605469 116.914062 324.050781 116.085938 324.410156 115.210938 C 324.773438 114.339844 325.042969 113.4375 325.226562 112.511719 C 325.414062 111.585938 325.503906 110.648438 325.503906 109.703125 C 325.503906 108.757812 325.414062 107.824219 325.226562 106.894531 C 325.042969 105.96875 324.773438 105.070312 324.410156 104.195312 C 324.050781 103.324219 323.605469 102.492188 323.082031 101.707031 C 322.558594 100.921875 321.960938 100.191406 321.292969 99.523438 L 300.867188 79.09375 C 300.195312 78.425781 299.46875 77.832031 298.683594 77.304688 C 297.898438 76.78125 297.066406 76.339844 296.195312 75.980469 C 295.320312 75.617188 294.421875 75.34375 293.492188 75.160156 C 292.566406 74.976562 291.628906 74.886719 290.683594 74.886719 C 289.742188 74.886719 288.804688 74.976562 287.878906 75.160156 C 286.949219 75.34375 286.050781 75.617188 285.175781 75.980469 C 284.304688 76.339844 283.472656 76.78125 282.6875 77.304688 C 281.902344 77.832031 281.175781 78.425781 280.503906 79.09375 L 258.269531 101.335938 C 257.953125 98.90625 257.554688 96.160156 257.015625 93.144531 C 256.96875 92.859375 256.867188 92.59375 256.710938 92.351562 C 256.558594 92.105469 256.363281 91.898438 256.128906 91.734375 C 255.890625 91.566406 255.632812 91.453125 255.351562 91.390625 C 255.070312 91.328125 254.785156 91.320312 254.5 91.371094 C 254.21875 91.421875 253.953125 91.527344 253.710938 91.683594 C 253.46875 91.839844 253.265625 92.035156 253.101562 92.273438 C 252.9375 92.511719 252.824219 92.773438 252.765625 93.054688 C 252.707031 93.335938 252.703125 93.621094 252.757812 93.90625 C 253.085938 95.746094 253.355469 97.476562 253.59375 99.125 L 233.5625 79.09375 C 232.894531 78.425781 232.167969 77.828125 231.382812 77.304688 C 230.597656 76.78125 229.765625 76.335938 228.894531 75.976562 C 228.019531 75.613281 227.121094 75.34375 226.191406 75.15625 C 225.265625 74.972656 224.332031 74.882812 223.386719 74.882812 C 222.441406 74.882812 221.503906 74.972656 220.578125 75.15625 C 219.652344 75.34375 218.75 75.613281 217.878906 75.976562 C 217.003906 76.335938 216.175781 76.78125 215.386719 77.304688 C 214.601562 77.828125 213.875 78.425781 213.207031 79.09375 L 192.777344 99.523438 C 192.109375 100.191406 191.515625 100.921875 190.992188 101.707031 C 190.464844 102.492188 190.023438 103.324219 189.660156 104.195312 C 189.300781 105.070312 189.027344 105.96875 188.84375 106.894531 C 188.660156 107.824219 188.566406 108.757812 188.566406 109.703125 C 188.566406 110.648438 188.660156 111.585938 188.84375 112.511719 C 189.027344 113.4375 189.300781 114.339844 189.660156 115.210938 C 190.023438 116.085938 190.464844 116.914062 190.992188 117.699219 C 191.515625 118.488281 192.109375 119.214844 192.777344 119.882812 L 211.664062 138.773438 C 210.425781 138.527344 209.148438 138.269531 207.816406 137.996094 C 207.535156 137.9375 207.253906 137.9375 206.972656 137.992188 C 206.691406 138.046875 206.433594 138.152344 206.195312 138.308594 C 205.953125 138.46875 205.753906 138.664062 205.59375 138.902344 C 205.433594 139.140625 205.324219 139.398438 205.265625 139.679688 C 205.210938 139.960938 205.207031 140.238281 205.261719 140.519531 C 205.316406 140.800781 205.421875 141.0625 205.578125 141.300781 C 205.734375 141.539062 205.929688 141.742188 206.167969 141.902344 C 206.402344 142.0625 206.664062 142.171875 206.941406 142.230469 C 210.167969 142.894531 213.109375 143.472656 215.652344 143.953125 L 192.773438 166.828125 C 192.109375 167.496094 191.511719 168.226562 190.988281 169.011719 C 190.464844 169.796875 190.023438 170.628906 189.664062 171.503906 C 189.300781 172.375 189.027344 173.277344 188.84375 174.203125 C 188.660156 175.128906 188.570312 176.066406 188.570312 177.011719 C 188.570312 177.957031 188.660156 178.890625 188.847656 179.816406 C 189.03125 180.746094 189.300781 181.644531 189.664062 182.519531 C 190.023438 183.390625 190.46875 184.222656 190.992188 185.007812 C 191.515625 185.792969 192.109375 186.523438 192.777344 187.191406 L 213.207031 207.621094 C 213.875 208.289062 214.601562 208.886719 215.390625 209.410156 C 216.175781 209.933594 217.003906 210.375 217.878906 210.738281 C 218.75 211.097656 219.652344 211.371094 220.578125 211.554688 C 221.503906 211.742188 222.441406 211.832031 223.386719 211.832031 C 224.332031 211.832031 225.265625 211.742188 226.191406 211.554688 C 227.121094 211.371094 228.019531 211.097656 228.894531 210.738281 C 229.765625 210.375 230.597656 209.933594 231.382812 209.410156 C 232.167969 208.886719 232.894531 208.289062 233.566406 207.621094 L 253.710938 187.472656 C 253.480469 189.136719 253.21875 190.898438 252.894531 192.832031 C 252.847656 193.113281 252.855469 193.394531 252.917969 193.675781 C 252.984375 193.953125 253.097656 194.210938 253.265625 194.445312 C 253.429688 194.679688 253.632812 194.871094 253.878906 195.023438 C 254.121094 195.175781 254.382812 195.277344 254.667969 195.324219 C 254.785156 195.34375 254.90625 195.355469 255.03125 195.355469 C 255.285156 195.355469 255.53125 195.308594 255.773438 195.222656 C 256.011719 195.132812 256.230469 195.007812 256.425781 194.84375 C 256.617188 194.675781 256.78125 194.484375 256.90625 194.261719 C 257.03125 194.039062 257.117188 193.804688 257.160156 193.550781 C 257.675781 190.5 258.050781 187.808594 258.339844 185.457031 L 280.503906 207.625 C 281.175781 208.292969 281.902344 208.886719 282.6875 209.410156 C 283.476562 209.9375 284.304688 210.378906 285.179688 210.738281 C 286.050781 211.101562 286.953125 211.371094 287.878906 211.558594 C 288.804688 211.742188 289.742188 211.832031 290.6875 211.832031 C 291.632812 211.832031 292.566406 211.738281 293.496094 211.554688 C 294.421875 211.371094 295.320312 211.097656 296.195312 210.738281 C 297.066406 210.375 297.898438 209.933594 298.683594 209.410156 C 299.46875 208.886719 300.199219 208.289062 300.867188 207.621094 L 321.296875 187.191406 C 321.964844 186.523438 322.558594 185.792969 323.082031 185.007812 C 323.609375 184.222656 324.050781 183.390625 324.410156 182.515625 C 324.769531 181.644531 325.042969 180.742188 325.226562 179.816406 C 325.410156 178.890625 325.503906 177.953125 325.503906 177.007812 C 325.503906 176.0625 325.410156 175.128906 325.226562 174.203125 C 325.042969 173.273438 324.769531 172.375 324.410156 171.5 C 324.046875 170.628906 323.605469 169.796875 323.082031 169.011719 C 322.558594 168.226562 321.960938 167.496094 321.292969 166.828125 Z M 288.660156 87.253906 C 288.929688 86.984375 289.238281 86.777344 289.589844 86.632812 C 289.941406 86.488281 290.304688 86.414062 290.683594 86.414062 C 291.066406 86.414062 291.429688 86.484375 291.78125 86.632812 C 292.132812 86.777344 292.441406 86.984375 292.710938 87.25 L 313.136719 107.679688 C 313.40625 107.949219 313.613281 108.257812 313.757812 108.609375 C 313.902344 108.960938 313.972656 109.324219 313.972656 109.703125 C 313.972656 110.082031 313.902344 110.449219 313.757812 110.796875 C 313.613281 111.148438 313.40625 111.457031 313.136719 111.726562 L 289.667969 135.199219 L 265.195312 110.722656 Z M 225.40625 199.464844 C 225.140625 199.730469 224.828125 199.9375 224.480469 200.082031 C 224.128906 200.226562 223.765625 200.300781 223.386719 200.300781 C 223.007812 200.300781 222.640625 200.226562 222.292969 200.082031 C 221.941406 199.9375 221.632812 199.730469 221.363281 199.464844 L 200.9375 179.035156 C 200.667969 178.765625 200.464844 178.457031 200.320312 178.105469 C 200.171875 177.753906 200.101562 177.390625 200.101562 177.011719 C 200.101562 176.632812 200.171875 176.265625 200.316406 175.914062 C 200.460938 175.566406 200.667969 175.253906 200.933594 174.984375 L 224.40625 151.515625 L 248.878906 175.992188 Z M 313.136719 179.035156 L 292.710938 199.464844 C 292.441406 199.730469 292.132812 199.9375 291.78125 200.082031 C 291.429688 200.226562 291.066406 200.300781 290.6875 200.300781 C 290.304688 200.300781 289.941406 200.226562 289.589844 200.082031 C 289.238281 199.9375 288.929688 199.730469 288.660156 199.464844 L 200.933594 111.726562 C 200.667969 111.457031 200.460938 111.148438 200.316406 110.796875 C 200.171875 110.449219 200.097656 110.082031 200.097656 109.703125 C 200.097656 109.324219 200.171875 108.960938 200.316406 108.609375 C 200.460938 108.257812 200.667969 107.949219 200.933594 107.679688 L 221.363281 87.25 C 221.632812 86.984375 221.941406 86.777344 222.292969 86.632812 C 222.640625 86.488281 223.007812 86.414062 223.386719 86.414062 C 223.765625 86.414062 224.128906 86.488281 224.480469 86.632812 C 224.828125 86.777344 225.140625 86.984375 225.40625 87.25 L 313.136719 174.984375 C 313.402344 175.253906 313.609375 175.5625 313.753906 175.914062 C 313.898438 176.265625 313.972656 176.628906 313.972656 177.007812 C 313.972656 177.386719 313.898438 177.753906 313.753906 178.105469 C 313.609375 178.453125 313.40625 178.765625 313.136719 179.035156 Z M 253.464844 210.664062 C 252.132812 215.703125 250.59375 220.667969 248.886719 225.425781 C 248.792969 225.699219 248.648438 225.945312 248.457031 226.160156 C 248.261719 226.375 248.035156 226.546875 247.773438 226.671875 C 247.515625 226.796875 247.238281 226.863281 246.949219 226.878906 C 246.660156 226.894531 246.382812 226.851562 246.109375 226.753906 C 245.835938 226.65625 245.59375 226.511719 245.382812 226.316406 C 245.167969 226.121094 245 225.890625 244.878906 225.628906 C 244.757812 225.367188 244.691406 225.089844 244.679688 224.800781 C 244.667969 224.511719 244.714844 224.234375 244.8125 223.960938 C 246.480469 219.324219 247.984375 214.476562 249.28125 209.558594 C 249.355469 209.285156 249.484375 209.03125 249.65625 208.804688 C 249.832031 208.578125 250.042969 208.394531 250.289062 208.25 C 250.535156 208.105469 250.800781 208.015625 251.085938 207.972656 C 251.367188 207.933594 251.648438 207.949219 251.925781 208.019531 C 252.203125 208.09375 252.457031 208.214844 252.683594 208.390625 C 252.914062 208.5625 253.097656 208.773438 253.242188 209.023438 C 253.386719 209.269531 253.480469 209.535156 253.519531 209.820312 C 253.554688 210.105469 253.539062 210.386719 253.464844 210.664062 Z M 244.894531 67.707031 C 244.769531 67.445312 244.699219 67.175781 244.679688 66.886719 C 244.664062 66.601562 244.699219 66.320312 244.792969 66.050781 C 244.886719 65.777344 245.03125 65.535156 245.222656 65.320312 C 245.410156 65.105469 245.636719 64.9375 245.894531 64.808594 C 246.152344 64.683594 246.425781 64.613281 246.710938 64.597656 C 247 64.578125 247.277344 64.617188 247.546875 64.710938 C 247.820312 64.804688 248.0625 64.949219 248.277344 65.136719 C 248.492188 65.328125 248.664062 65.554688 248.789062 65.8125 C 250.375 69.128906 251.726562 72.539062 252.839844 76.039062 C 252.929688 76.3125 252.960938 76.59375 252.9375 76.878906 C 252.914062 77.164062 252.839844 77.433594 252.707031 77.691406 C 252.578125 77.945312 252.402344 78.167969 252.1875 78.355469 C 251.96875 78.539062 251.722656 78.679688 251.449219 78.765625 C 251.230469 78.835938 251.011719 78.871094 250.78125 78.871094 C 250.3125 78.871094 249.890625 78.734375 249.507812 78.457031 C 249.128906 78.183594 248.867188 77.820312 248.722656 77.375 C 247.671875 74.0625 246.394531 70.839844 244.894531 67.707031 Z M 189.957031 138.410156 C 188.613281 138.074219 187.28125 137.734375 185.972656 137.386719 C 185.695312 137.3125 185.445312 137.1875 185.21875 137.015625 C 184.992188 136.839844 184.808594 136.628906 184.664062 136.382812 C 184.519531 136.132812 184.429688 135.867188 184.394531 135.585938 C 184.355469 135.300781 184.375 135.019531 184.445312 134.746094 C 184.519531 134.46875 184.644531 134.214844 184.816406 133.988281 C 184.992188 133.761719 185.199219 133.574219 185.449219 133.433594 C 185.695312 133.289062 185.960938 133.195312 186.242188 133.15625 C 186.527344 133.117188 186.804688 133.136719 187.082031 133.207031 C 188.367188 133.546875 189.675781 133.882812 191.003906 134.210938 C 191.257812 134.277344 191.496094 134.382812 191.710938 134.535156 C 191.929688 134.683594 192.113281 134.867188 192.261719 135.085938 C 192.410156 135.304688 192.515625 135.539062 192.578125 135.796875 C 192.640625 136.054688 192.65625 136.3125 192.625 136.574219 C 192.59375 136.835938 192.515625 137.082031 192.394531 137.316406 C 192.269531 137.550781 192.109375 137.753906 191.914062 137.929688 C 191.714844 138.105469 191.492188 138.238281 191.246094 138.332031 C 191 138.425781 190.746094 138.472656 190.480469 138.472656 C 190.304688 138.476562 190.128906 138.453125 189.957031 138.410156 Z M 328.101562 142.203125 C 326.132812 142.75 324.074219 143.222656 321.964844 143.621094 C 321.683594 143.675781 321.402344 143.671875 321.121094 143.613281 C 320.839844 143.554688 320.582031 143.441406 320.34375 143.28125 C 320.105469 143.117188 319.910156 142.917969 319.753906 142.675781 C 319.597656 142.4375 319.492188 142.175781 319.4375 141.894531 C 319.386719 141.613281 319.386719 141.332031 319.445312 141.050781 C 319.503906 140.769531 319.617188 140.511719 319.777344 140.273438 C 319.941406 140.035156 320.140625 139.839844 320.382812 139.683594 C 320.621094 139.527344 320.882812 139.421875 321.164062 139.367188 C 323.144531 138.996094 325.085938 138.554688 326.9375 138.03125 C 327.210938 137.957031 327.492188 137.933594 327.777344 137.96875 C 328.0625 138.003906 328.328125 138.089844 328.578125 138.230469 C 328.828125 138.371094 329.042969 138.554688 329.21875 138.78125 C 329.398438 139.007812 329.523438 139.257812 329.601562 139.535156 C 329.679688 139.808594 329.699219 140.089844 329.664062 140.375 C 329.632812 140.660156 329.542969 140.929688 329.402344 141.179688 C 329.261719 141.429688 329.078125 141.640625 328.855469 141.820312 C 328.628906 141.996094 328.378906 142.125 328.101562 142.203125 Z M 328.101562 142.203125 " fill-opacity="1" fill-rule="nonzero"/></g></svg>