<svg xmlns="http://www.w3.org/2000/svg" xmlns:xlink="http://www.w3.org/1999/xlink" width="500" zoomAndPan="magnify" viewBox="0 0 375 374.999991" height="500" preserveAspectRatio="xMidYMid meet" version="1.0"><defs><g/><clipPath id="93ea9b7538"><path d="M 80.335938 30.308594 L 295 30.308594 L 295 245 L 80.335938 245 Z M 80.335938 30.308594 " clip-rule="nonzero"/></clipPath><clipPath id="6410259976"><path d="M 86.585938 173.453125 C 86 171.890625 85.511719 170.230469 85.023438 168.667969 L 218.792969 34.898438 C 220.355469 35.386719 222.015625 35.875 223.578125 36.460938 Z M 203.171875 31.480469 C 201.316406 31.1875 199.363281 30.992188 197.507812 30.796875 L 80.824219 147.480469 C 81.019531 149.335938 81.214844 151.289062 81.507812 153.144531 Z M 248.671875 49.445312 C 247.402344 48.566406 246.136719 47.6875 244.867188 46.90625 L 96.9375 194.835938 C 97.71875 196.105469 98.597656 197.375 99.472656 198.644531 Z M 232.5625 40.171875 C 231.097656 39.488281 229.632812 38.804688 228.167969 38.21875 L 88.34375 178.042969 C 88.929688 179.507812 89.613281 180.972656 90.296875 182.4375 Z M 240.863281 44.566406 C 239.496094 43.785156 238.128906 43.003906 236.761719 42.320312 L 92.25 186.832031 C 92.933594 188.199219 93.714844 189.566406 94.496094 190.933594 Z M 144.488281 39.292969 C 139.898438 41.34375 135.40625 43.6875 131.109375 46.324219 L 96.351562 81.082031 C 93.617188 85.378906 91.273438 89.871094 89.320312 94.460938 Z M 185.207031 30.308594 L 80.335938 135.175781 C 80.335938 137.324219 80.335938 139.375 80.433594 141.523438 L 191.453125 30.40625 C 189.402344 30.308594 187.257812 30.308594 185.207031 30.308594 Z M 294.664062 136.933594 L 186.964844 244.636719 C 189.109375 244.636719 191.355469 244.636719 193.503906 244.441406 L 294.46875 143.476562 C 294.566406 141.328125 294.664062 139.082031 294.664062 136.933594 Z M 255.898438 55.011719 C 254.726562 54.035156 253.554688 53.058594 252.382812 52.179688 L 102.207031 202.355469 C 103.085938 203.527344 104.0625 204.699219 105.039062 205.871094 Z M 178.46875 30.699219 C 176.027344 30.894531 173.683594 31.1875 171.242188 31.578125 L 81.605469 121.214844 C 81.214844 123.65625 80.921875 126 80.726562 128.441406 Z M 163.429688 33.042969 C 160.5 33.726562 157.574219 34.507812 154.644531 35.484375 L 85.414062 104.617188 C 84.535156 107.542969 83.65625 110.375 82.972656 113.402344 Z M 213.71875 33.53125 C 211.960938 33.140625 210.300781 32.75 208.542969 32.359375 L 82.386719 158.515625 C 82.777344 160.273438 83.167969 161.933594 83.558594 163.691406 Z M 292.710938 157.929688 C 293.199219 155.390625 293.589844 152.949219 293.882812 150.410156 L 200.4375 243.855469 C 202.976562 243.5625 205.515625 243.171875 207.957031 242.683594 Z M 294.46875 130.785156 C 294.371094 128.832031 294.175781 126.878906 293.980469 124.925781 L 174.953125 243.855469 C 176.90625 244.050781 178.859375 244.246094 180.8125 244.34375 Z M 293.101562 119.359375 C 292.808594 117.601562 292.417969 115.84375 292.027344 114.085938 L 164.015625 242 C 165.773438 242.390625 167.53125 242.78125 169.289062 243.074219 Z M 262.539062 60.96875 C 261.464844 59.894531 260.390625 58.917969 259.316406 57.84375 L 107.96875 209.191406 C 108.945312 210.265625 110.019531 211.339844 111.09375 212.414062 Z M 268.789062 207.238281 C 274.160156 200.988281 278.648438 194.347656 282.359375 187.320312 L 237.347656 232.332031 C 244.378906 228.621094 251.015625 224.128906 257.265625 218.761719 Z M 290.757812 109.007812 C 290.269531 107.347656 289.78125 105.785156 289.292969 104.128906 L 154.15625 239.265625 C 155.816406 239.753906 157.378906 240.242188 159.035156 240.730469 Z M 287.632812 175.796875 C 288.804688 172.671875 289.878906 169.546875 290.757812 166.324219 L 216.355469 240.730469 C 219.574219 239.851562 222.699219 238.777344 225.824219 237.605469 Z M 274.355469 74.640625 C 273.476562 73.46875 272.597656 72.199219 271.621094 71.027344 L 121.054688 221.496094 C 122.226562 222.472656 123.496094 223.347656 124.667969 224.226562 Z M 287.632812 99.441406 C 287.046875 97.878906 286.460938 96.414062 285.777344 94.949219 L 144.878906 235.847656 C 146.34375 236.53125 147.90625 237.117188 149.371094 237.703125 Z M 268.691406 67.511719 C 267.714844 66.339844 266.738281 65.265625 265.664062 64.191406 L 114.21875 215.636719 C 115.292969 216.710938 116.464844 217.6875 117.539062 218.664062 Z M 279.332031 82.253906 C 278.550781 80.984375 277.769531 79.617188 276.890625 78.347656 L 128.378906 226.863281 C 129.644531 227.742188 130.914062 228.523438 132.28125 229.304688 Z M 283.824219 90.554688 C 283.140625 89.1875 282.457031 87.722656 281.675781 86.355469 L 136.382812 231.648438 C 137.75 232.429688 139.117188 233.113281 140.582031 233.796875 Z M 283.824219 90.554688 " clip-rule="nonzero"/></clipPath><clipPath id="90b021bcae"><path d="M 169 44.074219 L 199 44.074219 L 199 65 L 169 65 Z M 169 44.074219 " clip-rule="nonzero"/></clipPath><clipPath id="dee42a2ace"><path d="M 107.6875 54 L 267.167969 54 L 267.167969 273.574219 L 107.6875 273.574219 Z M 107.6875 54 " clip-rule="nonzero"/></clipPath></defs><g clip-path="url(#93ea9b7538)"><g clip-path="url(#6410259976)"><path fill="#676a6e" d="M 80.335938 30.308594 L 295.152344 30.308594 L 295.152344 245.125 L 80.335938 245.125 Z M 80.335938 30.308594 " fill-opacity="1" fill-rule="nonzero"/></g></g><g clip-path="url(#90b021bcae)"><path fill="#000000" d="M 198.1875 57.984375 C 196.347656 60.035156 194.25 61.847656 191.957031 63.371094 C 190.9375 64.046875 189.824219 64.6875 188.605469 64.753906 C 187.21875 64.832031 185.90625 64.164062 184.695312 63.484375 C 181.355469 61.617188 177.390625 60.515625 174.328125 58.21875 C 173.234375 57.398438 169.988281 56.457031 169.394531 55.222656 C 172.71875 48.234375 172.808594 47.589844 171.355469 44.667969 C 171.660156 44.074219 172.519531 44.765625 172.707031 45.40625 C 173.367188 47.640625 188.292969 48.871094 187.429688 51.03125 C 188.214844 53.742188 185.707031 55.34375 188.496094 57.019531 C 192.589844 58.722656 187.597656 60.355469 185.792969 61.613281 C 185 62.164062 187.289062 64.144531 188.253906 64.121094 C 189.234375 64.105469 190.109375 63.527344 190.921875 62.96875 C 193.339844 61.308594 195.765625 59.648438 198.1875 57.984375 " fill-opacity="1" fill-rule="nonzero"/></g><path fill="#000000" d="M 197.558594 146.300781 C 197.574219 146.851562 197.582031 147.414062 197.40625 147.933594 C 197.175781 148.613281 196.652344 149.144531 196.144531 149.652344 C 191.660156 154.136719 187.175781 158.625 182.6875 163.113281 C 181.878906 163.921875 180.628906 164.03125 179.484375 164.09375 C 177.28125 164.214844 175.078125 164.328125 172.871094 164.433594 C 172.925781 163.632812 173.953125 163.359375 174.757812 163.304688 C 176.835938 163.15625 178.917969 163.007812 181 162.863281 C 182.191406 162.777344 183.015625 161.464844 182.933594 160.269531 C 182.851562 159.078125 182.101562 158.035156 181.253906 157.1875 C 186.640625 151.839844 192.023438 146.496094 197.40625 141.148438 C 197.46875 142.867188 197.515625 144.585938 197.558594 146.300781 " fill-opacity="1" fill-rule="nonzero"/><path fill="#000000" d="M 198.203125 71.03125 C 200.511719 72.738281 202.820312 74.449219 205.128906 76.15625 C 201.914062 75.476562 195.300781 73.421875 193.496094 70.675781 C 193.839844 70.558594 195.039062 64.761719 198.203125 71.03125 " fill-opacity="1" fill-rule="nonzero"/><path fill="#000000" d="M 184.152344 65.648438 C 184.984375 65.261719 185.953125 65.371094 186.863281 65.492188 C 189.824219 65.875 193.058594 66.398438 195.039062 68.636719 C 194.234375 69.183594 193.089844 68.917969 192.253906 69.414062 C 191.695312 69.742188 191.355469 70.421875 191.425781 71.074219 C 189.695312 68.519531 187.089844 66.574219 184.152344 65.648438 " fill-opacity="1" fill-rule="nonzero"/><path fill="#000000" d="M 197.382812 150.179688 C 197.542969 151.929688 197.664062 153.6875 197.746094 155.449219 C 197.769531 156 197.789062 156.574219 197.578125 157.085938 C 197.386719 157.558594 197.015625 157.929688 196.652344 158.292969 C 191.25 163.691406 185.847656 169.089844 180.441406 174.488281 C 177.824219 174.273438 175.140625 174.972656 172.957031 176.429688 C 172.402344 176.226562 172.921875 175.402344 173.457031 175.148438 C 174.808594 174.507812 176.226562 174.007812 177.679688 173.65625 C 178.578125 173.441406 179.507812 173.277344 180.320312 172.828125 C 181.132812 172.382812 181.824219 171.578125 181.839844 170.652344 C 181.859375 169.722656 180.960938 168.800781 180.066406 169.03125 C 178.1875 169.511719 176.3125 169.988281 174.4375 170.464844 C 173.839844 170.621094 172.855469 170.320312 173.171875 169.785156 C 175.445312 169.285156 177.714844 168.785156 179.988281 168.285156 C 180.5 168.167969 181.042969 168.042969 181.425781 167.679688 C 181.851562 167.273438 181.992188 166.65625 182.21875 166.105469 C 182.683594 164.976562 183.570312 164.074219 184.429688 163.207031 C 188.746094 158.863281 193.0625 154.523438 197.382812 150.179688 " fill-opacity="1" fill-rule="nonzero"/><path fill="#000000" d="M 152.238281 164.800781 C 152.730469 163.097656 153.894531 161.597656 155.425781 160.714844 C 155.792969 160.503906 156.320312 160.347656 156.59375 160.667969 C 154.878906 161.726562 153.386719 163.140625 152.238281 164.800781 " fill-opacity="1" fill-rule="nonzero"/><path fill="#000000" d="M 199.386719 169.875 C 199.382812 168.824219 200.382812 167.882812 201.429688 167.949219 C 200.886719 168.695312 200.339844 169.441406 199.792969 170.1875 C 199.65625 170.085938 199.523438 169.980469 199.386719 169.875 " fill-opacity="1" fill-rule="nonzero"/><path fill="#000000" d="M 184.882812 77.808594 C 184.808594 76.269531 184.449219 74.746094 183.820312 73.335938 C 184.738281 73.554688 185.507812 74.324219 185.726562 75.246094 C 185.945312 76.167969 185.605469 77.199219 184.882812 77.808594 " fill-opacity="1" fill-rule="nonzero"/><path fill="#000000" d="M 151.25 180.546875 C 151.164062 180.664062 150.992188 180.664062 150.847656 180.65625 C 150.21875 180.609375 149.59375 180.5625 148.960938 180.515625 C 148.503906 179.996094 148.457031 179.15625 148.859375 178.585938 C 149.5625 179.054688 150.269531 179.523438 150.976562 179.992188 C 151.167969 180.121094 151.390625 180.359375 151.25 180.546875 " fill-opacity="1" fill-rule="nonzero"/><path fill="#000000" d="M 199.628906 172.382812 C 202.699219 172.683594 205.765625 172.984375 208.835938 173.28125 C 209.132812 173.3125 209.453125 173.355469 209.65625 173.570312 C 209.859375 173.785156 209.8125 174.230469 209.519531 174.285156 C 206.753906 174.039062 203.992188 173.792969 201.226562 173.550781 C 200.480469 173.484375 199.492188 173.117188 199.628906 172.382812 " fill-opacity="1" fill-rule="nonzero"/><path fill="#000000" d="M 205.128906 161.007812 C 204.382812 161.375 201.15625 162.710938 200.414062 163.078125 C 200.300781 163.132812 196.976562 165.808594 196.851562 165.785156 C 196.417969 165.695312 198.351562 162.082031 198.726562 161.847656 C 199.652344 161.269531 203.640625 159.121094 204.699219 158.84375 C 205.003906 159.234375 205.566406 160.789062 205.128906 161.007812 " fill-opacity="1" fill-rule="nonzero"/><path fill="#000000" d="M 194.382812 104.976562 C 191.050781 108.304688 187.71875 111.628906 184.386719 114.953125 C 183.242188 116.09375 182.015625 117.4375 182.078125 119.054688 C 186.949219 114.753906 191.5 110.089844 195.679688 105.113281 C 197.40625 108.019531 196.871094 112.082031 194.453125 114.441406 C 190.804688 118 187.15625 121.5625 183.507812 125.117188 C 182.542969 126.0625 181.492188 127.363281 182 128.621094 C 186.921875 123.882812 191.746094 119.039062 196.460938 114.09375 C 197.8125 117.335938 196.992188 121.367188 194.480469 123.820312 C 190.746094 127.46875 187.011719 131.113281 183.277344 134.761719 C 182.464844 135.558594 181.578125 136.664062 182.023438 137.710938 C 187.117188 133.175781 191.976562 128.367188 196.566406 123.3125 C 198.089844 126.589844 197.230469 130.816406 194.546875 133.230469 C 190.410156 136.953125 186.410156 140.828125 182.5625 144.84375 C 181.910156 145.523438 181.226562 146.550781 181.773438 147.316406 C 186.929688 142.464844 191.96875 137.484375 196.882812 132.382812 C 198.378906 135.027344 197.5625 138.472656 195.816406 140.957031 C 194.070312 143.441406 191.539062 145.242188 189.242188 147.226562 C 186.015625 150.015625 183.171875 153.242188 180.8125 156.800781 C 180.488281 156.550781 180.46875 156.074219 180.480469 155.664062 C 180.878906 136.222656 181.28125 116.785156 181.679688 97.34375 C 181.839844 89.585938 182.347656 80.976562 187.882812 75.542969 C 185.222656 73.1875 180.417969 69.320312 171.871094 73.335938 C 172.796875 72.128906 182.199219 66.40625 183.691406 66.09375 C 185.601562 67.238281 187.535156 68.40625 189.066406 70.027344 C 190.597656 71.644531 191.699219 73.804688 191.5625 76.03125 C 191.207031 81.859375 183.167969 84.882812 182.761719 90.707031 C 186.246094 86.667969 189.628906 82.539062 192.898438 78.328125 C 194.113281 81.207031 195.148438 85.007812 192.8125 87.082031 C 188.605469 90.808594 184.964844 95.175781 182.050781 99.988281 C 181.972656 100.40625 182.695312 100.269531 182.976562 99.953125 C 186.78125 95.640625 190.589844 91.328125 194.394531 87.019531 C 195.980469 90.195312 195.300781 94.355469 192.78125 96.855469 C 188.761719 100.851562 184.992188 105.097656 181.503906 109.566406 C 181.492188 110.265625 182.628906 109.96875 183.101562 109.453125 C 187.164062 104.996094 191.234375 100.539062 195.296875 96.082031 C 196.023438 99.121094 196.59375 102.773438 194.382812 104.976562 " fill-opacity="1" fill-rule="nonzero"/><path fill="#000000" d="M 203.355469 166.175781 C 205.597656 166.3125 207.835938 166.445312 210.074219 166.578125 C 207.890625 165.910156 205.605469 165.824219 203.355469 166.175781 " fill-opacity="1" fill-rule="nonzero"/><g clip-path="url(#dee42a2ace)"><path fill="#000000" d="M 238.558594 154.261719 C 236.542969 155.542969 234.5625 156.875 232.605469 158.242188 C 232.941406 149.730469 234.101562 141.253906 236.066406 132.964844 C 237.820312 138.871094 239.761719 144.71875 241.890625 150.5 C 241.863281 150.921875 241.886719 151.328125 242.085938 151.699219 C 242.117188 151.757812 242.140625 151.820312 242.167969 151.878906 C 240.914062 152.691406 239.703125 153.53125 238.558594 154.261719 Z M 235.683594 189.113281 C 226.527344 193.800781 226.792969 188.347656 226.527344 186.832031 C 227.207031 186.96875 227.859375 187.234375 228.4375 187.609375 C 229.1875 188.09375 235.902344 188.25 235.683594 189.113281 Z M 230.03125 106.289062 C 227.824219 106.726562 225.621094 107.164062 223.414062 107.601562 C 223.113281 107.660156 222.785156 107.714844 222.507812 107.585938 C 222.285156 107.480469 222.132812 107.273438 222.007812 107.0625 C 221.179688 105.636719 221.511719 103.636719 222.761719 102.5625 C 223.347656 102.058594 224.117188 101.722656 224.46875 101.039062 C 224.828125 100.355469 224.265625 99.226562 223.550781 99.519531 C 222.679688 99.871094 223.289062 101.425781 222.5625 102.023438 C 222.253906 101.878906 222.140625 101.503906 222.058594 101.171875 C 221.875 100.429688 221.691406 99.652344 221.875 98.910156 C 222.128906 97.902344 223.023438 97.160156 224.003906 96.820312 C 224.980469 96.476562 226.035156 96.464844 227.074219 96.457031 C 227.722656 96.453125 228.414062 96.460938 228.949219 96.828125 C 229.390625 97.128906 229.648438 97.625 229.890625 98.101562 C 230.734375 99.769531 231.585938 101.4375 232.429688 103.105469 C 232.59375 103.425781 232.761719 103.761719 232.785156 104.121094 C 232.828125 104.761719 232.394531 105.359375 231.851562 105.699219 C 231.304688 106.035156 230.660156 106.164062 230.03125 106.289062 Z M 210.160156 196.066406 C 209.917969 194.929688 209.675781 193.792969 209.433594 192.65625 C 209.285156 191.957031 209.140625 191.179688 209.496094 190.554688 C 210.328125 192.613281 210.875 194.789062 211.113281 196.996094 C 210.652344 197.222656 210.269531 196.570312 210.160156 196.066406 Z M 209.164062 197.015625 C 208.980469 197.125 208.800781 197.226562 208.617188 197.328125 C 208.457031 197.667969 208.191406 197.902344 207.894531 197.722656 C 207.507812 197.925781 207.121094 198.117188 206.722656 198.292969 C 206.679688 198.371094 206.628906 198.449219 206.566406 198.511719 C 206.105469 198.976562 205.390625 199.058594 204.738281 199.109375 C 201.675781 199.359375 198.613281 199.613281 195.554688 199.867188 C 194.605469 199.945312 193.601562 200.042969 192.847656 200.625 C 192.667969 200.765625 192.390625 200.535156 192.402344 200.304688 C 192.414062 200.078125 192.589844 199.894531 192.757812 199.734375 C 194.605469 197.960938 196.453125 196.1875 198.300781 194.410156 C 199.550781 193.210938 199.734375 191.273438 199.574219 189.542969 C 199.414062 187.816406 198.996094 186.066406 199.34375 184.367188 C 199.800781 184.34375 199.980469 184.941406 200.019531 185.398438 C 200.070312 186.03125 200.117188 186.664062 200.167969 187.296875 C 200.375 187.421875 200.589844 187.734375 200.75 188.019531 C 200.75 188.019531 200.753906 188.019531 200.753906 188.019531 C 200.679688 187.890625 200.703125 187.941406 200.765625 188.027344 C 201.15625 188.234375 201.539062 188.460938 201.90625 188.710938 C 202.269531 188.867188 202.640625 189 203.015625 189.121094 C 203.988281 189.429688 205.015625 189.632812 205.949219 190.054688 C 207.695312 190.847656 208.917969 193.097656 209.117188 195.125 C 209.417969 195.953125 209.578125 196.777344 209.164062 197.015625 Z M 193.136719 208.230469 C 192.847656 208.394531 192.496094 208.390625 192.160156 208.378906 C 189.089844 208.273438 186.019531 208.167969 182.945312 208.066406 C 182.703125 208.058594 182.445312 208.042969 182.238281 207.914062 C 181.832031 207.660156 181.796875 207.089844 181.808594 206.609375 C 181.851562 204.785156 181.898438 202.960938 181.941406 201.136719 C 181.964844 200.320312 182.773438 199.699219 183.585938 199.605469 C 184.394531 199.511719 185.195312 199.800781 185.957031 200.089844 C 186.101562 200.566406 185.316406 200.613281 184.828125 200.667969 C 183.835938 200.773438 183.402344 202.300781 184.183594 202.914062 C 184.515625 203.171875 184.429688 203.707031 184.203125 204.066406 C 183.976562 204.421875 183.644531 204.726562 183.542969 205.132812 C 183.398438 205.726562 183.808594 206.34375 184.34375 206.632812 C 184.882812 206.921875 185.511719 206.960938 186.121094 206.992188 C 188.554688 207.125 190.988281 207.253906 193.421875 207.386719 C 193.609375 207.660156 193.425781 208.066406 193.136719 208.230469 Z M 181.066406 196.824219 C 180.085938 195.351562 179.402344 193.203125 180.652344 191.949219 C 185.960938 186.609375 191.351562 181.347656 196.808594 176.15625 C 197.269531 176.535156 196.875 177.269531 196.472656 177.707031 C 191.652344 182.9375 186.632812 187.984375 181.421875 192.824219 C 180.800781 193.40625 180.984375 194.457031 181.4375 195.179688 C 181.890625 195.898438 182.5625 196.488281 182.867188 197.285156 C 182.746094 197.65625 182.246094 197.78125 181.886719 197.628906 C 181.527344 197.480469 181.28125 197.148438 181.066406 196.824219 Z M 198.320312 184.449219 C 194.296875 188.859375 190.183594 193.183594 185.988281 197.429688 C 185.726562 197.695312 185.441406 197.972656 185.078125 198.03125 C 184.710938 198.09375 184.277344 197.8125 184.328125 197.445312 C 188.441406 193.027344 192.695312 188.734375 197.078125 184.582031 C 197.445312 184.234375 198.179688 183.96875 198.320312 184.449219 Z M 198.726562 192.25 C 195.714844 195.640625 192.703125 199.03125 189.6875 202.417969 C 189.367188 202.335938 189.210938 201.9375 189.273438 201.609375 C 189.335938 201.28125 189.558594 201.007812 189.773438 200.753906 C 192.21875 197.84375 194.847656 195.09375 197.644531 192.523438 C 197.949219 192.242188 198.433594 191.960938 198.726562 192.25 Z M 151.40625 185.015625 C 151.226562 185.0625 151.039062 185.007812 150.863281 184.945312 C 150.066406 184.644531 149.378906 184.046875 148.96875 183.292969 C 150.054688 183.410156 153.535156 181.371094 154.417969 182.015625 C 154.273438 182.246094 151.671875 184.949219 151.40625 185.015625 Z M 134.832031 152.792969 C 136.335938 148.121094 137.683594 143.40625 138.867188 138.648438 C 140.921875 133.085938 141.878906 125.820312 138.441406 115.722656 C 141.8125 123.484375 144.550781 147.46875 146.402344 156.273438 C 142.363281 155.636719 138.492188 154.464844 134.832031 152.792969 Z M 265.464844 143.054688 L 249.332031 79.300781 C 248.328125 75.332031 246.601562 70.640625 242.585938 69.875 C 228.605469 67.214844 215.128906 61.929688 203.066406 54.371094 C 209.503906 88.929688 207.59375 124.433594 205.65625 159.53125 C 207.925781 160.316406 210.195312 161.101562 212.460938 161.886719 C 216.703125 163.351562 221.03125 164.863281 224.550781 167.644531 C 228.074219 170.429688 230.699219 174.769531 230.238281 179.238281 C 229.777344 183.707031 225.410156 187.761719 221.023438 186.828125 C 225.757812 185.390625 228.042969 178.84375 225.230469 174.761719 C 226.945312 179.507812 223.773438 184.960938 219.304688 187.28125 C 214.832031 189.597656 209.492188 189.445312 204.519531 188.667969 C 202.378906 188.335938 199.707031 185.914062 201.480469 184.667969 C 202.054688 184.265625 202.824219 184.34375 203.515625 184.445312 C 205.9375 184.785156 208.363281 185.128906 210.785156 185.472656 C 207.273438 183.753906 203.308594 182.996094 199.414062 183.285156 C 198.914062 181.96875 198.917969 180.464844 199.425781 179.148438 C 204.335938 180.621094 209.566406 181.019531 214.644531 180.304688 C 210.765625 179.964844 206.878906 179.625 203 179.289062 C 198.363281 178.882812 197.511719 172.492188 197.996094 167.851562 C 191.921875 173.613281 185.851562 179.375 179.777344 185.136719 C 181.167969 183.511719 182.554688 181.882812 183.941406 180.253906 C 187.332031 176.277344 190.789062 172.242188 195.175781 169.402344 C 197.640625 167.808594 200.46875 166.628906 203.355469 166.175781 C 201.1875 166.046875 199.019531 165.914062 196.851562 165.785156 C 197.128906 163.464844 197.40625 161.144531 197.683594 158.824219 C 190.941406 166.648438 183.261719 173.664062 174.867188 179.671875 C 176.085938 179.226562 177.300781 178.785156 178.515625 178.335938 C 178.960938 185.277344 179.398438 192.214844 179.839844 199.152344 C 177.011719 198.507812 174.179688 197.863281 171.351562 197.214844 C 171.804688 191.417969 172.8125 185.660156 174.363281 180.054688 C 170.042969 181.726562 165.128906 181.808594 160.753906 180.28125 C 156.707031 178.871094 152.285156 180.375 148.265625 181.867188 C 146.054688 175.242188 148.484375 167.804688 152.625 162.183594 C 153.988281 160.335938 155.519531 158.636719 157.144531 157.027344 C 159.265625 156.105469 161.40625 155.222656 163.558594 154.359375 C 165.261719 153.675781 166.894531 153 168.042969 151.492188 C 168.5625 150.816406 170.148438 146.808594 171.183594 147.492188 C 171.367188 147.613281 171.511719 147.613281 171.625 147.535156 C 172.097656 148.410156 172.554688 149.527344 172.464844 150.441406 C 172.152344 153.683594 170.621094 155.730469 168.515625 157.335938 C 169.058594 157.8125 170.035156 157.816406 170.828125 157.703125 C 171.519531 157.601562 172.234375 157.496094 172.832031 157.136719 C 173.429688 156.773438 173.890625 156.085938 173.769531 155.398438 C 173.398438 153.316406 172.527344 148.363281 172.601562 145.144531 C 172.789062 144.878906 172.855469 144.382812 172.875 144.234375 C 173.054688 142.765625 172.957031 141.292969 172.707031 139.835938 C 172.679688 139.671875 172.644531 139.503906 172.609375 139.335938 C 172.648438 138.398438 172.613281 137.453125 172.574219 136.519531 L 169.050781 54.328125 C 167.550781 59.316406 162.0625 61.75 157.183594 63.558594 C 147.277344 67.238281 137.363281 70.917969 127.453125 74.59375 C 124.816406 75.574219 123.851562 78.746094 123.242188 81.5 C 118.585938 102.40625 113.929688 123.3125 109.273438 144.21875 C 107.742188 151.082031 106.339844 158.765625 110.039062 164.742188 C 112.402344 168.554688 116.453125 170.941406 120.375 173.105469 C 127.699219 177.152344 129.324219 180.207031 136.886719 183.78125 C 136.757812 183.710938 136.652344 183.65625 136.5625 183.609375 C 136.734375 183.699219 136.886719 183.78125 136.886719 183.78125 C 139.117188 184.613281 141.347656 185.445312 143.578125 186.28125 C 141.097656 204.503906 139.140625 222.796875 137.714844 241.132812 C 137.511719 243.769531 138.230469 247.433594 140.863281 247.351562 C 143.039062 247.285156 143.988281 250.039062 144.289062 252.203125 L 146.863281 273.515625 C 152.070312 273.632812 157.324219 273.398438 162.503906 273.515625 C 170.441406 273.691406 178.375 273.355469 186.3125 273.515625 C 187.546875 269.292969 188.617188 264.152344 189.492188 259.84375 C 189.613281 259.257812 189.742188 258.644531 190.125 258.183594 C 191.277344 263.054688 192.425781 268.648438 193.578125 273.515625 C 206.804688 273.769531 220.03125 273.28125 233.257812 273.515625 C 233.832031 264.925781 234.40625 256.339844 234.980469 247.753906 C 235.132812 245.441406 235.777344 242.542969 238.046875 242.105469 C 240.410156 241.652344 240.816406 238.472656 240.667969 236.070312 C 239.769531 221.535156 238.871094 206.996094 237.972656 192.460938 C 237.871094 190.769531 237.773438 189.019531 238.351562 187.429688 C 238.800781 186.203125 239.621094 185.15625 240.492188 184.183594 C 244.871094 179.300781 250.667969 175.980469 255.847656 171.964844 C 261.023438 167.949219 265.863281 162.753906 266.933594 156.28125 C 267.664062 151.871094 266.558594 147.386719 265.464844 143.054688 " fill-opacity="1" fill-rule="nonzero"/></g><g fill="#000000" fill-opacity="1"><g transform="translate(69.552273, 337.203622)"><g><path d="M 12.472656 -6.832031 C 12.472656 -5.800781 11.917969 -5.242188 10.882812 -5.242188 L 8.820312 -5.242188 C 7.785156 -5.242188 7.230469 -5.800781 7.230469 -6.832031 L 7.230469 -9.851562 C 7.230469 -10.25 6.992188 -10.488281 6.59375 -10.488281 L 2.621094 -10.488281 C 2.183594 -10.488281 1.984375 -10.25 1.984375 -9.851562 L 1.984375 -5.71875 C 1.984375 -1.984375 3.972656 0 7.707031 0 L 12.15625 0 C 15.847656 0 17.875 -1.984375 17.875 -5.71875 L 17.875 -31.140625 C 17.875 -31.539062 17.636719 -31.777344 17.238281 -31.777344 L 13.109375 -31.777344 C 12.671875 -31.777344 12.472656 -31.539062 12.472656 -31.140625 Z M 12.472656 -6.832031 "/></g></g></g><g fill="#000000" fill-opacity="1"><g transform="translate(88.100266, 337.203622)"><g><path d="M 1.984375 -5.71875 C 1.984375 -1.984375 3.972656 0 7.707031 0 L 12.15625 0 C 15.890625 0 17.875 -1.984375 17.875 -5.71875 L 17.875 -26.058594 C 17.875 -29.792969 15.890625 -31.777344 12.15625 -31.777344 L 7.707031 -31.777344 C 3.972656 -31.777344 1.984375 -29.792969 1.984375 -26.058594 Z M 8.859375 -5.125 C 7.824219 -5.125 7.269531 -5.640625 7.269531 -6.714844 L 7.269531 -25.066406 C 7.269531 -26.097656 7.824219 -26.652344 8.859375 -26.652344 L 11.160156 -26.652344 C 12.195312 -26.652344 12.75 -26.097656 12.75 -25.066406 L 12.75 -6.714844 C 12.75 -5.640625 12.195312 -5.125 11.160156 -5.125 Z M 8.859375 -5.125 "/></g></g></g><g fill="#000000" fill-opacity="1"><g transform="translate(106.648259, 337.203622)"><g><path d="M 17.835938 -31.140625 C 17.835938 -31.539062 17.675781 -31.777344 17.199219 -31.777344 L 2.582031 -31.777344 C 2.222656 -31.777344 1.984375 -31.539062 1.984375 -31.140625 L 1.984375 -0.636719 C 1.984375 -0.238281 2.222656 0 2.582031 0 L 17.199219 0 C 17.675781 0 17.835938 -0.238281 17.835938 -0.636719 L 17.835938 -4.609375 C 17.835938 -5.042969 17.675781 -5.242188 17.199219 -5.242188 L 7.269531 -5.242188 L 7.269531 -13.265625 L 14.855469 -13.265625 C 15.253906 -13.265625 15.492188 -13.503906 15.492188 -13.941406 L 15.492188 -17.875 C 15.492188 -18.3125 15.253906 -18.550781 14.855469 -18.550781 L 7.269531 -18.550781 L 7.269531 -26.496094 L 17.199219 -26.496094 C 17.675781 -26.496094 17.835938 -26.773438 17.835938 -27.171875 Z M 17.835938 -31.140625 "/></g></g></g><g fill="#000000" fill-opacity="1"><g transform="translate(125.156536, 337.203622)"><g/></g></g><g fill="#000000" fill-opacity="1"><g transform="translate(133.774988, 337.203622)"><g><path d="M 18.589844 -31.777344 C 18.113281 -31.777344 17.835938 -31.539062 17.714844 -31.0625 L 13.308594 -11.28125 L 8.898438 -31.0625 C 8.777344 -31.539062 8.5 -31.777344 8.023438 -31.777344 L 2.78125 -31.777344 C 2.265625 -31.777344 1.984375 -31.5 1.984375 -30.984375 L 1.984375 -0.792969 C 1.984375 -0.277344 2.265625 0 2.78125 0 L 6.433594 0 C 6.953125 0 7.230469 -0.277344 7.230469 -0.792969 L 7.230469 -18.667969 L 7.507812 -18.667969 L 11.441406 -0.714844 C 11.558594 -0.238281 11.835938 0 12.3125 0 L 14.261719 0 C 14.738281 0 15.015625 -0.238281 15.132812 -0.714844 L 19.066406 -18.667969 L 19.34375 -18.667969 L 19.34375 -0.792969 C 19.34375 -0.277344 19.621094 0 20.140625 0 L 23.832031 0 C 24.351562 0 24.628906 -0.277344 24.628906 -0.792969 L 24.628906 -30.984375 C 24.628906 -31.5 24.351562 -31.777344 23.832031 -31.777344 Z M 18.589844 -31.777344 "/></g></g></g><g fill="#000000" fill-opacity="1"><g transform="translate(159.075082, 337.203622)"><g><path d="M 17.835938 -31.140625 C 17.835938 -31.539062 17.675781 -31.777344 17.199219 -31.777344 L 2.582031 -31.777344 C 2.222656 -31.777344 1.984375 -31.539062 1.984375 -31.140625 L 1.984375 -0.636719 C 1.984375 -0.238281 2.222656 0 2.582031 0 L 17.199219 0 C 17.675781 0 17.835938 -0.238281 17.835938 -0.636719 L 17.835938 -4.609375 C 17.835938 -5.042969 17.675781 -5.242188 17.199219 -5.242188 L 7.269531 -5.242188 L 7.269531 -13.265625 L 14.855469 -13.265625 C 15.253906 -13.265625 15.492188 -13.503906 15.492188 -13.941406 L 15.492188 -17.875 C 15.492188 -18.3125 15.253906 -18.550781 14.855469 -18.550781 L 7.269531 -18.550781 L 7.269531 -26.496094 L 17.199219 -26.496094 C 17.675781 -26.496094 17.835938 -26.773438 17.835938 -27.171875 Z M 17.835938 -31.140625 "/></g></g></g><g fill="#000000" fill-opacity="1"><g transform="translate(177.583363, 337.203622)"><g><path d="M 14.179688 -31.777344 C 13.742188 -31.777344 13.546875 -31.539062 13.546875 -31.140625 L 13.546875 -14.378906 L 13.308594 -14.378906 L 7.269531 -31.261719 C 7.148438 -31.617188 6.910156 -31.777344 6.554688 -31.777344 L 2.621094 -31.777344 C 2.222656 -31.777344 1.984375 -31.539062 1.984375 -31.140625 L 1.984375 -0.636719 C 1.984375 -0.238281 2.222656 0 2.621094 0 L 6.753906 0 C 7.191406 0 7.386719 -0.238281 7.386719 -0.636719 L 7.386719 -17.476562 L 7.585938 -17.476562 L 13.664062 -0.515625 C 13.785156 -0.160156 14.023438 0 14.378906 0 L 18.3125 0 C 18.710938 0 18.949219 -0.238281 18.949219 -0.636719 L 18.949219 -31.140625 C 18.949219 -31.539062 18.710938 -31.777344 18.3125 -31.777344 Z M 14.179688 -31.777344 "/></g></g></g><g fill="#000000" fill-opacity="1"><g transform="translate(197.203762, 337.203622)"><g><path d="M 7.707031 -31.777344 C 4.011719 -31.777344 1.984375 -29.792969 1.984375 -26.058594 L 1.984375 -16.683594 C 1.984375 -15.929688 2.34375 -15.453125 3.058594 -15.214844 L 12.472656 -12.117188 L 12.472656 -6.832031 C 12.472656 -5.757812 11.917969 -5.242188 10.882812 -5.242188 L 8.976562 -5.242188 C 7.984375 -5.242188 7.386719 -5.757812 7.386719 -6.832031 L 7.386719 -9.890625 C 7.386719 -10.328125 7.191406 -10.527344 6.753906 -10.527344 L 2.621094 -10.527344 C 2.222656 -10.527344 1.984375 -10.328125 1.984375 -9.890625 L 1.984375 -5.71875 C 1.984375 -1.984375 4.011719 0 7.707031 0 L 12.15625 0 C 15.890625 0 17.875 -1.984375 17.875 -5.71875 L 17.875 -14.894531 C 17.875 -15.652344 17.519531 -16.085938 16.84375 -16.367188 L 7.386719 -19.464844 L 7.386719 -24.945312 C 7.386719 -25.976562 7.984375 -26.535156 8.976562 -26.535156 L 10.882812 -26.535156 C 11.957031 -26.535156 12.472656 -25.976562 12.472656 -24.945312 L 12.472656 -21.847656 C 12.472656 -21.449219 12.710938 -21.210938 13.109375 -21.210938 L 17.238281 -21.210938 C 17.675781 -21.210938 17.875 -21.449219 17.875 -21.847656 L 17.875 -26.058594 C 17.875 -29.792969 15.890625 -31.777344 12.15625 -31.777344 Z M 7.707031 -31.777344 "/></g></g></g><g fill="#000000" fill-opacity="1"><g transform="translate(215.751757, 337.203622)"><g><path d="M 23.714844 -31.777344 C 23.238281 -31.777344 22.917969 -31.5 22.878906 -31.023438 L 21.25 -12.433594 L 21.054688 -12.433594 L 17.160156 -31.0625 C 17.039062 -31.539062 16.761719 -31.777344 16.285156 -31.777344 L 13.902344 -31.777344 C 13.425781 -31.777344 13.148438 -31.539062 13.027344 -31.0625 L 9.097656 -12.433594 L 8.898438 -12.433594 L 7.347656 -31.023438 C 7.308594 -31.5 6.992188 -31.777344 6.515625 -31.777344 L 2.742188 -31.777344 C 2.222656 -31.777344 1.945312 -31.460938 1.984375 -30.945312 L 5.242188 -0.753906 C 5.28125 -0.238281 5.5625 0 6.078125 0 L 10.050781 0 C 10.527344 0 10.804688 -0.238281 10.921875 -0.675781 L 15.09375 -18.667969 L 19.226562 -0.714844 C 19.34375 -0.238281 19.621094 0 20.097656 0 L 23.992188 0 C 24.507812 0 24.785156 -0.238281 24.828125 -0.753906 L 28.242188 -30.945312 C 28.28125 -31.460938 28.003906 -31.777344 27.488281 -31.777344 Z M 23.714844 -31.777344 "/></g></g></g><g fill="#000000" fill-opacity="1"><g transform="translate(244.666193, 337.203622)"><g><path d="M 17.835938 -31.140625 C 17.835938 -31.539062 17.675781 -31.777344 17.199219 -31.777344 L 2.582031 -31.777344 C 2.222656 -31.777344 1.984375 -31.539062 1.984375 -31.140625 L 1.984375 -0.636719 C 1.984375 -0.238281 2.222656 0 2.582031 0 L 17.199219 0 C 17.675781 0 17.835938 -0.238281 17.835938 -0.636719 L 17.835938 -4.609375 C 17.835938 -5.042969 17.675781 -5.242188 17.199219 -5.242188 L 7.269531 -5.242188 L 7.269531 -13.265625 L 14.855469 -13.265625 C 15.253906 -13.265625 15.492188 -13.503906 15.492188 -13.941406 L 15.492188 -17.875 C 15.492188 -18.3125 15.253906 -18.550781 14.855469 -18.550781 L 7.269531 -18.550781 L 7.269531 -26.496094 L 17.199219 -26.496094 C 17.675781 -26.496094 17.835938 -26.773438 17.835938 -27.171875 Z M 17.835938 -31.140625 "/></g></g></g><g fill="#000000" fill-opacity="1"><g transform="translate(263.174474, 337.203622)"><g><path d="M 21.132812 0 C 21.609375 0 21.769531 -0.238281 21.6875 -0.675781 L 15.09375 -31.222656 C 15.015625 -31.617188 14.777344 -31.777344 14.417969 -31.777344 L 8.898438 -31.777344 C 8.539062 -31.777344 8.300781 -31.617188 8.222656 -31.222656 L 1.628906 -0.675781 C 1.507812 -0.238281 1.707031 0 2.144531 0 L 6.394531 0 C 6.753906 0 6.953125 -0.199219 7.03125 -0.554688 L 8.101562 -6.355469 L 15.175781 -6.355469 L 16.285156 -0.554688 C 16.367188 -0.199219 16.5625 0 16.921875 0 Z M 14.179688 -10.964844 L 9.097656 -10.964844 L 11.640625 -24.828125 Z M 14.179688 -10.964844 "/></g></g></g><g fill="#000000" fill-opacity="1"><g transform="translate(285.138233, 337.203622)"><g><path d="M 18.3125 -26.058594 C 18.3125 -29.792969 16.324219 -31.777344 12.59375 -31.777344 L 2.621094 -31.777344 C 2.222656 -31.777344 1.984375 -31.539062 1.984375 -31.140625 L 1.984375 -0.636719 C 1.984375 -0.238281 2.222656 0 2.621094 0 L 6.753906 0 C 7.148438 0 7.386719 -0.238281 7.386719 -0.636719 L 7.386719 -10.644531 L 10.128906 -10.644531 L 12.789062 -0.554688 C 12.871094 -0.199219 13.070312 0 13.464844 0 L 17.597656 0 C 18.035156 0 18.273438 -0.238281 18.152344 -0.714844 L 15.414062 -11.121094 C 17.320312 -11.957031 18.3125 -13.703125 18.3125 -16.367188 Z M 7.386719 -15.890625 L 7.386719 -26.535156 L 11.320312 -26.535156 C 12.355469 -26.535156 12.910156 -25.976562 12.910156 -24.945312 L 12.910156 -17.476562 C 12.910156 -16.445312 12.355469 -15.890625 11.320312 -15.890625 Z M 7.386719 -15.890625 "/></g></g></g></svg>