<svg xmlns="http://www.w3.org/2000/svg" xmlns:xlink="http://www.w3.org/1999/xlink" width="500" zoomAndPan="magnify" viewBox="0 0 375 374.999991" height="500" preserveAspectRatio="xMidYMid meet" version="1.0"><defs><clipPath id="65b82f9a43"><path d="M 0 265 L 366 265 L 366 320.34375 L 0 320.34375 Z M 0 265 " clip-rule="nonzero"/></clipPath></defs><path fill="#ffffff" d="M 338.039062 111.035156 L 27.976562 111.035156 C 12.714844 111.035156 0.339844 98.652344 0.339844 83.378906 C 0.117188 65.351562 17.179688 54.917969 28.070312 55.722656 C 34.789062 55.742188 337.835938 55.703125 338.496094 55.726562 C 374.722656 57.675781 374.515625 109.582031 338.039062 111.035156 Z M 338.039062 111.035156 " fill-opacity="1" fill-rule="nonzero"/><path fill="#ffffff" d="M 338.039062 215.726562 L 27.976562 215.726562 C 12.714844 215.726562 0.339844 203.347656 0.339844 188.070312 C 0.117188 170.046875 17.179688 159.613281 28.070312 160.417969 C 34.789062 160.433594 337.835938 160.398438 338.496094 160.421875 C 374.722656 162.371094 374.515625 214.277344 338.039062 215.726562 Z M 338.039062 215.726562 " fill-opacity="1" fill-rule="nonzero"/><g clip-path="url(#65b82f9a43)"><path fill="#ffffff" d="M 338.039062 320.421875 L 27.976562 320.421875 C 12.714844 320.421875 0.339844 308.039062 0.339844 292.765625 C 0.117188 274.738281 17.179688 264.304688 28.070312 265.109375 C 34.789062 265.128906 337.835938 265.09375 338.496094 265.113281 C 374.722656 267.066406 374.515625 318.96875 338.039062 320.421875 Z M 338.039062 320.421875 " fill-opacity="1" fill-rule="nonzero"/></g></svg>