<svg xmlns="http://www.w3.org/2000/svg" xmlns:xlink="http://www.w3.org/1999/xlink" width="500" zoomAndPan="magnify" viewBox="0 0 375 374.999991" height="500" preserveAspectRatio="xMidYMid meet" version="1.0"><defs><clipPath id="8ec207f40d"><path d="M 7.621094 82.410156 L 367.621094 82.410156 L 367.621094 319.324219 L 7.621094 319.324219 Z M 7.621094 82.410156 " clip-rule="nonzero"/></clipPath></defs><g clip-path="url(#8ec207f40d)"><path fill="#ffffff" d="M 345.054688 211.703125 C 350.140625 216.789062 354.535156 221.179688 354.535156 230.171875 C 354.535156 237.726562 349.601562 243.359375 346.65625 246.042969 C 342.160156 250.144531 336.371094 252.792969 331.898438 252.792969 C 329.691406 252.792969 327.902344 254.578125 327.902344 256.785156 C 327.902344 258.988281 329.691406 260.777344 331.898438 260.777344 C 334.125 260.777344 336.460938 260.394531 338.816406 259.675781 C 338.945312 261.957031 338.953125 265.695312 338.097656 269.648438 C 336.390625 277.53125 332.089844 282.675781 325.308594 284.933594 C 313.550781 288.847656 302.652344 280.449219 302.433594 280.277344 C 300.714844 278.90625 298.207031 279.183594 296.824219 280.902344 C 295.445312 282.621094 295.722656 285.132812 297.441406 286.511719 C 297.613281 286.648438 298.933594 287.6875 301.109375 288.945312 C 300.585938 290.941406 299.179688 295.59375 296.414062 300.148438 C 291.894531 307.578125 285.914062 311.34375 278.636719 311.34375 C 269.328125 311.34375 262.726562 307.683594 259.019531 300.464844 C 256.09375 294.765625 256.003906 288.847656 256 288.710938 L 256 278.074219 C 256 275.871094 254.214844 274.082031 252.007812 274.082031 C 249.800781 274.082031 248.011719 275.871094 248.011719 278.074219 L 248.011719 288.707031 C 248.011719 288.769531 247.9375 294.726562 244.992188 300.464844 C 241.289062 307.683594 234.6875 311.34375 225.378906 311.34375 C 220.273438 311.34375 215.960938 309.980469 212.558594 307.292969 C 209.78125 305.097656 207.523438 301.980469 205.84375 298.019531 C 202.933594 291.167969 202.75 284.097656 202.742188 283.453125 C 202.757812 282.417969 202.375 281.375 201.589844 280.582031 C 200.210938 279.195312 198.074219 279.027344 196.515625 280.085938 C 196.507812 280.089844 196.503906 280.09375 196.5 280.097656 C 196.402344 280.164062 196.308594 280.234375 196.21875 280.308594 C 196.167969 280.347656 196.125 280.390625 196.078125 280.433594 C 196.035156 280.472656 195.988281 280.511719 195.945312 280.550781 C 195.863281 280.632812 187.546875 288.605469 178.980469 285.035156 C 168.65625 280.738281 169.066406 270.824219 170.371094 261.039062 C 170.382812 260.949219 170.394531 260.863281 170.40625 260.777344 L 203.175781 260.777344 C 206.089844 262.109375 215.621094 266.097656 225.378906 266.097656 C 235.546875 266.097656 241.578125 262.207031 244.84375 258.941406 C 249.144531 254.648438 250.675781 249.511719 250.675781 246.140625 L 250.675781 230.171875 C 250.675781 227.964844 248.890625 226.179688 246.679688 226.179688 L 234.75 226.179688 C 235.289062 225.152344 235.671875 224.054688 235.792969 222.914062 C 236.039062 220.613281 235.234375 218.410156 233.527344 216.703125 C 228.632812 211.8125 219.726562 215.878906 213.449219 219.363281 C 208.851562 221.917969 204.679688 224.808594 202.769531 226.179688 L 134.832031 226.179688 C 134.785156 226.179688 134.738281 226.183594 134.6875 226.1875 C 134.628906 226.1875 134.574219 226.191406 134.515625 226.195312 C 134.441406 226.199219 134.363281 226.210938 134.289062 226.222656 C 134.234375 226.226562 134.183594 226.234375 134.128906 226.246094 C 134.046875 226.257812 133.96875 226.277344 133.890625 226.296875 C 133.84375 226.308594 133.796875 226.320312 133.75 226.332031 C 133.664062 226.355469 133.582031 226.382812 133.5 226.410156 C 133.457031 226.425781 133.417969 226.441406 133.375 226.457031 C 133.292969 226.488281 133.210938 226.527344 133.132812 226.5625 C 133.105469 226.574219 133.078125 226.585938 133.050781 226.597656 C 132.953125 226.648438 123.070312 231.5 113.527344 231.5 C 107.714844 231.5 103.464844 229.828125 100.535156 226.382812 C 95.882812 220.914062 95.597656 212.265625 95.847656 207.550781 L 113.527344 207.550781 C 115.300781 207.550781 116.859375 206.382812 117.359375 204.683594 C 117.859375 202.984375 117.183594 201.160156 115.691406 200.203125 C 113.761719 198.957031 111.699219 196.929688 111.179688 195.820312 C 112.125 195.769531 115.222656 196.0625 122.613281 200.316406 C 127.832031 203.320312 132.355469 206.6875 132.4375 206.75 C 132.460938 206.769531 132.488281 206.785156 132.511719 206.800781 C 132.574219 206.84375 132.636719 206.886719 132.699219 206.925781 C 132.746094 206.957031 132.796875 206.988281 132.847656 207.019531 C 132.910156 207.054688 132.972656 207.089844 133.039062 207.121094 C 133.09375 207.148438 133.144531 207.171875 133.199219 207.199219 C 133.265625 207.226562 133.328125 207.253906 133.390625 207.277344 C 133.449219 207.300781 133.507812 207.324219 133.570312 207.339844 C 133.632812 207.363281 133.695312 207.382812 133.757812 207.398438 C 133.820312 207.417969 133.886719 207.433594 133.949219 207.449219 C 134.011719 207.460938 134.074219 207.472656 134.136719 207.484375 C 134.203125 207.496094 134.273438 207.507812 134.34375 207.515625 C 134.402344 207.523438 134.460938 207.527344 134.519531 207.535156 C 134.59375 207.539062 134.667969 207.542969 134.738281 207.546875 C 134.769531 207.546875 134.800781 207.550781 134.832031 207.550781 L 177.441406 207.550781 C 179.648438 207.550781 181.4375 205.761719 181.4375 203.558594 C 181.4375 201.351562 179.648438 199.566406 177.441406 199.566406 L 136.136719 199.566406 C 134.226562 198.195312 130.054688 195.304688 125.457031 192.75 C 119.179688 189.265625 110.273438 185.199219 105.378906 190.089844 C 103.671875 191.792969 102.867188 194 103.113281 196.296875 C 103.234375 197.441406 103.617188 198.539062 104.152344 199.566406 L 92.226562 199.566406 C 90.273438 199.566406 88.605469 200.976562 88.285156 202.902344 C 88.253906 203.082031 87.542969 207.425781 87.890625 212.992188 C 88.371094 220.742188 90.570312 226.976562 94.421875 231.523438 C 98.902344 236.808594 105.328125 239.484375 113.527344 239.484375 C 123.285156 239.484375 132.816406 235.496094 135.730469 234.164062 L 204.074219 234.164062 C 204.101562 234.164062 204.132812 234.160156 204.160156 234.160156 C 204.238281 234.15625 204.3125 234.152344 204.390625 234.148438 C 204.445312 234.140625 204.503906 234.136719 204.558594 234.128906 C 204.632812 234.121094 204.703125 234.109375 204.777344 234.097656 C 204.835938 234.085938 204.894531 234.074219 204.953125 234.0625 C 205.019531 234.046875 205.085938 234.03125 205.152344 234.011719 C 205.210938 233.996094 205.273438 233.976562 205.335938 233.957031 C 205.394531 233.9375 205.457031 233.914062 205.515625 233.890625 C 205.578125 233.867188 205.644531 233.839844 205.703125 233.8125 C 205.757812 233.789062 205.8125 233.761719 205.867188 233.734375 C 205.933594 233.699219 205.996094 233.667969 206.058594 233.632812 C 206.109375 233.601562 206.15625 233.574219 206.207031 233.542969 C 206.269531 233.5 206.332031 233.457031 206.394531 233.414062 C 206.417969 233.398438 206.445312 233.382812 206.46875 233.367188 C 206.515625 233.332031 210.996094 229.980469 216.234375 226.964844 C 223.667969 222.675781 226.777344 222.382812 227.730469 222.4375 C 227.210938 223.539062 225.179688 225.539062 223.214844 226.816406 C 221.722656 227.773438 221.042969 229.597656 221.542969 231.296875 C 222.046875 232.996094 223.605469 234.164062 225.378906 234.164062 L 242.683594 234.164062 L 242.683594 246.140625 C 242.683594 248.667969 239.75 258.117188 225.378906 258.117188 C 215.835938 258.117188 205.953125 253.261719 205.859375 253.214844 C 205.832031 253.199219 205.800781 253.191406 205.773438 253.175781 C 205.695312 253.140625 205.621094 253.105469 205.539062 253.074219 C 205.492188 253.054688 205.441406 253.039062 205.390625 253.019531 C 205.320312 252.996094 205.246094 252.972656 205.175781 252.949219 C 205.113281 252.933594 205.050781 252.917969 204.992188 252.902344 C 204.929688 252.886719 204.867188 252.875 204.800781 252.863281 C 204.726562 252.847656 204.65625 252.835938 204.578125 252.828125 C 204.527344 252.820312 204.472656 252.816406 204.417969 252.808594 C 204.335938 252.804688 204.253906 252.800781 204.167969 252.796875 C 204.136719 252.796875 204.105469 252.792969 204.074219 252.792969 L 166.789062 252.792969 C 166.769531 252.792969 166.753906 252.796875 166.734375 252.796875 C 166.660156 252.796875 166.582031 252.800781 166.507812 252.808594 C 166.449219 252.8125 166.394531 252.8125 166.335938 252.820312 C 166.265625 252.828125 166.195312 252.839844 166.125 252.851562 C 166.066406 252.863281 166.003906 252.871094 165.949219 252.882812 C 165.882812 252.898438 165.816406 252.917969 165.75 252.933594 C 165.691406 252.949219 165.628906 252.964844 165.570312 252.984375 C 165.507812 253.003906 165.445312 253.027344 165.386719 253.050781 C 165.324219 253.074219 165.261719 253.097656 165.203125 253.121094 C 165.148438 253.144531 165.089844 253.175781 165.03125 253.203125 C 164.972656 253.234375 164.910156 253.261719 164.855469 253.292969 C 164.800781 253.324219 164.75 253.355469 164.699219 253.386719 C 164.636719 253.425781 164.578125 253.460938 164.515625 253.503906 C 164.472656 253.535156 164.425781 253.570312 164.382812 253.605469 C 164.320312 253.652344 164.261719 253.695312 164.203125 253.746094 C 164.1875 253.757812 164.171875 253.769531 164.160156 253.78125 L 124.078125 288.832031 C 113.503906 280.273438 72.871094 247.03125 41.753906 216.667969 C 30.082031 205.28125 22.183594 193.175781 18.285156 180.695312 C 14.894531 169.855469 14.726562 159.035156 17.800781 149.40625 C 20.175781 141.96875 24.441406 135.421875 30.144531 130.464844 C 35.867188 125.488281 42.917969 122.226562 50.53125 121.03125 C 60.542969 119.460938 71.355469 121.46875 81.796875 126.84375 C 93.929688 133.085938 105.304688 143.5625 115.605469 157.972656 C 116.378906 159.058594 117.644531 159.679688 118.976562 159.644531 C 120.3125 159.601562 121.535156 158.898438 122.242188 157.769531 C 129.027344 146.917969 137.175781 138.242188 146.449219 131.984375 C 154.6875 126.425781 163.769531 122.910156 172.714844 121.816406 C 185.957031 120.199219 198.316406 123.878906 206.621094 131.90625 C 206.691406 131.976562 206.753906 132.03125 206.828125 132.09375 C 206.921875 132.175781 216.3125 140.289062 216.882812 154.140625 C 217.414062 167.097656 210.359375 180.984375 195.921875 195.414062 C 194.363281 196.972656 194.363281 199.5 195.921875 201.058594 C 197.480469 202.617188 200.011719 202.617188 201.570312 201.058594 C 217.71875 184.921875 225.550781 168.964844 224.855469 153.636719 C 224.101562 137.03125 213.472656 127.285156 212.089844 126.085938 C 209.277344 123.382812 206.105469 121.089844 202.648438 119.230469 C 202.792969 118.554688 202.769531 117.835938 202.535156 117.132812 C 200.535156 111.125 201.769531 104.585938 205.929688 99.191406 C 210.519531 93.238281 217.691406 89.964844 225.121094 90.441406 C 225.207031 90.445312 225.292969 90.449219 225.378906 90.449219 C 230.984375 90.449219 236.582031 93.066406 240.730469 97.625 C 244.050781 101.277344 248.011719 107.847656 248.011719 118.394531 L 248.011719 139.683594 C 248.011719 141.890625 249.800781 143.675781 252.007812 143.675781 C 254.214844 143.675781 256 141.890625 256 139.683594 L 256 118.394531 C 256 107.847656 259.960938 101.277344 263.285156 97.625 C 267.433594 93.066406 273.027344 90.449219 278.636719 90.449219 C 292.730469 90.449219 300.710938 99.699219 301.242188 116.554688 C 299.921875 117.386719 298.613281 118.332031 297.3125 119.386719 C 290.230469 125.148438 286.023438 132.234375 285.847656 132.535156 C 284.730469 134.4375 285.367188 136.882812 287.265625 138 C 289.167969 139.117188 291.617188 138.480469 292.734375 136.578125 C 292.769531 136.519531 296.378906 130.441406 302.355469 125.578125 C 309.789062 119.53125 317.265625 118.3125 324.566406 121.964844 C 331.878906 125.617188 335.613281 131.957031 335.675781 140.804688 C 335.722656 147.957031 333.320312 154.117188 333.296875 154.171875 C 332.804688 155.398438 332.957031 156.792969 333.699219 157.890625 C 334.441406 158.988281 335.679688 159.644531 337.007812 159.644531 C 345.460938 159.644531 359.640625 162.582031 359.640625 182.265625 C 359.640625 189.804688 356.5 195.675781 350.300781 199.714844 C 345.332031 202.953125 338.371094 204.886719 331.679688 204.886719 C 329.476562 204.886719 327.683594 206.675781 327.683594 208.878906 C 327.683594 211.085938 329.476562 212.871094 331.679688 212.871094 C 336.035156 212.871094 340.414062 212.222656 344.5 211.011719 C 344.65625 211.253906 344.839844 211.488281 345.054688 211.703125 Z M 354.667969 206.402344 C 363.148438 200.875 367.632812 192.527344 367.632812 182.265625 C 367.632812 171.828125 364.347656 163.800781 357.871094 158.40625 C 353.726562 154.953125 348.40625 152.773438 342.289062 151.988281 C 342.992188 149.101562 343.664062 145.234375 343.664062 141.015625 C 343.664062 128.953125 338.296875 119.898438 328.140625 114.824219 C 321.847656 111.679688 315.390625 111.074219 309.03125 112.957031 C 308.257812 104.164062 305.554688 97.066406 300.949219 91.8125 C 295.597656 85.699219 287.882812 82.464844 278.636719 82.464844 C 270.78125 82.464844 263.035156 86.035156 257.375 92.253906 C 255.234375 94.605469 253.4375 97.292969 252.007812 100.230469 C 250.578125 97.292969 248.78125 94.605469 246.640625 92.253906 C 241.011719 86.066406 233.316406 82.503906 225.503906 82.464844 C 215.464844 81.867188 205.789062 86.289062 199.601562 94.316406 C 196.871094 97.859375 194.980469 101.960938 194.132812 106.179688 C 193.496094 109.363281 193.4375 112.527344 193.957031 115.640625 C 187.089844 113.570312 179.53125 112.941406 171.746094 113.894531 C 161.554688 115.136719 151.261719 119.105469 141.980469 125.367188 C 133.203125 131.285156 125.378906 139.121094 118.664062 148.707031 C 108.519531 135.605469 97.367188 125.875 85.457031 119.746094 C 73.496094 113.589844 60.992188 111.308594 49.292969 113.144531 C 40.191406 114.570312 31.757812 118.476562 24.898438 124.441406 C 18.09375 130.359375 13.007812 138.152344 10.191406 146.976562 C 6.613281 158.175781 6.777344 170.660156 10.65625 183.078125 C 14.957031 196.835938 23.542969 210.058594 36.171875 222.382812 C 72.347656 257.679688 121.199219 296.769531 121.6875 297.164062 C 122.417969 297.746094 123.300781 298.035156 124.179688 298.035156 C 125.121094 298.035156 126.058594 297.703125 126.8125 297.046875 L 161.773438 266.476562 C 161.601562 269.496094 161.667969 272.847656 162.375 276.175781 C 164.011719 283.886719 168.566406 289.347656 175.90625 292.40625 C 178.386719 293.4375 180.980469 293.953125 183.632812 293.953125 C 187.050781 293.953125 190.5625 293.097656 194.050781 291.398438 C 194.546875 291.15625 195.019531 290.90625 195.472656 290.65625 C 195.988281 293.652344 196.871094 297.265625 198.386719 300.902344 C 200.582031 306.164062 203.640625 310.390625 207.484375 313.460938 C 212.351562 317.351562 218.371094 319.324219 225.378906 319.324219 C 240.824219 319.324219 248.367188 311.261719 252.007812 304.289062 C 255.644531 311.261719 263.191406 319.324219 278.636719 319.324219 C 288.828125 319.324219 297.378906 314.054688 303.367188 304.082031 C 306.089844 299.550781 307.671875 295.039062 308.480469 292.261719 C 311.496094 293.253906 314.980469 293.976562 318.75 293.976562 C 321.636719 293.976562 324.695312 293.554688 327.835938 292.507812 C 337.425781 289.3125 343.695312 281.902344 345.960938 271.074219 C 347.589844 263.296875 346.542969 256.449219 346.496094 256.160156 C 346.496094 256.15625 346.492188 256.148438 346.492188 256.140625 C 348.425781 254.941406 350.296875 253.535156 352.042969 251.9375 C 358.800781 245.773438 362.523438 238.042969 362.523438 230.171875 C 362.523438 219.109375 357.445312 212.921875 352.390625 207.757812 C 353.175781 207.332031 353.933594 206.878906 354.667969 206.402344 " fill-opacity="1" fill-rule="nonzero"/></g><path fill="#ffffff" d="M 271.644531 170.617188 C 269.644531 166.027344 265.25 163.148438 260.171875 163.097656 C 260.128906 163.097656 260.089844 163.097656 260.042969 163.097656 C 254.953125 163.097656 250.492188 165.945312 248.375 170.546875 C 247.457031 172.550781 248.335938 174.921875 250.339844 175.839844 C 252.347656 176.761719 254.71875 175.882812 255.640625 173.878906 C 256.84375 171.257812 259.355469 171.078125 260.097656 171.082031 C 260.8125 171.089844 263.230469 171.304688 264.324219 173.808594 C 264.980469 175.308594 266.445312 176.207031 267.988281 176.207031 C 268.523438 176.207031 269.0625 176.097656 269.582031 175.871094 C 271.605469 174.992188 272.53125 172.636719 271.644531 170.617188 " fill-opacity="1" fill-rule="nonzero"/><path fill="#ffffff" d="M 306.800781 163.054688 C 302.257812 163.332031 298.335938 166.136719 296.308594 170.546875 C 295.390625 172.550781 296.269531 174.921875 298.277344 175.839844 C 298.816406 176.089844 299.382812 176.207031 299.9375 176.207031 C 301.453125 176.207031 302.902344 175.339844 303.574219 173.878906 C 304.375 172.136719 305.695312 171.121094 307.289062 171.023438 C 309.230469 170.902344 311.175781 172.132812 312.523438 174.308594 C 313.679688 176.183594 316.140625 176.769531 318.019531 175.609375 C 319.898438 174.453125 320.476562 171.992188 319.320312 170.117188 C 316.402344 165.390625 311.722656 162.75 306.800781 163.054688 " fill-opacity="1" fill-rule="nonzero"/><path fill="#ffffff" d="M 291.792969 185.359375 C 289.496094 187.648438 287.136719 188.828125 284.636719 188.910156 C 282.132812 188.828125 279.769531 187.648438 277.476562 185.359375 C 275.917969 183.800781 273.390625 183.800781 271.832031 185.359375 C 270.269531 186.917969 270.269531 189.445312 271.832031 191.003906 C 275.542969 194.714844 279.835938 196.703125 284.3125 196.878906 L 284.3125 196.894531 C 284.421875 196.894531 284.527344 196.886719 284.636719 196.886719 C 284.742188 196.886719 284.847656 196.894531 284.957031 196.894531 L 284.957031 196.878906 C 289.433594 196.703125 293.726562 194.714844 297.441406 191.003906 C 299 189.445312 299 186.917969 297.441406 185.359375 C 295.878906 183.800781 293.351562 183.800781 291.792969 185.359375 " fill-opacity="1" fill-rule="nonzero"/><path fill="#ffffff" d="M 196.246094 149.171875 C 192.542969 145.472656 186.828125 144.351562 181.679688 146.316406 C 176.875 148.148438 173.722656 152.28125 173.453125 157.09375 C 173.328125 159.292969 175.015625 161.179688 177.21875 161.300781 C 177.296875 161.308594 177.371094 161.308594 177.445312 161.308594 C 179.550781 161.308594 181.3125 159.664062 181.429688 157.539062 C 181.5625 155.160156 183.640625 154.113281 184.53125 153.777344 C 186.207031 153.136719 188.800781 153.023438 190.59375 154.816406 C 192.15625 156.375 194.683594 156.375 196.246094 154.816406 C 197.804688 153.257812 197.804688 150.730469 196.246094 149.171875 " fill-opacity="1" fill-rule="nonzero"/><path fill="#ffffff" d="M 135.054688 161.75 C 130.179688 163.226562 126.640625 167.246094 125.589844 172.5 C 125.15625 174.664062 126.558594 176.765625 128.722656 177.199219 C 128.988281 177.25 129.25 177.277344 129.511719 177.277344 C 131.375 177.277344 133.042969 175.964844 133.425781 174.066406 C 133.894531 171.710938 135.332031 170.007812 137.371094 169.390625 C 139.246094 168.824219 141.222656 169.347656 142.660156 170.785156 C 144.222656 172.34375 146.75 172.34375 148.308594 170.785156 C 149.871094 169.226562 149.871094 166.699219 148.308594 165.140625 C 144.804688 161.636719 139.726562 160.335938 135.054688 161.75 " fill-opacity="1" fill-rule="nonzero"/><path fill="#ffffff" d="M 179.4375 169.664062 C 176.433594 167.878906 173.652344 172.023438 173.652344 172.023438 L 173.660156 172 C 173.644531 172.042969 171.984375 176.699219 168.25 177.953125 C 165.648438 178.824219 162.320312 177.925781 158.355469 175.285156 C 156.519531 174.0625 154.039062 174.558594 152.8125 176.394531 C 151.589844 178.226562 152.085938 180.707031 153.921875 181.929688 C 158.257812 184.816406 162.367188 186.265625 166.191406 186.265625 C 167.804688 186.265625 169.371094 186.007812 170.882812 185.492188 C 178.359375 182.925781 181.117188 174.886719 181.230469 174.546875 C 181.230469 174.546875 182.441406 171.445312 179.4375 169.664062 " fill-opacity="1" fill-rule="nonzero"/></svg>